<?xml version="1.0" encoding="utf-8" standalone="no"?>
<!DOCTYPE svg PUBLIC "-//W3C//DTD SVG 1.1//EN"
  "http://www.w3.org/Graphics/SVG/1.1/DTD/svg11.dtd">
<svg height="212pt" version="1.1" viewBox="0 0 425 212" width="425pt" xmlns="http://www.w3.org/2000/svg" xmlns:xlink="http://www.w3.org/1999/xlink">
 <metadata>
  <rdf:RDF xmlns:cc="http://creativecommons.org/ns#" xmlns:dc="http://purl.org/dc/elements/1.1/" xmlns:rdf="http://www.w3.org/1999/02/22-rdf-syntax-ns#">
   <cc:Work>
    <dc:type rdf:resource="http://purl.org/dc/dcmitype/StillImage"/>
    <dc:date>2024-06-03T15:30:35.305409</dc:date>
    <dc:format>image/svg+xml</dc:format>
    <dc:creator>
     <cc:Agent>
      <dc:title>Matplotlib v3.4.3, https://matplotlib.org/</dc:title>
     </cc:Agent>
    </dc:creator>
   </cc:Work>
  </rdf:RDF>
 </metadata>
 <defs>
  <style type="text/css">*{stroke-linecap:butt;stroke-linejoin:round;}</style>
 </defs>
 <g id="figure_1">
  <g id="patch_1">
   <path d="M 0 212 
L 425 212 
L 425 0 
L 0 0 
z
" style="fill:#ffffff;"/>
  </g>
  <g id="axes_1">
   <g id="patch_2">
    <path d="M 47.38125 170.84375 
L 414.2 170.84375 
L 414.2 10.8 
L 47.38125 10.8 
z
" style="fill:#ffffff;"/>
   </g>
   <g id="matplotlib.axis_1">
    <g id="xtick_1">
     <g id="line2d_1">
      <defs>
       <path d="M 0 0 
L 0 3.5 
" id="m560d0c045b" style="stroke:#000000;stroke-width:0.8;"/>
      </defs>
      <g>
       <use style="stroke:#000000;stroke-width:0.8;" x="64.05483" xlink:href="#m560d0c045b" y="170.84375"/>
      </g>
     </g>
     <g id="text_1">
      <!-- 0 -->
      <g transform="translate(60.87358 185.442188)scale(0.1 -0.1)">
       <defs>
        <path d="M 2034 219 
Q 2513 219 2750 744 
Q 2988 1269 2988 2328 
Q 2988 3391 2750 3916 
Q 2513 4441 2034 4441 
Q 1556 4441 1318 3916 
Q 1081 3391 1081 2328 
Q 1081 1269 1318 744 
Q 1556 219 2034 219 
z
M 2034 -91 
Q 1275 -91 848 546 
Q 422 1184 422 2328 
Q 422 3475 848 4112 
Q 1275 4750 2034 4750 
Q 2797 4750 3222 4112 
Q 3647 3475 3647 2328 
Q 3647 1184 3222 546 
Q 2797 -91 2034 -91 
z
" id="DejaVuSerif-30" transform="scale(0.015625)"/>
       </defs>
       <use xlink:href="#DejaVuSerif-30"/>
      </g>
     </g>
    </g>
    <g id="xtick_2">
     <g id="line2d_2">
      <g>
       <use style="stroke:#000000;stroke-width:0.8;" x="130.749148" xlink:href="#m560d0c045b" y="170.84375"/>
      </g>
     </g>
     <g id="text_2">
      <!-- 20 -->
      <g transform="translate(124.386648 185.442188)scale(0.1 -0.1)">
       <defs>
        <path d="M 819 3553 
L 469 3553 
L 469 4384 
Q 803 4563 1142 4656 
Q 1481 4750 1806 4750 
Q 2534 4750 2956 4397 
Q 3378 4044 3378 3438 
Q 3378 2753 2422 1800 
Q 2347 1728 2309 1691 
L 1131 513 
L 3078 513 
L 3078 1088 
L 3444 1088 
L 3444 0 
L 434 0 
L 434 341 
L 1850 1753 
Q 2319 2222 2519 2614 
Q 2719 3006 2719 3438 
Q 2719 3909 2473 4175 
Q 2228 4441 1797 4441 
Q 1350 4441 1106 4219 
Q 863 3997 819 3553 
z
" id="DejaVuSerif-32" transform="scale(0.015625)"/>
       </defs>
       <use xlink:href="#DejaVuSerif-32"/>
       <use x="63.623047" xlink:href="#DejaVuSerif-30"/>
      </g>
     </g>
    </g>
    <g id="xtick_3">
     <g id="line2d_3">
      <g>
       <use style="stroke:#000000;stroke-width:0.8;" x="197.443466" xlink:href="#m560d0c045b" y="170.84375"/>
      </g>
     </g>
     <g id="text_3">
      <!-- 40 -->
      <g transform="translate(191.080966 185.442188)scale(0.1 -0.1)">
       <defs>
        <path d="M 2234 1581 
L 2234 4063 
L 641 1581 
L 2234 1581 
z
M 3609 0 
L 1484 0 
L 1484 331 
L 2234 331 
L 2234 1247 
L 197 1247 
L 197 1588 
L 2241 4750 
L 2859 4750 
L 2859 1581 
L 3750 1581 
L 3750 1247 
L 2859 1247 
L 2859 331 
L 3609 331 
L 3609 0 
z
" id="DejaVuSerif-34" transform="scale(0.015625)"/>
       </defs>
       <use xlink:href="#DejaVuSerif-34"/>
       <use x="63.623047" xlink:href="#DejaVuSerif-30"/>
      </g>
     </g>
    </g>
    <g id="xtick_4">
     <g id="line2d_4">
      <g>
       <use style="stroke:#000000;stroke-width:0.8;" x="264.137784" xlink:href="#m560d0c045b" y="170.84375"/>
      </g>
     </g>
     <g id="text_4">
      <!-- 60 -->
      <g transform="translate(257.775284 185.442188)scale(0.1 -0.1)">
       <defs>
        <path d="M 2094 219 
Q 2534 219 2771 542 
Q 3009 866 3009 1472 
Q 3009 2078 2771 2401 
Q 2534 2725 2094 2725 
Q 1647 2725 1412 2412 
Q 1178 2100 1178 1509 
Q 1178 888 1415 553 
Q 1653 219 2094 219 
z
M 1075 2569 
Q 1288 2803 1556 2918 
Q 1825 3034 2163 3034 
Q 2859 3034 3264 2615 
Q 3669 2197 3669 1472 
Q 3669 763 3233 336 
Q 2797 -91 2069 -91 
Q 1278 -91 853 498 
Q 428 1088 428 2181 
Q 428 3406 931 4078 
Q 1434 4750 2350 4750 
Q 2597 4750 2869 4703 
Q 3141 4656 3425 4563 
L 3425 3794 
L 3072 3794 
Q 3034 4109 2831 4275 
Q 2628 4441 2284 4441 
Q 1678 4441 1381 3981 
Q 1084 3522 1075 2569 
z
" id="DejaVuSerif-36" transform="scale(0.015625)"/>
       </defs>
       <use xlink:href="#DejaVuSerif-36"/>
       <use x="63.623047" xlink:href="#DejaVuSerif-30"/>
      </g>
     </g>
    </g>
    <g id="xtick_5">
     <g id="line2d_5">
      <g>
       <use style="stroke:#000000;stroke-width:0.8;" x="330.832102" xlink:href="#m560d0c045b" y="170.84375"/>
      </g>
     </g>
     <g id="text_5">
      <!-- 80 -->
      <g transform="translate(324.469602 185.442188)scale(0.1 -0.1)">
       <defs>
        <path d="M 2981 1275 
Q 2981 1775 2732 2051 
Q 2484 2328 2034 2328 
Q 1584 2328 1336 2051 
Q 1088 1775 1088 1275 
Q 1088 772 1336 495 
Q 1584 219 2034 219 
Q 2484 219 2732 495 
Q 2981 772 2981 1275 
z
M 2853 3541 
Q 2853 3966 2637 4203 
Q 2422 4441 2034 4441 
Q 1650 4441 1433 4203 
Q 1216 3966 1216 3541 
Q 1216 3113 1433 2875 
Q 1650 2638 2034 2638 
Q 2422 2638 2637 2875 
Q 2853 3113 2853 3541 
z
M 2516 2484 
Q 3047 2413 3344 2092 
Q 3641 1772 3641 1275 
Q 3641 619 3225 264 
Q 2809 -91 2034 -91 
Q 1263 -91 845 264 
Q 428 619 428 1275 
Q 428 1772 725 2092 
Q 1022 2413 1556 2484 
Q 1084 2569 832 2842 
Q 581 3116 581 3541 
Q 581 4103 968 4426 
Q 1356 4750 2034 4750 
Q 2713 4750 3100 4426 
Q 3488 4103 3488 3541 
Q 3488 3116 3236 2842 
Q 2984 2569 2516 2484 
z
" id="DejaVuSerif-38" transform="scale(0.015625)"/>
       </defs>
       <use xlink:href="#DejaVuSerif-38"/>
       <use x="63.623047" xlink:href="#DejaVuSerif-30"/>
      </g>
     </g>
    </g>
    <g id="xtick_6">
     <g id="line2d_6">
      <g>
       <use style="stroke:#000000;stroke-width:0.8;" x="397.52642" xlink:href="#m560d0c045b" y="170.84375"/>
      </g>
     </g>
     <g id="text_6">
      <!-- 100 -->
      <g transform="translate(387.98267 185.442188)scale(0.1 -0.1)">
       <defs>
        <path d="M 909 0 
L 909 331 
L 1722 331 
L 1722 4213 
L 781 3603 
L 781 4013 
L 1919 4750 
L 2350 4750 
L 2350 331 
L 3163 331 
L 3163 0 
L 909 0 
z
" id="DejaVuSerif-31" transform="scale(0.015625)"/>
       </defs>
       <use xlink:href="#DejaVuSerif-31"/>
       <use x="63.623047" xlink:href="#DejaVuSerif-30"/>
       <use x="127.246094" xlink:href="#DejaVuSerif-30"/>
      </g>
     </g>
    </g>
    <g id="text_7">
     <!-- Frequency / MHz -->
     <g transform="translate(186.769531 198.978125)scale(0.1 -0.1)">
      <defs>
       <path d="M 353 0 
L 353 331 
L 947 331 
L 947 4331 
L 353 4331 
L 353 4666 
L 4172 4666 
L 4172 3628 
L 3788 3628 
L 3788 4281 
L 1581 4281 
L 1581 2719 
L 3175 2719 
L 3175 3303 
L 3559 3303 
L 3559 1753 
L 3175 1753 
L 3175 2338 
L 1581 2338 
L 1581 331 
L 2328 331 
L 2328 0 
L 353 0 
z
" id="DejaVuSerif-46" transform="scale(0.015625)"/>
       <path d="M 3059 3328 
L 3059 2497 
L 2728 2497 
Q 2713 2744 2591 2866 
Q 2469 2988 2234 2988 
Q 1809 2988 1582 2694 
Q 1356 2400 1356 1850 
L 1356 331 
L 2022 331 
L 2022 0 
L 263 0 
L 263 331 
L 781 331 
L 781 2994 
L 231 2994 
L 231 3322 
L 1356 3322 
L 1356 2731 
Q 1525 3078 1790 3245 
Q 2056 3413 2438 3413 
Q 2578 3413 2733 3391 
Q 2888 3369 3059 3328 
z
" id="DejaVuSerif-72" transform="scale(0.015625)"/>
       <path d="M 3469 1600 
L 991 1600 
L 991 1575 
Q 991 903 1244 561 
Q 1497 219 1991 219 
Q 2369 219 2611 417 
Q 2853 616 2950 1006 
L 3413 1006 
Q 3275 459 2904 184 
Q 2534 -91 1931 -91 
Q 1203 -91 761 389 
Q 319 869 319 1663 
Q 319 2450 753 2931 
Q 1188 3413 1894 3413 
Q 2647 3413 3050 2948 
Q 3453 2484 3469 1600 
z
M 2791 1931 
Q 2772 2513 2545 2808 
Q 2319 3103 1894 3103 
Q 1497 3103 1269 2806 
Q 1041 2509 991 1931 
L 2791 1931 
z
" id="DejaVuSerif-65" transform="scale(0.015625)"/>
       <path d="M 3359 2988 
L 3359 -997 
L 3909 -997 
L 3909 -1331 
L 2241 -1331 
L 2241 -997 
L 2784 -997 
L 2784 519 
Q 2616 206 2355 57 
Q 2094 -91 1709 -91 
Q 1097 -91 708 395 
Q 319 881 319 1663 
Q 319 2444 706 2928 
Q 1094 3413 1709 3413 
Q 2094 3413 2355 3264 
Q 2616 3116 2784 2803 
L 2784 3322 
L 3909 3322 
L 3909 2988 
L 3359 2988 
z
M 2784 1825 
Q 2784 2422 2554 2737 
Q 2325 3053 1888 3053 
Q 1444 3053 1217 2703 
Q 991 2353 991 1663 
Q 991 975 1217 622 
Q 1444 269 1888 269 
Q 2325 269 2554 583 
Q 2784 897 2784 1497 
L 2784 1825 
z
" id="DejaVuSerif-71" transform="scale(0.015625)"/>
       <path d="M 2266 3322 
L 3341 3322 
L 3341 331 
L 3884 331 
L 3884 0 
L 2766 0 
L 2766 588 
Q 2606 256 2353 82 
Q 2100 -91 1766 -91 
Q 1213 -91 952 223 
Q 691 538 691 1209 
L 691 2988 
L 172 2988 
L 172 3322 
L 1269 3322 
L 1269 1388 
Q 1269 781 1417 556 
Q 1566 331 1947 331 
Q 2347 331 2556 625 
Q 2766 919 2766 1478 
L 2766 2988 
L 2266 2988 
L 2266 3322 
z
" id="DejaVuSerif-75" transform="scale(0.015625)"/>
       <path d="M 263 0 
L 263 331 
L 781 331 
L 781 2988 
L 231 2988 
L 231 3322 
L 1356 3322 
L 1356 2731 
Q 1516 3069 1770 3241 
Q 2025 3413 2363 3413 
Q 2913 3413 3172 3097 
Q 3431 2781 3431 2113 
L 3431 331 
L 3944 331 
L 3944 0 
L 2356 0 
L 2356 331 
L 2853 331 
L 2853 1931 
Q 2853 2541 2703 2767 
Q 2553 2994 2175 2994 
Q 1775 2994 1565 2701 
Q 1356 2409 1356 1850 
L 1356 331 
L 1856 331 
L 1856 0 
L 263 0 
z
" id="DejaVuSerif-6e" transform="scale(0.015625)"/>
       <path d="M 3291 997 
Q 3169 466 2822 187 
Q 2475 -91 1925 -91 
Q 1200 -91 759 389 
Q 319 869 319 1663 
Q 319 2459 759 2936 
Q 1200 3413 1925 3413 
Q 2241 3413 2553 3339 
Q 2866 3266 3181 3116 
L 3181 2266 
L 2847 2266 
Q 2781 2703 2561 2903 
Q 2341 3103 1931 3103 
Q 1466 3103 1228 2742 
Q 991 2381 991 1663 
Q 991 944 1227 581 
Q 1463 219 1931 219 
Q 2303 219 2525 412 
Q 2747 606 2828 997 
L 3291 997 
z
" id="DejaVuSerif-63" transform="scale(0.015625)"/>
       <path d="M 1381 -609 
L 1600 -56 
L 359 2988 
L -19 2988 
L -19 3322 
L 1509 3322 
L 1509 2988 
L 978 2988 
L 1913 703 
L 2847 2988 
L 2350 2988 
L 2350 3322 
L 3597 3322 
L 3597 2988 
L 3225 2988 
L 1703 -750 
Q 1547 -1138 1356 -1280 
Q 1166 -1422 819 -1422 
Q 672 -1422 517 -1397 
Q 363 -1372 206 -1325 
L 206 -691 
L 500 -691 
Q 519 -903 608 -995 
Q 697 -1088 884 -1088 
Q 1056 -1088 1161 -992 
Q 1266 -897 1381 -609 
z
" id="DejaVuSerif-79" transform="scale(0.015625)"/>
       <path id="DejaVuSerif-20" transform="scale(0.015625)"/>
       <path d="M 1656 4666 
L 2156 4666 
L 500 -594 
L 0 -594 
L 1656 4666 
z
" id="DejaVuSerif-2f" transform="scale(0.015625)"/>
       <path d="M 353 0 
L 353 331 
L 947 331 
L 947 4331 
L 319 4331 
L 319 4666 
L 1678 4666 
L 3316 1344 
L 4953 4666 
L 6228 4666 
L 6228 4331 
L 5606 4331 
L 5606 331 
L 6203 331 
L 6203 0 
L 4378 0 
L 4378 331 
L 4972 331 
L 4972 3938 
L 3372 684 
L 2931 684 
L 1331 3938 
L 1331 331 
L 1925 331 
L 1925 0 
L 353 0 
z
" id="DejaVuSerif-4d" transform="scale(0.015625)"/>
       <path d="M 353 0 
L 353 331 
L 947 331 
L 947 4331 
L 353 4331 
L 353 4666 
L 2175 4666 
L 2175 4331 
L 1581 4331 
L 1581 2719 
L 4000 2719 
L 4000 4331 
L 3406 4331 
L 3406 4666 
L 5228 4666 
L 5228 4331 
L 4634 4331 
L 4634 331 
L 5228 331 
L 5228 0 
L 3406 0 
L 3406 331 
L 4000 331 
L 4000 2338 
L 1581 2338 
L 1581 331 
L 2175 331 
L 2175 0 
L 353 0 
z
" id="DejaVuSerif-48" transform="scale(0.015625)"/>
       <path d="M 256 0 
L 256 269 
L 2338 2988 
L 691 2988 
L 691 2413 
L 359 2413 
L 359 3322 
L 3078 3322 
L 3078 3053 
L 997 331 
L 2803 331 
L 2803 934 
L 3138 934 
L 3138 0 
L 256 0 
z
" id="DejaVuSerif-7a" transform="scale(0.015625)"/>
      </defs>
      <use xlink:href="#DejaVuSerif-46"/>
      <use x="69.384766" xlink:href="#DejaVuSerif-72"/>
      <use x="117.1875" xlink:href="#DejaVuSerif-65"/>
      <use x="176.367188" xlink:href="#DejaVuSerif-71"/>
      <use x="240.380859" xlink:href="#DejaVuSerif-75"/>
      <use x="304.785156" xlink:href="#DejaVuSerif-65"/>
      <use x="363.964844" xlink:href="#DejaVuSerif-6e"/>
      <use x="428.369141" xlink:href="#DejaVuSerif-63"/>
      <use x="484.375" xlink:href="#DejaVuSerif-79"/>
      <use x="540.869141" xlink:href="#DejaVuSerif-20"/>
      <use x="572.65625" xlink:href="#DejaVuSerif-2f"/>
      <use x="606.347656" xlink:href="#DejaVuSerif-20"/>
      <use x="638.134766" xlink:href="#DejaVuSerif-4d"/>
      <use x="740.527344" xlink:href="#DejaVuSerif-48"/>
      <use x="827.734375" xlink:href="#DejaVuSerif-7a"/>
     </g>
    </g>
   </g>
   <g id="matplotlib.axis_2">
    <g id="ytick_1">
     <g id="line2d_7">
      <defs>
       <path d="M 0 0 
L -3.5 0 
" id="m1032c33855" style="stroke:#000000;stroke-width:0.8;"/>
      </defs>
      <g>
       <use style="stroke:#000000;stroke-width:0.8;" x="47.38125" xlink:href="#m1032c33855" y="164.011266"/>
      </g>
     </g>
     <g id="text_8">
      <!-- 0.0 -->
      <g transform="translate(24.478125 167.810485)scale(0.1 -0.1)">
       <defs>
        <path d="M 603 325 
Q 603 500 722 622 
Q 841 744 1019 744 
Q 1191 744 1312 622 
Q 1434 500 1434 325 
Q 1434 153 1312 31 
Q 1191 -91 1019 -91 
Q 841 -91 722 29 
Q 603 150 603 325 
z
" id="DejaVuSerif-2e" transform="scale(0.015625)"/>
       </defs>
       <use xlink:href="#DejaVuSerif-30"/>
       <use x="63.623047" xlink:href="#DejaVuSerif-2e"/>
       <use x="95.410156" xlink:href="#DejaVuSerif-30"/>
      </g>
     </g>
    </g>
    <g id="ytick_2">
     <g id="line2d_8">
      <g>
       <use style="stroke:#000000;stroke-width:0.8;" x="47.38125" xlink:href="#m1032c33855" y="127.158602"/>
      </g>
     </g>
     <g id="text_9">
      <!-- 0.5 -->
      <g transform="translate(24.478125 130.957821)scale(0.1 -0.1)">
       <defs>
        <path d="M 3219 4666 
L 3219 4153 
L 1081 4153 
L 1081 2816 
Q 1244 2928 1461 2984 
Q 1678 3041 1947 3041 
Q 2703 3041 3140 2622 
Q 3578 2203 3578 1478 
Q 3578 738 3136 323 
Q 2694 -91 1894 -91 
Q 1572 -91 1234 -12 
Q 897 66 544 225 
L 544 1131 
L 897 1131 
Q 925 688 1179 453 
Q 1434 219 1894 219 
Q 2388 219 2653 544 
Q 2919 869 2919 1478 
Q 2919 2084 2655 2407 
Q 2391 2731 1894 2731 
Q 1613 2731 1398 2631 
Q 1184 2531 1019 2322 
L 750 2322 
L 750 4666 
L 3219 4666 
z
" id="DejaVuSerif-35" transform="scale(0.015625)"/>
       </defs>
       <use xlink:href="#DejaVuSerif-30"/>
       <use x="63.623047" xlink:href="#DejaVuSerif-2e"/>
       <use x="95.410156" xlink:href="#DejaVuSerif-35"/>
      </g>
     </g>
    </g>
    <g id="ytick_3">
     <g id="line2d_9">
      <g>
       <use style="stroke:#000000;stroke-width:0.8;" x="47.38125" xlink:href="#m1032c33855" y="90.305938"/>
      </g>
     </g>
     <g id="text_10">
      <!-- 1.0 -->
      <g transform="translate(24.478125 94.105156)scale(0.1 -0.1)">
       <use xlink:href="#DejaVuSerif-31"/>
       <use x="63.623047" xlink:href="#DejaVuSerif-2e"/>
       <use x="95.410156" xlink:href="#DejaVuSerif-30"/>
      </g>
     </g>
    </g>
    <g id="ytick_4">
     <g id="line2d_10">
      <g>
       <use style="stroke:#000000;stroke-width:0.8;" x="47.38125" xlink:href="#m1032c33855" y="53.453274"/>
      </g>
     </g>
     <g id="text_11">
      <!-- 1.5 -->
      <g transform="translate(24.478125 57.252492)scale(0.1 -0.1)">
       <use xlink:href="#DejaVuSerif-31"/>
       <use x="63.623047" xlink:href="#DejaVuSerif-2e"/>
       <use x="95.410156" xlink:href="#DejaVuSerif-35"/>
      </g>
     </g>
    </g>
    <g id="ytick_5">
     <g id="line2d_11">
      <g>
       <use style="stroke:#000000;stroke-width:0.8;" x="47.38125" xlink:href="#m1032c33855" y="16.600609"/>
      </g>
     </g>
     <g id="text_12">
      <!-- 2.0 -->
      <g transform="translate(24.478125 20.399828)scale(0.1 -0.1)">
       <use xlink:href="#DejaVuSerif-32"/>
       <use x="63.623047" xlink:href="#DejaVuSerif-2e"/>
       <use x="95.410156" xlink:href="#DejaVuSerif-30"/>
      </g>
     </g>
    </g>
    <g id="text_13">
     <!-- Power / W -->
     <g transform="translate(18.398438 116.626563)rotate(-90)scale(0.1 -0.1)">
      <defs>
       <path d="M 1581 2375 
L 2406 2375 
Q 2872 2375 3115 2626 
Q 3359 2878 3359 3353 
Q 3359 3831 3115 4081 
Q 2872 4331 2406 4331 
L 1581 4331 
L 1581 2375 
z
M 353 0 
L 353 331 
L 947 331 
L 947 4331 
L 353 4331 
L 353 4666 
L 2559 4666 
Q 3259 4666 3668 4311 
Q 4078 3956 4078 3353 
Q 4078 2753 3668 2397 
Q 3259 2041 2559 2041 
L 1581 2041 
L 1581 331 
L 2303 331 
L 2303 0 
L 353 0 
z
" id="DejaVuSerif-50" transform="scale(0.015625)"/>
       <path d="M 1925 219 
Q 2388 219 2623 584 
Q 2859 950 2859 1663 
Q 2859 2375 2623 2739 
Q 2388 3103 1925 3103 
Q 1463 3103 1227 2739 
Q 991 2375 991 1663 
Q 991 950 1228 584 
Q 1466 219 1925 219 
z
M 1925 -91 
Q 1200 -91 759 389 
Q 319 869 319 1663 
Q 319 2456 758 2934 
Q 1197 3413 1925 3413 
Q 2653 3413 3092 2934 
Q 3531 2456 3531 1663 
Q 3531 869 3092 389 
Q 2653 -91 1925 -91 
z
" id="DejaVuSerif-6f" transform="scale(0.015625)"/>
       <path d="M 3072 3322 
L 3922 728 
L 4672 2988 
L 4191 2988 
L 4191 3322 
L 5394 3322 
L 5394 2988 
L 5025 2988 
L 4038 0 
L 3559 0 
L 2741 2484 
L 1919 0 
L 1459 0 
L 475 2988 
L 103 2988 
L 103 3322 
L 1606 3322 
L 1606 2988 
L 1069 2988 
L 1813 728 
L 2669 3322 
L 3072 3322 
z
" id="DejaVuSerif-77" transform="scale(0.015625)"/>
       <path d="M 4878 0 
L 4366 0 
L 3297 3794 
L 2228 0 
L 1716 0 
L 494 4331 
L 31 4331 
L 31 4666 
L 1734 4666 
L 1734 4331 
L 1153 4331 
L 2125 884 
L 3188 4666 
L 3694 4666 
L 4775 844 
L 5753 4331 
L 5216 4331 
L 5216 4666 
L 6559 4666 
L 6559 4331 
L 6100 4331 
L 4878 0 
z
" id="DejaVuSerif-57" transform="scale(0.015625)"/>
      </defs>
      <use xlink:href="#DejaVuSerif-50"/>
      <use x="63.285156" xlink:href="#DejaVuSerif-6f"/>
      <use x="123.490234" xlink:href="#DejaVuSerif-77"/>
      <use x="209.085938" xlink:href="#DejaVuSerif-65"/>
      <use x="268.265625" xlink:href="#DejaVuSerif-72"/>
      <use x="316.068359" xlink:href="#DejaVuSerif-20"/>
      <use x="347.855469" xlink:href="#DejaVuSerif-2f"/>
      <use x="381.546875" xlink:href="#DejaVuSerif-20"/>
      <use x="413.333984" xlink:href="#DejaVuSerif-57"/>
     </g>
    </g>
   </g>
   <g id="line2d_12">
    <path clip-path="url(#pa7cd82a7f7)" d="M 64.05483 119.788069 
L 67.423229 119.788069 
L 70.791629 119.788069 
L 74.160029 119.788069 
L 77.528429 119.788069 
L 80.896829 119.788069 
L 84.265229 119.788069 
L 87.633629 119.788069 
L 91.002029 119.788069 
L 94.370429 119.788069 
L 97.738829 119.788069 
L 101.107229 119.788069 
L 104.475628 119.788069 
L 107.844028 119.788069 
L 111.212428 119.788069 
L 114.580828 119.788069 
L 117.949228 119.788069 
L 121.317628 119.788069 
L 124.686028 119.788069 
L 128.054428 119.788069 
L 131.422828 119.788069 
L 134.791228 119.788069 
L 138.159628 119.788069 
L 141.528027 119.788069 
L 144.896427 119.788069 
L 148.264827 119.788069 
L 151.633227 119.788069 
L 155.001627 119.788069 
L 158.370027 119.788069 
L 161.738427 119.788069 
L 165.106827 119.788069 
L 168.475227 119.788069 
L 171.843627 119.788069 
L 175.212027 119.788069 
L 178.580426 119.788069 
L 181.948826 119.788069 
L 185.317226 119.788069 
L 188.685626 119.788069 
L 192.054026 119.788069 
L 195.422426 119.788069 
L 198.790826 119.788069 
L 202.159226 119.788069 
L 205.527626 119.788069 
L 208.896026 119.788069 
L 212.264426 119.788069 
L 215.632825 119.788069 
L 219.001225 119.788069 
L 222.369625 119.788069 
L 225.738025 119.788069 
L 229.106425 119.788069 
L 232.474825 119.788069 
L 235.843225 119.788069 
L 239.211625 119.788069 
L 242.580025 119.788069 
L 245.948425 119.788069 
L 249.316824 119.788069 
L 252.685224 119.788069 
L 256.053624 119.788069 
L 259.422024 119.788069 
L 262.790424 119.788069 
L 266.158824 119.788069 
L 269.527224 119.788069 
L 272.895624 119.788069 
L 276.264024 119.788069 
L 279.632424 119.788069 
L 283.000824 119.788069 
L 286.369223 119.788069 
L 289.737623 119.788069 
L 293.106023 119.788069 
L 296.474423 119.788069 
L 299.842823 119.788069 
L 303.211223 119.788069 
L 306.579623 119.788069 
L 309.948023 119.788069 
L 313.316423 119.788069 
L 316.684823 119.788069 
L 320.053223 119.788069 
L 323.421622 119.788069 
L 326.790022 119.788069 
L 330.158422 119.788069 
L 333.526822 119.788069 
L 336.895222 119.788069 
L 340.263622 119.788069 
L 343.632022 119.788069 
L 347.000422 119.788069 
L 350.368822 119.788069 
L 353.737222 119.788069 
L 357.105622 119.788069 
L 360.474021 119.788069 
L 363.842421 119.788069 
L 367.210821 119.788069 
L 370.579221 119.788069 
L 373.947621 119.788069 
L 377.316021 119.788069 
L 380.684421 119.788069 
L 384.052821 119.788069 
L 387.421221 119.788069 
L 390.789621 119.788069 
L 394.158021 119.788069 
L 397.52642 119.788069 
" style="fill:none;stroke:#2cbdfe;stroke-linecap:square;stroke-width:1.5;"/>
   </g>
   <g id="line2d_13">
    <path clip-path="url(#pa7cd82a7f7)" d="M 64.05483 163.569034 
L 67.423229 163.569034 
L 70.791629 163.569034 
L 74.160029 163.569034 
L 77.528429 163.569034 
L 80.896829 163.569034 
L 84.265229 163.569034 
L 87.633629 163.569034 
L 91.002029 163.569034 
L 94.370429 163.569034 
L 97.738829 163.569034 
L 101.107229 163.569034 
L 104.475628 163.569034 
L 107.844028 163.569034 
L 111.212428 163.569034 
L 114.580828 163.569034 
L 117.949228 163.569034 
L 121.317628 163.569034 
L 124.686028 163.569034 
L 128.054428 163.569034 
L 131.422828 163.569034 
L 134.791228 163.569034 
L 138.159628 163.569034 
L 141.528027 163.569034 
L 144.896427 163.569034 
L 148.264827 163.569034 
L 151.633227 163.569034 
L 155.001627 163.569034 
L 158.370027 163.569034 
L 161.738427 163.569034 
L 165.106827 163.569034 
L 168.475227 163.569034 
L 171.843627 163.569034 
L 175.212027 163.569034 
L 178.580426 163.569034 
L 181.948826 163.569034 
L 185.317226 163.569034 
L 188.685626 163.569034 
L 192.054026 163.569034 
L 195.422426 163.569034 
L 198.790826 163.569034 
L 202.159226 163.569034 
L 205.527626 163.569034 
L 208.896026 163.569034 
L 212.264426 163.569034 
L 215.632825 163.569034 
L 219.001225 163.569034 
L 222.369625 163.569034 
L 225.738025 163.569034 
L 229.106425 163.569034 
L 232.474825 163.569034 
L 235.843225 163.569034 
L 239.211625 163.569034 
L 242.580025 163.569034 
L 245.948425 163.569034 
L 249.316824 163.569034 
L 252.685224 163.569034 
L 256.053624 163.569034 
L 259.422024 163.569034 
L 262.790424 163.569034 
L 266.158824 163.569034 
L 269.527224 163.569034 
L 272.895624 163.569034 
L 276.264024 163.569034 
L 279.632424 163.569034 
L 283.000824 163.569034 
L 286.369223 163.569034 
L 289.737623 163.569034 
L 293.106023 163.569034 
L 296.474423 163.569034 
L 299.842823 163.569034 
L 303.211223 163.569034 
L 306.579623 163.569034 
L 309.948023 163.569034 
L 313.316423 163.569034 
L 316.684823 163.569034 
L 320.053223 163.569034 
L 323.421622 163.569034 
L 326.790022 163.569034 
L 330.158422 163.569034 
L 333.526822 163.569034 
L 336.895222 163.569034 
L 340.263622 163.569034 
L 343.632022 163.569034 
L 347.000422 163.569034 
L 350.368822 163.569034 
L 353.737222 163.569034 
L 357.105622 163.569034 
L 360.474021 163.569034 
L 363.842421 163.569034 
L 367.210821 163.569034 
L 370.579221 163.569034 
L 373.947621 163.569034 
L 377.316021 163.569034 
L 380.684421 163.569034 
L 384.052821 163.569034 
L 387.421221 163.569034 
L 390.789621 163.569034 
L 394.158021 163.569034 
L 397.52642 163.569034 
" style="fill:none;stroke:#47dbcd;stroke-linecap:square;stroke-width:1.5;"/>
   </g>
   <g id="line2d_14">
    <path clip-path="url(#pa7cd82a7f7)" d="M 64.05483 150.744307 
L 67.423229 150.744307 
L 70.791629 150.744307 
L 74.160029 150.744307 
L 77.528429 150.744307 
L 80.896829 150.744307 
L 84.265229 150.744307 
L 87.633629 150.744307 
L 91.002029 150.744307 
L 94.370429 150.744307 
L 97.738829 150.744307 
L 101.107229 150.744307 
L 104.475628 150.744307 
L 107.844028 150.744307 
L 111.212428 150.744307 
L 114.580828 150.744307 
L 117.949228 150.744307 
L 121.317628 150.744307 
L 124.686028 150.744307 
L 128.054428 150.744307 
L 131.422828 150.744307 
L 134.791228 150.744307 
L 138.159628 150.744307 
L 141.528027 150.744307 
L 144.896427 150.744307 
L 148.264827 150.744307 
L 151.633227 150.744307 
L 155.001627 150.744307 
L 158.370027 150.744307 
L 161.738427 150.744307 
L 165.106827 150.744307 
L 168.475227 150.744307 
L 171.843627 150.744307 
L 175.212027 150.744307 
L 178.580426 150.744307 
L 181.948826 150.744307 
L 185.317226 150.744307 
L 188.685626 150.744307 
L 192.054026 150.744307 
L 195.422426 150.744307 
L 198.790826 150.744307 
L 202.159226 150.744307 
L 205.527626 150.744307 
L 208.896026 150.744307 
L 212.264426 150.744307 
L 215.632825 150.744307 
L 219.001225 150.744307 
L 222.369625 150.744307 
L 225.738025 150.744307 
L 229.106425 150.744307 
L 232.474825 150.744307 
L 235.843225 150.744307 
L 239.211625 150.744307 
L 242.580025 150.744307 
L 245.948425 150.744307 
L 249.316824 150.744307 
L 252.685224 150.744307 
L 256.053624 150.744307 
L 259.422024 150.744307 
L 262.790424 150.744307 
L 266.158824 150.744307 
L 269.527224 150.744307 
L 272.895624 150.744307 
L 276.264024 150.744307 
L 279.632424 150.744307 
L 283.000824 150.744307 
L 286.369223 150.744307 
L 289.737623 150.744307 
L 293.106023 150.744307 
L 296.474423 150.744307 
L 299.842823 150.744307 
L 303.211223 150.744307 
L 306.579623 150.744307 
L 309.948023 150.744307 
L 313.316423 150.744307 
L 316.684823 150.744307 
L 320.053223 150.744307 
L 323.421622 150.744307 
L 326.790022 150.744307 
L 330.158422 150.744307 
L 333.526822 150.744307 
L 336.895222 150.744307 
L 340.263622 150.744307 
L 343.632022 150.744307 
L 347.000422 150.744307 
L 350.368822 150.744307 
L 353.737222 150.744307 
L 357.105622 150.744307 
L 360.474021 150.744307 
L 363.842421 150.744307 
L 367.210821 150.744307 
L 370.579221 150.744307 
L 373.947621 150.744307 
L 377.316021 150.744307 
L 380.684421 150.744307 
L 384.052821 150.744307 
L 387.421221 150.744307 
L 390.789621 150.744307 
L 394.158021 150.744307 
L 397.52642 150.744307 
" style="fill:none;stroke:#f5b14c;stroke-linecap:square;stroke-width:1.5;"/>
   </g>
   <g id="line2d_15">
    <path clip-path="url(#pa7cd82a7f7)" d="M 64.05483 156.493323 
L 67.423229 156.493323 
L 70.791629 156.493323 
L 74.160029 156.493323 
L 77.528429 156.493323 
L 80.896829 156.493323 
L 84.265229 156.493323 
L 87.633629 156.493323 
L 91.002029 156.493323 
L 94.370429 156.493323 
L 97.738829 156.493323 
L 101.107229 156.493323 
L 104.475628 156.493323 
L 107.844028 156.493323 
L 111.212428 156.493323 
L 114.580828 156.493323 
L 117.949228 156.493323 
L 121.317628 156.493323 
L 124.686028 156.493323 
L 128.054428 156.493323 
L 131.422828 156.493323 
L 134.791228 156.493323 
L 138.159628 156.493323 
L 141.528027 156.493323 
L 144.896427 156.493323 
L 148.264827 156.493323 
L 151.633227 156.493323 
L 155.001627 156.493323 
L 158.370027 156.493323 
L 161.738427 156.493323 
L 165.106827 156.493323 
L 168.475227 156.493323 
L 171.843627 156.493323 
L 175.212027 156.493323 
L 178.580426 156.493323 
L 181.948826 156.493323 
L 185.317226 156.493323 
L 188.685626 156.493323 
L 192.054026 156.493323 
L 195.422426 156.493323 
L 198.790826 156.493323 
L 202.159226 156.493323 
L 205.527626 156.493323 
L 208.896026 156.493323 
L 212.264426 156.493323 
L 215.632825 156.493323 
L 219.001225 156.493323 
L 222.369625 156.493323 
L 225.738025 156.493323 
L 229.106425 156.493323 
L 232.474825 156.493323 
L 235.843225 156.493323 
L 239.211625 156.493323 
L 242.580025 156.493323 
L 245.948425 156.493323 
L 249.316824 156.493323 
L 252.685224 156.493323 
L 256.053624 156.493323 
L 259.422024 156.493323 
L 262.790424 156.493323 
L 266.158824 156.493323 
L 269.527224 156.493323 
L 272.895624 156.493323 
L 276.264024 156.493323 
L 279.632424 156.493323 
L 283.000824 156.493323 
L 286.369223 156.493323 
L 289.737623 156.493323 
L 293.106023 156.493323 
L 296.474423 156.493323 
L 299.842823 156.493323 
L 303.211223 156.493323 
L 306.579623 156.493323 
L 309.948023 156.493323 
L 313.316423 156.493323 
L 316.684823 156.493323 
L 320.053223 156.493323 
L 323.421622 156.493323 
L 326.790022 156.493323 
L 330.158422 156.493323 
L 333.526822 156.493323 
L 336.895222 156.493323 
L 340.263622 156.493323 
L 343.632022 156.493323 
L 347.000422 156.493323 
L 350.368822 156.493323 
L 353.737222 156.493323 
L 357.105622 156.493323 
L 360.474021 156.493323 
L 363.842421 156.493323 
L 367.210821 156.493323 
L 370.579221 156.493323 
L 373.947621 156.493323 
L 377.316021 156.493323 
L 380.684421 156.493323 
L 384.052821 156.493323 
L 387.421221 156.493323 
L 390.789621 156.493323 
L 394.158021 156.493323 
L 397.52642 156.493323 
" style="fill:none;stroke:#f3a0f2;stroke-linecap:square;stroke-width:1.5;"/>
   </g>
   <g id="line2d_16">
    <path clip-path="url(#pa7cd82a7f7)" d="M 64.05483 156.493323 
L 67.423229 156.493323 
L 70.791629 156.493323 
L 74.160029 156.493323 
L 77.528429 156.493323 
L 80.896829 156.493323 
L 84.265229 156.493323 
L 87.633629 156.493323 
L 91.002029 156.493323 
L 94.370429 156.493323 
L 97.738829 156.493323 
L 101.107229 156.493323 
L 104.475628 156.493323 
L 107.844028 156.493323 
L 111.212428 156.493323 
L 114.580828 156.493323 
L 117.949228 156.493323 
L 121.317628 156.493323 
L 124.686028 156.493323 
L 128.054428 156.493323 
L 131.422828 156.493323 
L 134.791228 156.493323 
L 138.159628 156.493323 
L 141.528027 156.493323 
L 144.896427 156.493323 
L 148.264827 156.493323 
L 151.633227 156.493323 
L 155.001627 156.493323 
L 158.370027 156.493323 
L 161.738427 156.493323 
L 165.106827 156.493323 
L 168.475227 156.493323 
L 171.843627 156.493323 
L 175.212027 156.493323 
L 178.580426 156.493323 
L 181.948826 156.493323 
L 185.317226 156.493323 
L 188.685626 156.493323 
L 192.054026 156.493323 
L 195.422426 156.493323 
L 198.790826 156.493323 
L 202.159226 156.493323 
L 205.527626 156.493323 
L 208.896026 156.493323 
L 212.264426 156.493323 
L 215.632825 156.493323 
L 219.001225 156.493323 
L 222.369625 156.493323 
L 225.738025 156.493323 
L 229.106425 156.493323 
L 232.474825 156.493323 
L 235.843225 156.493323 
L 239.211625 156.493323 
L 242.580025 156.493323 
L 245.948425 156.493323 
L 249.316824 156.493323 
L 252.685224 156.493323 
L 256.053624 156.493323 
L 259.422024 156.493323 
L 262.790424 156.493323 
L 266.158824 156.493323 
L 269.527224 156.493323 
L 272.895624 156.493323 
L 276.264024 156.493323 
L 279.632424 156.493323 
L 283.000824 156.493323 
L 286.369223 156.493323 
L 289.737623 156.493323 
L 293.106023 156.493323 
L 296.474423 156.493323 
L 299.842823 156.493323 
L 303.211223 156.493323 
L 306.579623 156.493323 
L 309.948023 156.493323 
L 313.316423 156.493323 
L 316.684823 156.493323 
L 320.053223 156.493323 
L 323.421622 156.493323 
L 326.790022 156.493323 
L 330.158422 156.493323 
L 333.526822 156.493323 
L 336.895222 156.493323 
L 340.263622 156.493323 
L 343.632022 156.493323 
L 347.000422 156.493323 
L 350.368822 156.493323 
L 353.737222 156.493323 
L 357.105622 156.493323 
L 360.474021 156.493323 
L 363.842421 156.493323 
L 367.210821 156.493323 
L 370.579221 156.493323 
L 373.947621 156.493323 
L 377.316021 156.493323 
L 380.684421 156.493323 
L 384.052821 156.493323 
L 387.421221 156.493323 
L 390.789621 156.493323 
L 394.158021 156.493323 
L 397.52642 156.493323 
" style="fill:none;stroke:#9d2ec5;stroke-linecap:square;stroke-width:1.5;"/>
   </g>
   <g id="line2d_17">
    <path clip-path="url(#pa7cd82a7f7)" d="M 64.05483 119.788069 
L 67.423229 119.788069 
L 70.791629 119.788069 
L 74.160029 119.788069 
L 77.528429 119.788069 
L 80.896829 119.788069 
L 84.265229 119.788069 
L 87.633629 119.788069 
L 91.002029 119.788069 
L 94.370429 119.788069 
L 97.738829 119.788069 
L 101.107229 119.788069 
L 104.475628 119.788069 
L 107.844028 119.788069 
L 111.212428 119.788069 
L 114.580828 119.788069 
L 117.949228 119.788069 
L 121.317628 119.788069 
L 124.686028 119.788069 
L 128.054428 119.788069 
L 131.422828 119.788069 
L 134.791228 119.788069 
L 138.159628 119.788069 
L 141.528027 119.788069 
L 144.896427 119.788069 
L 148.264827 119.788069 
L 151.633227 119.788069 
L 155.001627 119.788069 
L 158.370027 119.788069 
L 161.738427 119.788069 
L 165.106827 119.788069 
L 168.475227 119.788069 
L 171.843627 119.788069 
L 175.212027 119.788069 
L 178.580426 119.788069 
L 181.948826 119.788069 
L 185.317226 119.788069 
L 188.685626 119.788069 
L 192.054026 119.788069 
L 195.422426 119.788069 
L 198.790826 119.788069 
L 202.159226 119.788069 
L 205.527626 119.788069 
L 208.896026 119.788069 
L 212.264426 119.788069 
L 215.632825 119.788069 
L 219.001225 119.788069 
L 222.369625 119.788069 
L 225.738025 119.788069 
L 229.106425 119.788069 
L 232.474825 119.788069 
L 235.843225 119.788069 
L 239.211625 119.788069 
L 242.580025 119.788069 
L 245.948425 119.788069 
L 249.316824 119.788069 
L 252.685224 119.788069 
L 256.053624 119.788069 
L 259.422024 119.788069 
L 262.790424 119.788069 
L 266.158824 119.788069 
L 269.527224 119.788069 
L 272.895624 119.788069 
L 276.264024 119.788069 
L 279.632424 119.788069 
L 283.000824 119.788069 
L 286.369223 119.788069 
L 289.737623 119.788069 
L 293.106023 119.788069 
L 296.474423 119.788069 
L 299.842823 119.788069 
L 303.211223 119.788069 
L 306.579623 119.788069 
L 309.948023 119.788069 
L 313.316423 119.788069 
L 316.684823 119.788069 
L 320.053223 119.788069 
L 323.421622 119.788069 
L 326.790022 119.788069 
L 330.158422 119.788069 
L 333.526822 119.788069 
L 336.895222 119.788069 
L 340.263622 119.788069 
L 343.632022 119.788069 
L 347.000422 119.788069 
L 350.368822 119.788069 
L 353.737222 119.788069 
L 357.105622 119.788069 
L 360.474021 119.788069 
L 363.842421 119.788069 
L 367.210821 119.788069 
L 370.579221 119.788069 
L 373.947621 119.788069 
L 377.316021 119.788069 
L 380.684421 119.788069 
L 384.052821 119.788069 
L 387.421221 119.788069 
L 390.789621 119.788069 
L 394.158021 119.788069 
L 397.52642 119.788069 
" style="fill:none;stroke:#661d98;stroke-linecap:square;stroke-width:1.5;"/>
   </g>
   <g id="line2d_18">
    <path clip-path="url(#pa7cd82a7f7)" d="M 64.05483 18.074716 
L 67.423229 18.074716 
L 70.791629 18.074716 
L 74.160029 18.074716 
L 77.528429 18.074716 
L 80.896829 18.074716 
L 84.265229 18.074716 
L 87.633629 18.074716 
L 91.002029 18.074716 
L 94.370429 18.074716 
L 97.738829 18.074716 
L 101.107229 18.074716 
L 104.475628 18.074716 
L 107.844028 18.074716 
L 111.212428 18.074716 
L 114.580828 18.074716 
L 117.949228 18.074716 
L 121.317628 18.074716 
L 124.686028 18.074716 
L 128.054428 18.074716 
L 131.422828 18.074716 
L 134.791228 18.074716 
L 138.159628 18.074716 
L 141.528027 18.074716 
L 144.896427 18.074716 
L 148.264827 18.074716 
L 151.633227 18.074716 
L 155.001627 18.074716 
L 158.370027 18.074716 
L 161.738427 18.074716 
L 165.106827 18.074716 
L 168.475227 18.074716 
L 171.843627 18.074716 
L 175.212027 18.074716 
L 178.580426 18.074716 
L 181.948826 18.074716 
L 185.317226 18.074716 
L 188.685626 18.074716 
L 192.054026 18.074716 
L 195.422426 18.074716 
L 198.790826 18.074716 
L 202.159226 18.074716 
L 205.527626 18.074716 
L 208.896026 18.074716 
L 212.264426 18.074716 
L 215.632825 18.074716 
L 219.001225 18.074716 
L 222.369625 18.074716 
L 225.738025 18.074716 
L 229.106425 18.074716 
L 232.474825 18.074716 
L 235.843225 18.074716 
L 239.211625 18.074716 
L 242.580025 18.074716 
L 245.948425 18.074716 
L 249.316824 18.074716 
L 252.685224 18.074716 
L 256.053624 18.074716 
L 259.422024 18.074716 
L 262.790424 18.074716 
L 266.158824 18.074716 
L 269.527224 18.074716 
L 272.895624 18.074716 
L 276.264024 18.074716 
L 279.632424 18.074716 
L 283.000824 18.074716 
L 286.369223 18.074716 
L 289.737623 18.074716 
L 293.106023 18.074716 
L 296.474423 18.074716 
L 299.842823 18.074716 
L 303.211223 18.074716 
L 306.579623 18.074716 
L 309.948023 18.074716 
L 313.316423 18.074716 
L 316.684823 18.074716 
L 320.053223 18.074716 
L 323.421622 18.074716 
L 326.790022 18.074716 
L 330.158422 18.074716 
L 333.526822 18.074716 
L 336.895222 18.074716 
L 340.263622 18.074716 
L 343.632022 18.074716 
L 347.000422 18.074716 
L 350.368822 18.074716 
L 353.737222 18.074716 
L 357.105622 18.074716 
L 360.474021 18.074716 
L 363.842421 18.074716 
L 367.210821 18.074716 
L 370.579221 18.074716 
L 373.947621 18.074716 
L 377.316021 18.074716 
L 380.684421 18.074716 
L 384.052821 18.074716 
L 387.421221 18.074716 
L 390.789621 18.074716 
L 394.158021 18.074716 
L 397.52642 18.074716 
" style="fill:none;stroke:#ffa500;stroke-linecap:square;stroke-width:1.5;"/>
   </g>
   <g id="line2d_19">
    <path clip-path="url(#pa7cd82a7f7)" d="M 64.05483 103.425486 
L 67.423229 103.425486 
L 70.791629 103.425486 
L 74.160029 103.425486 
L 77.528429 103.425486 
L 80.896829 103.425486 
L 84.265229 103.425486 
L 87.633629 103.425486 
L 91.002029 103.425486 
L 94.370429 103.425486 
L 97.738829 103.425486 
L 101.107229 103.425486 
L 104.475628 103.425486 
L 107.844028 103.425486 
L 111.212428 103.425486 
L 114.580828 103.425486 
L 117.949228 103.425486 
L 121.317628 103.425486 
L 124.686028 103.425486 
L 128.054428 103.425486 
L 131.422828 103.425486 
L 134.791228 103.425486 
L 138.159628 103.425486 
L 141.528027 103.425486 
L 144.896427 103.425486 
L 148.264827 103.425486 
L 151.633227 103.425486 
L 155.001627 103.425486 
L 158.370027 103.425486 
L 161.738427 103.425486 
L 165.106827 103.425486 
L 168.475227 103.425486 
L 171.843627 103.425486 
L 175.212027 103.425486 
L 178.580426 103.425486 
L 181.948826 103.425486 
L 185.317226 103.425486 
L 188.685626 103.425486 
L 192.054026 103.425486 
L 195.422426 103.425486 
L 198.790826 103.425486 
L 202.159226 103.425486 
L 205.527626 103.425486 
L 208.896026 103.425486 
L 212.264426 103.425486 
L 215.632825 103.425486 
L 219.001225 103.425486 
L 222.369625 103.425486 
L 225.738025 103.425486 
L 229.106425 103.425486 
L 232.474825 103.425486 
L 235.843225 103.425486 
L 239.211625 103.425486 
L 242.580025 103.425486 
L 245.948425 103.425486 
L 249.316824 103.425486 
L 252.685224 103.425486 
L 256.053624 103.425486 
L 259.422024 103.425486 
L 262.790424 103.425486 
L 266.158824 103.425486 
L 269.527224 103.425486 
L 272.895624 103.425486 
L 276.264024 103.425486 
L 279.632424 103.425486 
L 283.000824 103.425486 
L 286.369223 103.425486 
L 289.737623 103.425486 
L 293.106023 103.425486 
L 296.474423 103.425486 
L 299.842823 103.425486 
L 303.211223 103.425486 
L 306.579623 103.425486 
L 309.948023 103.425486 
L 313.316423 103.425486 
L 316.684823 103.425486 
L 320.053223 103.425486 
L 323.421622 103.425486 
L 326.790022 103.425486 
L 330.158422 103.425486 
L 333.526822 103.425486 
L 336.895222 103.425486 
L 340.263622 103.425486 
L 343.632022 103.425486 
L 347.000422 103.425486 
L 350.368822 103.425486 
L 353.737222 103.425486 
L 357.105622 103.425486 
L 360.474021 103.425486 
L 363.842421 103.425486 
L 367.210821 103.425486 
L 370.579221 103.425486 
L 373.947621 103.425486 
L 377.316021 103.425486 
L 380.684421 103.425486 
L 384.052821 103.425486 
L 387.421221 103.425486 
L 390.789621 103.425486 
L 394.158021 103.425486 
L 397.52642 103.425486 
" style="fill:none;stroke:#ffa500;stroke-linecap:square;stroke-width:1.5;"/>
   </g>
   <g id="line2d_20">
    <path clip-path="url(#pa7cd82a7f7)" d="M 64.05483 131.728332 
L 67.423229 131.728332 
L 70.791629 131.728332 
L 74.160029 131.728332 
L 77.528429 131.728332 
L 80.896829 131.728332 
L 84.265229 131.728332 
L 87.633629 131.728332 
L 91.002029 131.728332 
L 94.370429 131.728332 
L 97.738829 131.728332 
L 101.107229 131.728332 
L 104.475628 131.728332 
L 107.844028 131.728332 
L 111.212428 131.728332 
L 114.580828 131.728332 
L 117.949228 131.728332 
L 121.317628 131.728332 
L 124.686028 131.728332 
L 128.054428 131.728332 
L 131.422828 131.728332 
L 134.791228 131.728332 
L 138.159628 131.728332 
L 141.528027 131.728332 
L 144.896427 131.728332 
L 148.264827 131.728332 
L 151.633227 131.728332 
L 155.001627 131.728332 
L 158.370027 131.728332 
L 161.738427 131.728332 
L 165.106827 131.728332 
L 168.475227 131.728332 
L 171.843627 131.728332 
L 175.212027 131.728332 
L 178.580426 131.728332 
L 181.948826 131.728332 
L 185.317226 131.728332 
L 188.685626 131.728332 
L 192.054026 131.728332 
L 195.422426 131.728332 
L 198.790826 131.728332 
L 202.159226 131.728332 
L 205.527626 131.728332 
L 208.896026 131.728332 
L 212.264426 131.728332 
L 215.632825 131.728332 
L 219.001225 131.728332 
L 222.369625 131.728332 
L 225.738025 131.728332 
L 229.106425 131.728332 
L 232.474825 131.728332 
L 235.843225 131.728332 
L 239.211625 131.728332 
L 242.580025 131.728332 
L 245.948425 131.728332 
L 249.316824 131.728332 
L 252.685224 131.728332 
L 256.053624 131.728332 
L 259.422024 131.728332 
L 262.790424 131.728332 
L 266.158824 131.728332 
L 269.527224 131.728332 
L 272.895624 131.728332 
L 276.264024 131.728332 
L 279.632424 131.728332 
L 283.000824 131.728332 
L 286.369223 131.728332 
L 289.737623 131.728332 
L 293.106023 131.728332 
L 296.474423 131.728332 
L 299.842823 131.728332 
L 303.211223 131.728332 
L 306.579623 131.728332 
L 309.948023 131.728332 
L 313.316423 131.728332 
L 316.684823 131.728332 
L 320.053223 131.728332 
L 323.421622 131.728332 
L 326.790022 131.728332 
L 330.158422 131.728332 
L 333.526822 131.728332 
L 336.895222 131.728332 
L 340.263622 131.728332 
L 343.632022 131.728332 
L 347.000422 131.728332 
L 350.368822 131.728332 
L 353.737222 131.728332 
L 357.105622 131.728332 
L 360.474021 131.728332 
L 363.842421 131.728332 
L 367.210821 131.728332 
L 370.579221 131.728332 
L 373.947621 131.728332 
L 377.316021 131.728332 
L 380.684421 131.728332 
L 384.052821 131.728332 
L 387.421221 131.728332 
L 390.789621 131.728332 
L 394.158021 131.728332 
L 397.52642 131.728332 
" style="fill:none;stroke:#ffa500;stroke-linecap:square;stroke-width:1.5;"/>
   </g>
   <g id="patch_3">
    <path d="M 47.38125 170.84375 
L 47.38125 10.8 
" style="fill:none;stroke:#000000;stroke-linecap:square;stroke-linejoin:miter;"/>
   </g>
   <g id="patch_4">
    <path d="M 414.2 170.84375 
L 414.2 10.8 
" style="fill:none;stroke:#000000;stroke-linecap:square;stroke-linejoin:miter;"/>
   </g>
   <g id="patch_5">
    <path d="M 47.38125 170.84375 
L 414.2 170.84375 
" style="fill:none;stroke:#000000;stroke-linecap:square;stroke-linejoin:miter;"/>
   </g>
   <g id="patch_6">
    <path d="M 47.38125 10.8 
L 414.2 10.8 
" style="fill:none;stroke:#000000;stroke-linecap:square;stroke-linejoin:miter;"/>
   </g>
   <g id="legend_1">
    <g id="line2d_21">
     <path d="M 189.185937 23.898438 
L 209.185937 23.898438 
" style="fill:none;stroke:#2cbdfe;stroke-linecap:square;stroke-width:1.5;"/>
    </g>
    <g id="line2d_22"/>
    <g id="text_14">
     <!-- FD -->
     <g transform="translate(217.185937 27.398438)scale(0.1 -0.1)">
      <defs>
       <path d="M 1581 331 
L 2163 331 
Q 3072 331 3558 850 
Q 4044 1369 4044 2338 
Q 4044 3306 3559 3818 
Q 3075 4331 2163 4331 
L 1581 4331 
L 1581 331 
z
M 353 0 
L 353 331 
L 947 331 
L 947 4331 
L 353 4331 
L 353 4666 
L 2209 4666 
Q 3416 4666 4089 4050 
Q 4763 3434 4763 2338 
Q 4763 1238 4088 619 
Q 3413 0 2209 0 
L 353 0 
z
" id="DejaVuSerif-44" transform="scale(0.015625)"/>
      </defs>
      <use xlink:href="#DejaVuSerif-46"/>
      <use x="69.384766" xlink:href="#DejaVuSerif-44"/>
     </g>
    </g>
    <g id="line2d_23">
     <path d="M 189.185937 38.576563 
L 209.185937 38.576563 
" style="fill:none;stroke:#47dbcd;stroke-linecap:square;stroke-width:1.5;"/>
    </g>
    <g id="line2d_24"/>
    <g id="text_15">
     <!-- CPU -->
     <g transform="translate(217.185937 42.076563)scale(0.1 -0.1)">
      <defs>
       <path d="M 4513 1234 
Q 4306 581 3820 245 
Q 3334 -91 2591 -91 
Q 2134 -91 1743 65 
Q 1353 222 1050 525 
Q 700 875 529 1320 
Q 359 1766 359 2328 
Q 359 3416 987 4083 
Q 1616 4750 2644 4750 
Q 3025 4750 3456 4650 
Q 3888 4550 4384 4347 
L 4384 3272 
L 4031 3272 
Q 3916 3859 3567 4137 
Q 3219 4416 2591 4416 
Q 1844 4416 1459 3886 
Q 1075 3356 1075 2328 
Q 1075 1303 1459 773 
Q 1844 244 2591 244 
Q 3113 244 3450 492 
Q 3788 741 3938 1234 
L 4513 1234 
z
" id="DejaVuSerif-43" transform="scale(0.015625)"/>
       <path d="M 897 4331 
L 300 4331 
L 300 4666 
L 2125 4666 
L 2125 4331 
L 1528 4331 
L 1528 1919 
Q 1528 1025 1820 672 
Q 2113 319 2828 319 
Q 3544 319 3836 672 
Q 4128 1025 4128 1919 
L 4128 4331 
L 3531 4331 
L 3531 4666 
L 5106 4666 
L 5106 4331 
L 4513 4331 
L 4513 1856 
Q 4513 791 4103 350 
Q 3694 -91 2713 -91 
Q 1731 -91 1314 353 
Q 897 797 897 1856 
L 897 4331 
z
" id="DejaVuSerif-55" transform="scale(0.015625)"/>
      </defs>
      <use xlink:href="#DejaVuSerif-43"/>
      <use x="76.513672" xlink:href="#DejaVuSerif-50"/>
      <use x="142.048828" xlink:href="#DejaVuSerif-55"/>
     </g>
    </g>
    <g id="line2d_25">
     <path d="M 189.185937 53.254688 
L 209.185937 53.254688 
" style="fill:none;stroke:#f5b14c;stroke-linecap:square;stroke-width:1.5;"/>
    </g>
    <g id="line2d_26"/>
    <g id="text_16">
     <!-- FEC -->
     <g transform="translate(217.185937 56.754688)scale(0.1 -0.1)">
      <defs>
       <path d="M 353 0 
L 353 331 
L 947 331 
L 947 4331 
L 353 4331 
L 353 4666 
L 4109 4666 
L 4109 3628 
L 3725 3628 
L 3725 4281 
L 1581 4281 
L 1581 2719 
L 3109 2719 
L 3109 3303 
L 3494 3303 
L 3494 1753 
L 3109 1753 
L 3109 2338 
L 1581 2338 
L 1581 384 
L 3775 384 
L 3775 1038 
L 4159 1038 
L 4159 0 
L 353 0 
z
" id="DejaVuSerif-45" transform="scale(0.015625)"/>
      </defs>
      <use xlink:href="#DejaVuSerif-46"/>
      <use x="69.384766" xlink:href="#DejaVuSerif-45"/>
      <use x="142.382812" xlink:href="#DejaVuSerif-43"/>
     </g>
    </g>
    <g id="line2d_27">
     <path d="M 259.81875 23.898438 
L 279.81875 23.898438 
" style="fill:none;stroke:#f3a0f2;stroke-linecap:square;stroke-width:1.5;"/>
    </g>
    <g id="line2d_28"/>
    <g id="text_17">
     <!-- FD (NL) -->
     <g transform="translate(287.81875 27.398438)scale(0.1 -0.1)">
      <defs>
       <path d="M 2041 -997 
Q 1281 -656 893 83 
Q 506 822 506 1931 
Q 506 3044 893 3783 
Q 1281 4522 2041 4863 
L 2041 4556 
Q 1559 4225 1350 3623 
Q 1141 3022 1141 1931 
Q 1141 844 1350 242 
Q 1559 -359 2041 -691 
L 2041 -997 
z
" id="DejaVuSerif-28" transform="scale(0.015625)"/>
       <path d="M 313 0 
L 313 331 
L 941 331 
L 941 4331 
L 313 4331 
L 313 4666 
L 1509 4666 
L 4306 984 
L 4306 4331 
L 3681 4331 
L 3681 4666 
L 5319 4666 
L 5319 4331 
L 4691 4331 
L 4691 -91 
L 4313 -91 
L 1325 3841 
L 1325 331 
L 1953 331 
L 1953 0 
L 313 0 
z
" id="DejaVuSerif-4e" transform="scale(0.015625)"/>
       <path d="M 353 0 
L 353 331 
L 947 331 
L 947 4331 
L 353 4331 
L 353 4666 
L 2175 4666 
L 2175 4331 
L 1581 4331 
L 1581 384 
L 3713 384 
L 3713 1166 
L 4097 1166 
L 4097 0 
L 353 0 
z
" id="DejaVuSerif-4c" transform="scale(0.015625)"/>
       <path d="M 453 -997 
L 453 -691 
Q 934 -359 1145 242 
Q 1356 844 1356 1931 
Q 1356 3022 1145 3623 
Q 934 4225 453 4556 
L 453 4863 
Q 1216 4522 1603 3783 
Q 1991 3044 1991 1931 
Q 1991 822 1603 83 
Q 1216 -656 453 -997 
z
" id="DejaVuSerif-29" transform="scale(0.015625)"/>
      </defs>
      <use xlink:href="#DejaVuSerif-46"/>
      <use x="69.384766" xlink:href="#DejaVuSerif-44"/>
      <use x="149.560547" xlink:href="#DejaVuSerif-20"/>
      <use x="181.347656" xlink:href="#DejaVuSerif-28"/>
      <use x="220.361328" xlink:href="#DejaVuSerif-4e"/>
      <use x="307.861328" xlink:href="#DejaVuSerif-4c"/>
      <use x="374.267578" xlink:href="#DejaVuSerif-29"/>
     </g>
    </g>
    <g id="line2d_29">
     <path d="M 259.81875 38.576563 
L 279.81875 38.576563 
" style="fill:none;stroke:#9d2ec5;stroke-linecap:square;stroke-width:1.5;"/>
    </g>
    <g id="line2d_30"/>
    <g id="text_18">
     <!-- OFDM -->
     <g transform="translate(287.81875 42.076563)scale(0.1 -0.1)">
      <defs>
       <path d="M 2625 244 
Q 3391 244 3781 770 
Q 4172 1297 4172 2328 
Q 4172 3363 3781 3889 
Q 3391 4416 2625 4416 
Q 1856 4416 1465 3889 
Q 1075 3363 1075 2328 
Q 1075 1297 1465 770 
Q 1856 244 2625 244 
z
M 2625 -91 
Q 2150 -91 1751 65 
Q 1353 222 1050 525 
Q 700 875 529 1319 
Q 359 1763 359 2328 
Q 359 2894 529 3339 
Q 700 3784 1050 4134 
Q 1356 4441 1750 4595 
Q 2144 4750 2625 4750 
Q 3641 4750 4266 4084 
Q 4891 3419 4891 2328 
Q 4891 1769 4719 1320 
Q 4547 872 4197 525 
Q 3891 219 3497 64 
Q 3103 -91 2625 -91 
z
" id="DejaVuSerif-4f" transform="scale(0.015625)"/>
      </defs>
      <use xlink:href="#DejaVuSerif-4f"/>
      <use x="81.982422" xlink:href="#DejaVuSerif-46"/>
      <use x="151.367188" xlink:href="#DejaVuSerif-44"/>
      <use x="231.542969" xlink:href="#DejaVuSerif-4d"/>
     </g>
    </g>
    <g id="line2d_31">
     <path d="M 259.81875 53.254688 
L 279.81875 53.254688 
" style="fill:none;stroke:#661d98;stroke-linecap:square;stroke-width:1.5;"/>
    </g>
    <g id="line2d_32"/>
    <g id="text_19">
     <!-- Filter -->
     <g transform="translate(287.81875 56.754688)scale(0.1 -0.1)">
      <defs>
       <path d="M 622 4353 
Q 622 4497 726 4603 
Q 831 4709 978 4709 
Q 1122 4709 1226 4603 
Q 1331 4497 1331 4353 
Q 1331 4206 1228 4103 
Q 1125 4000 978 4000 
Q 831 4000 726 4103 
Q 622 4206 622 4353 
z
M 1356 331 
L 1900 331 
L 1900 0 
L 231 0 
L 231 331 
L 781 331 
L 781 2988 
L 231 2988 
L 231 3322 
L 1356 3322 
L 1356 331 
z
" id="DejaVuSerif-69" transform="scale(0.015625)"/>
       <path d="M 1313 331 
L 1856 331 
L 1856 0 
L 184 0 
L 184 331 
L 738 331 
L 738 4531 
L 184 4531 
L 184 4863 
L 1313 4863 
L 1313 331 
z
" id="DejaVuSerif-6c" transform="scale(0.015625)"/>
       <path d="M 691 2988 
L 184 2988 
L 184 3322 
L 691 3322 
L 691 4353 
L 1269 4353 
L 1269 3322 
L 2350 3322 
L 2350 2988 
L 1269 2988 
L 1269 878 
Q 1269 456 1350 337 
Q 1431 219 1650 219 
Q 1875 219 1978 351 
Q 2081 484 2088 781 
L 2522 781 
Q 2497 328 2275 118 
Q 2053 -91 1600 -91 
Q 1103 -91 897 129 
Q 691 350 691 878 
L 691 2988 
z
" id="DejaVuSerif-74" transform="scale(0.015625)"/>
      </defs>
      <use xlink:href="#DejaVuSerif-46"/>
      <use x="69.384766" xlink:href="#DejaVuSerif-69"/>
      <use x="101.367188" xlink:href="#DejaVuSerif-6c"/>
      <use x="133.349609" xlink:href="#DejaVuSerif-74"/>
      <use x="173.535156" xlink:href="#DejaVuSerif-65"/>
      <use x="232.714844" xlink:href="#DejaVuSerif-72"/>
     </g>
    </g>
    <g id="line2d_33">
     <path d="M 349.146875 23.898438 
L 369.146875 23.898438 
" style="fill:none;stroke:#ffa500;stroke-linecap:square;stroke-width:1.5;"/>
    </g>
    <g id="line2d_34"/>
    <g id="text_20">
     <!-- Filter -->
     <g transform="translate(377.146875 27.398438)scale(0.1 -0.1)">
      <use xlink:href="#DejaVuSerif-46"/>
      <use x="69.384766" xlink:href="#DejaVuSerif-69"/>
      <use x="101.367188" xlink:href="#DejaVuSerif-6c"/>
      <use x="133.349609" xlink:href="#DejaVuSerif-74"/>
      <use x="173.535156" xlink:href="#DejaVuSerif-65"/>
      <use x="232.714844" xlink:href="#DejaVuSerif-72"/>
     </g>
    </g>
    <g id="line2d_35">
     <path d="M 349.146875 38.576563 
L 369.146875 38.576563 
" style="fill:none;stroke:#ffa500;stroke-linecap:square;stroke-width:1.5;"/>
    </g>
    <g id="line2d_36"/>
    <g id="text_21">
     <!-- Filter -->
     <g transform="translate(377.146875 42.076563)scale(0.1 -0.1)">
      <use xlink:href="#DejaVuSerif-46"/>
      <use x="69.384766" xlink:href="#DejaVuSerif-69"/>
      <use x="101.367188" xlink:href="#DejaVuSerif-6c"/>
      <use x="133.349609" xlink:href="#DejaVuSerif-74"/>
      <use x="173.535156" xlink:href="#DejaVuSerif-65"/>
      <use x="232.714844" xlink:href="#DejaVuSerif-72"/>
     </g>
    </g>
    <g id="line2d_37">
     <path d="M 349.146875 53.254688 
L 369.146875 53.254688 
" style="fill:none;stroke:#ffa500;stroke-linecap:square;stroke-width:1.5;"/>
    </g>
    <g id="line2d_38"/>
    <g id="text_22">
     <!-- Filter -->
     <g transform="translate(377.146875 56.754688)scale(0.1 -0.1)">
      <use xlink:href="#DejaVuSerif-46"/>
      <use x="69.384766" xlink:href="#DejaVuSerif-69"/>
      <use x="101.367188" xlink:href="#DejaVuSerif-6c"/>
      <use x="133.349609" xlink:href="#DejaVuSerif-74"/>
      <use x="173.535156" xlink:href="#DejaVuSerif-65"/>
      <use x="232.714844" xlink:href="#DejaVuSerif-72"/>
     </g>
    </g>
   </g>
  </g>
 </g>
 <defs>
  <clipPath id="pa7cd82a7f7">
   <rect height="160.04375" width="366.81875" x="47.38125" y="10.8"/>
  </clipPath>
 </defs>
</svg>
