<?xml version="1.0" encoding="utf-8" standalone="no"?>
<!DOCTYPE svg PUBLIC "-//W3C//DTD SVG 1.1//EN"
  "http://www.w3.org/Graphics/SVG/1.1/DTD/svg11.dtd">
<svg height="212.598425pt" version="1.1" viewBox="0 0 425.19685 212.598425" width="425.19685pt" xmlns="http://www.w3.org/2000/svg" xmlns:xlink="http://www.w3.org/1999/xlink">
 <metadata>
  <rdf:RDF xmlns:cc="http://creativecommons.org/ns#" xmlns:dc="http://purl.org/dc/elements/1.1/" xmlns:rdf="http://www.w3.org/1999/02/22-rdf-syntax-ns#">
   <cc:Work>
    <dc:type rdf:resource="http://purl.org/dc/dcmitype/StillImage"/>
    <dc:date>2024-06-03T11:25:42.472965</dc:date>
    <dc:format>image/svg+xml</dc:format>
    <dc:creator>
     <cc:Agent>
      <dc:title>Matplotlib v3.4.3, https://matplotlib.org/</dc:title>
     </cc:Agent>
    </dc:creator>
   </cc:Work>
  </rdf:RDF>
 </metadata>
 <defs>
  <style type="text/css">*{stroke-linecap:butt;stroke-linejoin:round;}</style>
 </defs>
 <g id="figure_1">
  <g id="patch_1">
   <path d="M 0 212.598425 
L 425.19685 212.598425 
L 425.19685 0 
L 0 0 
z
" style="fill:#ffffff;"/>
  </g>
  <g id="axes_1">
   <g id="patch_2">
    <path d="M 44.203125 171.442175 
L 414.39685 171.442175 
L 414.39685 10.8 
L 44.203125 10.8 
z
" style="fill:#ffffff;"/>
   </g>
   <g id="matplotlib.axis_1">
    <g id="xtick_1">
     <g id="line2d_1">
      <defs>
       <path d="M 0 0 
L 0 3.5 
" id="m8f868fa3d8" style="stroke:#000000;stroke-width:0.8;"/>
      </defs>
      <g>
       <use style="stroke:#000000;stroke-width:0.8;" x="61.030113" xlink:href="#m8f868fa3d8" y="171.442175"/>
      </g>
     </g>
     <g id="text_1">
      <!-- 0 -->
      <g transform="translate(57.848863 186.040613)scale(0.1 -0.1)">
       <defs>
        <path d="M 2034 219 
Q 2513 219 2750 744 
Q 2988 1269 2988 2328 
Q 2988 3391 2750 3916 
Q 2513 4441 2034 4441 
Q 1556 4441 1318 3916 
Q 1081 3391 1081 2328 
Q 1081 1269 1318 744 
Q 1556 219 2034 219 
z
M 2034 -91 
Q 1275 -91 848 546 
Q 422 1184 422 2328 
Q 422 3475 848 4112 
Q 1275 4750 2034 4750 
Q 2797 4750 3222 4112 
Q 3647 3475 3647 2328 
Q 3647 1184 3222 546 
Q 2797 -91 2034 -91 
z
" id="DejaVuSerif-30" transform="scale(0.015625)"/>
       </defs>
       <use xlink:href="#DejaVuSerif-30"/>
      </g>
     </g>
    </g>
    <g id="xtick_2">
     <g id="line2d_2">
      <g>
       <use style="stroke:#000000;stroke-width:0.8;" x="128.338063" xlink:href="#m8f868fa3d8" y="171.442175"/>
      </g>
     </g>
     <g id="text_2">
      <!-- 20 -->
      <g transform="translate(121.975563 186.040613)scale(0.1 -0.1)">
       <defs>
        <path d="M 819 3553 
L 469 3553 
L 469 4384 
Q 803 4563 1142 4656 
Q 1481 4750 1806 4750 
Q 2534 4750 2956 4397 
Q 3378 4044 3378 3438 
Q 3378 2753 2422 1800 
Q 2347 1728 2309 1691 
L 1131 513 
L 3078 513 
L 3078 1088 
L 3444 1088 
L 3444 0 
L 434 0 
L 434 341 
L 1850 1753 
Q 2319 2222 2519 2614 
Q 2719 3006 2719 3438 
Q 2719 3909 2473 4175 
Q 2228 4441 1797 4441 
Q 1350 4441 1106 4219 
Q 863 3997 819 3553 
z
" id="DejaVuSerif-32" transform="scale(0.015625)"/>
       </defs>
       <use xlink:href="#DejaVuSerif-32"/>
       <use x="63.623047" xlink:href="#DejaVuSerif-30"/>
      </g>
     </g>
    </g>
    <g id="xtick_3">
     <g id="line2d_3">
      <g>
       <use style="stroke:#000000;stroke-width:0.8;" x="195.646013" xlink:href="#m8f868fa3d8" y="171.442175"/>
      </g>
     </g>
     <g id="text_3">
      <!-- 40 -->
      <g transform="translate(189.283513 186.040613)scale(0.1 -0.1)">
       <defs>
        <path d="M 2234 1581 
L 2234 4063 
L 641 1581 
L 2234 1581 
z
M 3609 0 
L 1484 0 
L 1484 331 
L 2234 331 
L 2234 1247 
L 197 1247 
L 197 1588 
L 2241 4750 
L 2859 4750 
L 2859 1581 
L 3750 1581 
L 3750 1247 
L 2859 1247 
L 2859 331 
L 3609 331 
L 3609 0 
z
" id="DejaVuSerif-34" transform="scale(0.015625)"/>
       </defs>
       <use xlink:href="#DejaVuSerif-34"/>
       <use x="63.623047" xlink:href="#DejaVuSerif-30"/>
      </g>
     </g>
    </g>
    <g id="xtick_4">
     <g id="line2d_4">
      <g>
       <use style="stroke:#000000;stroke-width:0.8;" x="262.953963" xlink:href="#m8f868fa3d8" y="171.442175"/>
      </g>
     </g>
     <g id="text_4">
      <!-- 60 -->
      <g transform="translate(256.591463 186.040613)scale(0.1 -0.1)">
       <defs>
        <path d="M 2094 219 
Q 2534 219 2771 542 
Q 3009 866 3009 1472 
Q 3009 2078 2771 2401 
Q 2534 2725 2094 2725 
Q 1647 2725 1412 2412 
Q 1178 2100 1178 1509 
Q 1178 888 1415 553 
Q 1653 219 2094 219 
z
M 1075 2569 
Q 1288 2803 1556 2918 
Q 1825 3034 2163 3034 
Q 2859 3034 3264 2615 
Q 3669 2197 3669 1472 
Q 3669 763 3233 336 
Q 2797 -91 2069 -91 
Q 1278 -91 853 498 
Q 428 1088 428 2181 
Q 428 3406 931 4078 
Q 1434 4750 2350 4750 
Q 2597 4750 2869 4703 
Q 3141 4656 3425 4563 
L 3425 3794 
L 3072 3794 
Q 3034 4109 2831 4275 
Q 2628 4441 2284 4441 
Q 1678 4441 1381 3981 
Q 1084 3522 1075 2569 
z
" id="DejaVuSerif-36" transform="scale(0.015625)"/>
       </defs>
       <use xlink:href="#DejaVuSerif-36"/>
       <use x="63.623047" xlink:href="#DejaVuSerif-30"/>
      </g>
     </g>
    </g>
    <g id="xtick_5">
     <g id="line2d_5">
      <g>
       <use style="stroke:#000000;stroke-width:0.8;" x="330.261913" xlink:href="#m8f868fa3d8" y="171.442175"/>
      </g>
     </g>
     <g id="text_5">
      <!-- 80 -->
      <g transform="translate(323.899413 186.040613)scale(0.1 -0.1)">
       <defs>
        <path d="M 2981 1275 
Q 2981 1775 2732 2051 
Q 2484 2328 2034 2328 
Q 1584 2328 1336 2051 
Q 1088 1775 1088 1275 
Q 1088 772 1336 495 
Q 1584 219 2034 219 
Q 2484 219 2732 495 
Q 2981 772 2981 1275 
z
M 2853 3541 
Q 2853 3966 2637 4203 
Q 2422 4441 2034 4441 
Q 1650 4441 1433 4203 
Q 1216 3966 1216 3541 
Q 1216 3113 1433 2875 
Q 1650 2638 2034 2638 
Q 2422 2638 2637 2875 
Q 2853 3113 2853 3541 
z
M 2516 2484 
Q 3047 2413 3344 2092 
Q 3641 1772 3641 1275 
Q 3641 619 3225 264 
Q 2809 -91 2034 -91 
Q 1263 -91 845 264 
Q 428 619 428 1275 
Q 428 1772 725 2092 
Q 1022 2413 1556 2484 
Q 1084 2569 832 2842 
Q 581 3116 581 3541 
Q 581 4103 968 4426 
Q 1356 4750 2034 4750 
Q 2713 4750 3100 4426 
Q 3488 4103 3488 3541 
Q 3488 3116 3236 2842 
Q 2984 2569 2516 2484 
z
" id="DejaVuSerif-38" transform="scale(0.015625)"/>
       </defs>
       <use xlink:href="#DejaVuSerif-38"/>
       <use x="63.623047" xlink:href="#DejaVuSerif-30"/>
      </g>
     </g>
    </g>
    <g id="xtick_6">
     <g id="line2d_6">
      <g>
       <use style="stroke:#000000;stroke-width:0.8;" x="397.569863" xlink:href="#m8f868fa3d8" y="171.442175"/>
      </g>
     </g>
     <g id="text_6">
      <!-- 100 -->
      <g transform="translate(388.026113 186.040613)scale(0.1 -0.1)">
       <defs>
        <path d="M 909 0 
L 909 331 
L 1722 331 
L 1722 4213 
L 781 3603 
L 781 4013 
L 1919 4750 
L 2350 4750 
L 2350 331 
L 3163 331 
L 3163 0 
L 909 0 
z
" id="DejaVuSerif-31" transform="scale(0.015625)"/>
       </defs>
       <use xlink:href="#DejaVuSerif-31"/>
       <use x="63.623047" xlink:href="#DejaVuSerif-30"/>
       <use x="127.246094" xlink:href="#DejaVuSerif-30"/>
      </g>
     </g>
    </g>
    <g id="text_7">
     <!-- Frequency / MHz -->
     <g transform="translate(185.278894 199.57655)scale(0.1 -0.1)">
      <defs>
       <path d="M 353 0 
L 353 331 
L 947 331 
L 947 4331 
L 353 4331 
L 353 4666 
L 4172 4666 
L 4172 3628 
L 3788 3628 
L 3788 4281 
L 1581 4281 
L 1581 2719 
L 3175 2719 
L 3175 3303 
L 3559 3303 
L 3559 1753 
L 3175 1753 
L 3175 2338 
L 1581 2338 
L 1581 331 
L 2328 331 
L 2328 0 
L 353 0 
z
" id="DejaVuSerif-46" transform="scale(0.015625)"/>
       <path d="M 3059 3328 
L 3059 2497 
L 2728 2497 
Q 2713 2744 2591 2866 
Q 2469 2988 2234 2988 
Q 1809 2988 1582 2694 
Q 1356 2400 1356 1850 
L 1356 331 
L 2022 331 
L 2022 0 
L 263 0 
L 263 331 
L 781 331 
L 781 2994 
L 231 2994 
L 231 3322 
L 1356 3322 
L 1356 2731 
Q 1525 3078 1790 3245 
Q 2056 3413 2438 3413 
Q 2578 3413 2733 3391 
Q 2888 3369 3059 3328 
z
" id="DejaVuSerif-72" transform="scale(0.015625)"/>
       <path d="M 3469 1600 
L 991 1600 
L 991 1575 
Q 991 903 1244 561 
Q 1497 219 1991 219 
Q 2369 219 2611 417 
Q 2853 616 2950 1006 
L 3413 1006 
Q 3275 459 2904 184 
Q 2534 -91 1931 -91 
Q 1203 -91 761 389 
Q 319 869 319 1663 
Q 319 2450 753 2931 
Q 1188 3413 1894 3413 
Q 2647 3413 3050 2948 
Q 3453 2484 3469 1600 
z
M 2791 1931 
Q 2772 2513 2545 2808 
Q 2319 3103 1894 3103 
Q 1497 3103 1269 2806 
Q 1041 2509 991 1931 
L 2791 1931 
z
" id="DejaVuSerif-65" transform="scale(0.015625)"/>
       <path d="M 3359 2988 
L 3359 -997 
L 3909 -997 
L 3909 -1331 
L 2241 -1331 
L 2241 -997 
L 2784 -997 
L 2784 519 
Q 2616 206 2355 57 
Q 2094 -91 1709 -91 
Q 1097 -91 708 395 
Q 319 881 319 1663 
Q 319 2444 706 2928 
Q 1094 3413 1709 3413 
Q 2094 3413 2355 3264 
Q 2616 3116 2784 2803 
L 2784 3322 
L 3909 3322 
L 3909 2988 
L 3359 2988 
z
M 2784 1825 
Q 2784 2422 2554 2737 
Q 2325 3053 1888 3053 
Q 1444 3053 1217 2703 
Q 991 2353 991 1663 
Q 991 975 1217 622 
Q 1444 269 1888 269 
Q 2325 269 2554 583 
Q 2784 897 2784 1497 
L 2784 1825 
z
" id="DejaVuSerif-71" transform="scale(0.015625)"/>
       <path d="M 2266 3322 
L 3341 3322 
L 3341 331 
L 3884 331 
L 3884 0 
L 2766 0 
L 2766 588 
Q 2606 256 2353 82 
Q 2100 -91 1766 -91 
Q 1213 -91 952 223 
Q 691 538 691 1209 
L 691 2988 
L 172 2988 
L 172 3322 
L 1269 3322 
L 1269 1388 
Q 1269 781 1417 556 
Q 1566 331 1947 331 
Q 2347 331 2556 625 
Q 2766 919 2766 1478 
L 2766 2988 
L 2266 2988 
L 2266 3322 
z
" id="DejaVuSerif-75" transform="scale(0.015625)"/>
       <path d="M 263 0 
L 263 331 
L 781 331 
L 781 2988 
L 231 2988 
L 231 3322 
L 1356 3322 
L 1356 2731 
Q 1516 3069 1770 3241 
Q 2025 3413 2363 3413 
Q 2913 3413 3172 3097 
Q 3431 2781 3431 2113 
L 3431 331 
L 3944 331 
L 3944 0 
L 2356 0 
L 2356 331 
L 2853 331 
L 2853 1931 
Q 2853 2541 2703 2767 
Q 2553 2994 2175 2994 
Q 1775 2994 1565 2701 
Q 1356 2409 1356 1850 
L 1356 331 
L 1856 331 
L 1856 0 
L 263 0 
z
" id="DejaVuSerif-6e" transform="scale(0.015625)"/>
       <path d="M 3291 997 
Q 3169 466 2822 187 
Q 2475 -91 1925 -91 
Q 1200 -91 759 389 
Q 319 869 319 1663 
Q 319 2459 759 2936 
Q 1200 3413 1925 3413 
Q 2241 3413 2553 3339 
Q 2866 3266 3181 3116 
L 3181 2266 
L 2847 2266 
Q 2781 2703 2561 2903 
Q 2341 3103 1931 3103 
Q 1466 3103 1228 2742 
Q 991 2381 991 1663 
Q 991 944 1227 581 
Q 1463 219 1931 219 
Q 2303 219 2525 412 
Q 2747 606 2828 997 
L 3291 997 
z
" id="DejaVuSerif-63" transform="scale(0.015625)"/>
       <path d="M 1381 -609 
L 1600 -56 
L 359 2988 
L -19 2988 
L -19 3322 
L 1509 3322 
L 1509 2988 
L 978 2988 
L 1913 703 
L 2847 2988 
L 2350 2988 
L 2350 3322 
L 3597 3322 
L 3597 2988 
L 3225 2988 
L 1703 -750 
Q 1547 -1138 1356 -1280 
Q 1166 -1422 819 -1422 
Q 672 -1422 517 -1397 
Q 363 -1372 206 -1325 
L 206 -691 
L 500 -691 
Q 519 -903 608 -995 
Q 697 -1088 884 -1088 
Q 1056 -1088 1161 -992 
Q 1266 -897 1381 -609 
z
" id="DejaVuSerif-79" transform="scale(0.015625)"/>
       <path id="DejaVuSerif-20" transform="scale(0.015625)"/>
       <path d="M 1656 4666 
L 2156 4666 
L 500 -594 
L 0 -594 
L 1656 4666 
z
" id="DejaVuSerif-2f" transform="scale(0.015625)"/>
       <path d="M 353 0 
L 353 331 
L 947 331 
L 947 4331 
L 319 4331 
L 319 4666 
L 1678 4666 
L 3316 1344 
L 4953 4666 
L 6228 4666 
L 6228 4331 
L 5606 4331 
L 5606 331 
L 6203 331 
L 6203 0 
L 4378 0 
L 4378 331 
L 4972 331 
L 4972 3938 
L 3372 684 
L 2931 684 
L 1331 3938 
L 1331 331 
L 1925 331 
L 1925 0 
L 353 0 
z
" id="DejaVuSerif-4d" transform="scale(0.015625)"/>
       <path d="M 353 0 
L 353 331 
L 947 331 
L 947 4331 
L 353 4331 
L 353 4666 
L 2175 4666 
L 2175 4331 
L 1581 4331 
L 1581 2719 
L 4000 2719 
L 4000 4331 
L 3406 4331 
L 3406 4666 
L 5228 4666 
L 5228 4331 
L 4634 4331 
L 4634 331 
L 5228 331 
L 5228 0 
L 3406 0 
L 3406 331 
L 4000 331 
L 4000 2338 
L 1581 2338 
L 1581 331 
L 2175 331 
L 2175 0 
L 353 0 
z
" id="DejaVuSerif-48" transform="scale(0.015625)"/>
       <path d="M 256 0 
L 256 269 
L 2338 2988 
L 691 2988 
L 691 2413 
L 359 2413 
L 359 3322 
L 3078 3322 
L 3078 3053 
L 997 331 
L 2803 331 
L 2803 934 
L 3138 934 
L 3138 0 
L 256 0 
z
" id="DejaVuSerif-7a" transform="scale(0.015625)"/>
      </defs>
      <use xlink:href="#DejaVuSerif-46"/>
      <use x="69.384766" xlink:href="#DejaVuSerif-72"/>
      <use x="117.1875" xlink:href="#DejaVuSerif-65"/>
      <use x="176.367188" xlink:href="#DejaVuSerif-71"/>
      <use x="240.380859" xlink:href="#DejaVuSerif-75"/>
      <use x="304.785156" xlink:href="#DejaVuSerif-65"/>
      <use x="363.964844" xlink:href="#DejaVuSerif-6e"/>
      <use x="428.369141" xlink:href="#DejaVuSerif-63"/>
      <use x="484.375" xlink:href="#DejaVuSerif-79"/>
      <use x="540.869141" xlink:href="#DejaVuSerif-20"/>
      <use x="572.65625" xlink:href="#DejaVuSerif-2f"/>
      <use x="606.347656" xlink:href="#DejaVuSerif-20"/>
      <use x="638.134766" xlink:href="#DejaVuSerif-4d"/>
      <use x="740.527344" xlink:href="#DejaVuSerif-48"/>
      <use x="827.734375" xlink:href="#DejaVuSerif-7a"/>
     </g>
    </g>
   </g>
   <g id="matplotlib.axis_2">
    <g id="ytick_1">
     <g id="line2d_7">
      <defs>
       <path d="M 0 0 
L -3.5 0 
" id="mcf9fd1dacd" style="stroke:#000000;stroke-width:0.8;"/>
      </defs>
      <g>
       <use style="stroke:#000000;stroke-width:0.8;" x="44.203125" xlink:href="#mcf9fd1dacd" y="164.140258"/>
      </g>
     </g>
     <g id="text_8">
      <!-- 0 -->
      <g transform="translate(30.840625 167.939477)scale(0.1 -0.1)">
       <use xlink:href="#DejaVuSerif-30"/>
      </g>
     </g>
    </g>
    <g id="ytick_2">
     <g id="line2d_8">
      <g>
       <use style="stroke:#000000;stroke-width:0.8;" x="44.203125" xlink:href="#mcf9fd1dacd" y="137.096121"/>
      </g>
     </g>
     <g id="text_9">
      <!-- 10 -->
      <g transform="translate(24.478125 140.89534)scale(0.1 -0.1)">
       <use xlink:href="#DejaVuSerif-31"/>
       <use x="63.623047" xlink:href="#DejaVuSerif-30"/>
      </g>
     </g>
    </g>
    <g id="ytick_3">
     <g id="line2d_9">
      <g>
       <use style="stroke:#000000;stroke-width:0.8;" x="44.203125" xlink:href="#mcf9fd1dacd" y="110.051984"/>
      </g>
     </g>
     <g id="text_10">
      <!-- 20 -->
      <g transform="translate(24.478125 113.851202)scale(0.1 -0.1)">
       <use xlink:href="#DejaVuSerif-32"/>
       <use x="63.623047" xlink:href="#DejaVuSerif-30"/>
      </g>
     </g>
    </g>
    <g id="ytick_4">
     <g id="line2d_10">
      <g>
       <use style="stroke:#000000;stroke-width:0.8;" x="44.203125" xlink:href="#mcf9fd1dacd" y="83.007846"/>
      </g>
     </g>
     <g id="text_11">
      <!-- 30 -->
      <g transform="translate(24.478125 86.807065)scale(0.1 -0.1)">
       <defs>
        <path d="M 622 4469 
Q 988 4606 1323 4678 
Q 1659 4750 1953 4750 
Q 2638 4750 3022 4454 
Q 3406 4159 3406 3634 
Q 3406 3213 3140 2930 
Q 2875 2647 2388 2547 
Q 2963 2466 3280 2130 
Q 3597 1794 3597 1259 
Q 3597 606 3158 257 
Q 2719 -91 1894 -91 
Q 1528 -91 1179 -12 
Q 831 66 488 225 
L 488 1131 
L 838 1131 
Q 869 681 1141 450 
Q 1413 219 1906 219 
Q 2384 219 2661 495 
Q 2938 772 2938 1253 
Q 2938 1803 2653 2086 
Q 2369 2369 1819 2369 
L 1522 2369 
L 1522 2688 
L 1678 2688 
Q 2225 2688 2498 2914 
Q 2772 3141 2772 3597 
Q 2772 4006 2547 4223 
Q 2322 4441 1900 4441 
Q 1478 4441 1245 4241 
Q 1013 4041 972 3647 
L 622 3647 
L 622 4469 
z
" id="DejaVuSerif-33" transform="scale(0.015625)"/>
       </defs>
       <use xlink:href="#DejaVuSerif-33"/>
       <use x="63.623047" xlink:href="#DejaVuSerif-30"/>
      </g>
     </g>
    </g>
    <g id="ytick_5">
     <g id="line2d_11">
      <g>
       <use style="stroke:#000000;stroke-width:0.8;" x="44.203125" xlink:href="#mcf9fd1dacd" y="55.963709"/>
      </g>
     </g>
     <g id="text_12">
      <!-- 40 -->
      <g transform="translate(24.478125 59.762928)scale(0.1 -0.1)">
       <use xlink:href="#DejaVuSerif-34"/>
       <use x="63.623047" xlink:href="#DejaVuSerif-30"/>
      </g>
     </g>
    </g>
    <g id="ytick_6">
     <g id="line2d_12">
      <g>
       <use style="stroke:#000000;stroke-width:0.8;" x="44.203125" xlink:href="#mcf9fd1dacd" y="28.919572"/>
      </g>
     </g>
     <g id="text_13">
      <!-- 50 -->
      <g transform="translate(24.478125 32.718791)scale(0.1 -0.1)">
       <defs>
        <path d="M 3219 4666 
L 3219 4153 
L 1081 4153 
L 1081 2816 
Q 1244 2928 1461 2984 
Q 1678 3041 1947 3041 
Q 2703 3041 3140 2622 
Q 3578 2203 3578 1478 
Q 3578 738 3136 323 
Q 2694 -91 1894 -91 
Q 1572 -91 1234 -12 
Q 897 66 544 225 
L 544 1131 
L 897 1131 
Q 925 688 1179 453 
Q 1434 219 1894 219 
Q 2388 219 2653 544 
Q 2919 869 2919 1478 
Q 2919 2084 2655 2407 
Q 2391 2731 1894 2731 
Q 1613 2731 1398 2631 
Q 1184 2531 1019 2322 
L 750 2322 
L 750 4666 
L 3219 4666 
z
" id="DejaVuSerif-35" transform="scale(0.015625)"/>
       </defs>
       <use xlink:href="#DejaVuSerif-35"/>
       <use x="63.623047" xlink:href="#DejaVuSerif-30"/>
      </g>
     </g>
    </g>
    <g id="text_14">
     <!-- Power / W -->
     <g transform="translate(18.398438 116.925775)rotate(-90)scale(0.1 -0.1)">
      <defs>
       <path d="M 1581 2375 
L 2406 2375 
Q 2872 2375 3115 2626 
Q 3359 2878 3359 3353 
Q 3359 3831 3115 4081 
Q 2872 4331 2406 4331 
L 1581 4331 
L 1581 2375 
z
M 353 0 
L 353 331 
L 947 331 
L 947 4331 
L 353 4331 
L 353 4666 
L 2559 4666 
Q 3259 4666 3668 4311 
Q 4078 3956 4078 3353 
Q 4078 2753 3668 2397 
Q 3259 2041 2559 2041 
L 1581 2041 
L 1581 331 
L 2303 331 
L 2303 0 
L 353 0 
z
" id="DejaVuSerif-50" transform="scale(0.015625)"/>
       <path d="M 1925 219 
Q 2388 219 2623 584 
Q 2859 950 2859 1663 
Q 2859 2375 2623 2739 
Q 2388 3103 1925 3103 
Q 1463 3103 1227 2739 
Q 991 2375 991 1663 
Q 991 950 1228 584 
Q 1466 219 1925 219 
z
M 1925 -91 
Q 1200 -91 759 389 
Q 319 869 319 1663 
Q 319 2456 758 2934 
Q 1197 3413 1925 3413 
Q 2653 3413 3092 2934 
Q 3531 2456 3531 1663 
Q 3531 869 3092 389 
Q 2653 -91 1925 -91 
z
" id="DejaVuSerif-6f" transform="scale(0.015625)"/>
       <path d="M 3072 3322 
L 3922 728 
L 4672 2988 
L 4191 2988 
L 4191 3322 
L 5394 3322 
L 5394 2988 
L 5025 2988 
L 4038 0 
L 3559 0 
L 2741 2484 
L 1919 0 
L 1459 0 
L 475 2988 
L 103 2988 
L 103 3322 
L 1606 3322 
L 1606 2988 
L 1069 2988 
L 1813 728 
L 2669 3322 
L 3072 3322 
z
" id="DejaVuSerif-77" transform="scale(0.015625)"/>
       <path d="M 4878 0 
L 4366 0 
L 3297 3794 
L 2228 0 
L 1716 0 
L 494 4331 
L 31 4331 
L 31 4666 
L 1734 4666 
L 1734 4331 
L 1153 4331 
L 2125 884 
L 3188 4666 
L 3694 4666 
L 4775 844 
L 5753 4331 
L 5216 4331 
L 5216 4666 
L 6559 4666 
L 6559 4331 
L 6100 4331 
L 4878 0 
z
" id="DejaVuSerif-57" transform="scale(0.015625)"/>
      </defs>
      <use xlink:href="#DejaVuSerif-50"/>
      <use x="63.285156" xlink:href="#DejaVuSerif-6f"/>
      <use x="123.490234" xlink:href="#DejaVuSerif-77"/>
      <use x="209.085938" xlink:href="#DejaVuSerif-65"/>
      <use x="268.265625" xlink:href="#DejaVuSerif-72"/>
      <use x="316.068359" xlink:href="#DejaVuSerif-20"/>
      <use x="347.855469" xlink:href="#DejaVuSerif-2f"/>
      <use x="381.546875" xlink:href="#DejaVuSerif-20"/>
      <use x="413.333984" xlink:href="#DejaVuSerif-57"/>
     </g>
    </g>
   </g>
   <g id="line2d_13">
    <path clip-path="url(#pde97c8ea55)" d="M 61.030113 164.140258 
L 64.429504 164.01733 
L 67.828895 163.894402 
L 71.228287 163.771474 
L 74.627678 163.648547 
L 78.02707 163.525619 
L 81.426461 163.402691 
L 84.825852 163.279763 
L 88.225244 163.156835 
L 91.624635 163.033907 
L 95.024027 162.910979 
L 98.423418 162.788051 
L 101.82281 162.665123 
L 105.222201 162.542195 
L 108.621592 162.419268 
L 112.020984 162.29634 
L 115.420375 162.173412 
L 118.819767 162.050484 
L 122.219158 161.927556 
L 125.618549 161.804628 
L 129.017941 161.6817 
L 132.417332 161.558772 
L 135.816724 161.435844 
L 139.216115 161.312917 
L 142.615507 161.189989 
L 146.014898 161.067061 
L 149.414289 160.944133 
L 152.813681 160.821205 
L 156.213072 160.698277 
L 159.612464 160.575349 
L 163.011855 160.452421 
L 166.411246 160.329493 
L 169.810638 160.206565 
L 173.210029 160.083638 
L 176.609421 159.96071 
L 180.008812 159.837782 
L 183.408204 159.714854 
L 186.807595 159.591926 
L 190.206986 159.468998 
L 193.606378 159.34607 
L 197.005769 159.223142 
L 200.405161 159.100214 
L 203.804552 158.977286 
L 207.203943 158.854359 
L 210.603335 158.731431 
L 214.002726 158.608503 
L 217.402118 158.485575 
L 220.801509 158.362647 
L 224.200901 158.239719 
L 227.600292 158.116791 
L 230.999683 157.993863 
L 234.399075 157.870935 
L 237.798466 157.748008 
L 241.197858 157.62508 
L 244.597249 157.502152 
L 247.99664 157.379224 
L 251.396032 157.256296 
L 254.795423 157.133368 
L 258.194815 157.01044 
L 261.594206 156.887512 
L 264.993598 156.764584 
L 268.392989 156.641656 
L 271.79238 156.518729 
L 275.191772 156.395801 
L 278.591163 156.272873 
L 281.990555 156.149945 
L 285.389946 156.027017 
L 288.789338 155.904089 
L 292.188729 155.781161 
L 295.58812 155.658233 
L 298.987512 155.535305 
L 302.386903 155.412377 
L 305.786295 155.28945 
L 309.185686 155.166522 
L 312.585077 155.043594 
L 315.984469 154.920666 
L 319.38386 154.797738 
L 322.783252 154.67481 
L 326.182643 154.551882 
L 329.582035 154.428954 
L 332.981426 154.306026 
L 336.380817 154.183099 
L 339.780209 154.060171 
L 343.1796 153.937243 
L 346.578992 153.814315 
L 349.978383 153.691387 
L 353.377774 153.568459 
L 356.777166 153.445531 
L 360.176557 153.322603 
L 363.575949 153.199675 
L 366.97534 153.076747 
L 370.374732 152.95382 
L 373.774123 152.830892 
L 377.173514 152.707964 
L 380.572906 152.585036 
L 383.972297 152.462108 
L 387.371689 152.33918 
L 390.77108 152.216252 
L 394.170471 152.093324 
L 397.569863 151.970396 
" style="fill:none;stroke:#2cbdfe;stroke-linecap:square;stroke-width:1.5;"/>
   </g>
   <g id="line2d_14">
    <path clip-path="url(#pde97c8ea55)" d="M 61.030113 142.504948 
L 64.429504 142.504948 
L 67.828895 142.504948 
L 71.228287 142.504948 
L 74.627678 142.504948 
L 78.02707 142.504948 
L 81.426461 142.504948 
L 84.825852 142.504948 
L 88.225244 142.504948 
L 91.624635 142.504948 
L 95.024027 142.504948 
L 98.423418 142.504948 
L 101.82281 142.504948 
L 105.222201 142.504948 
L 108.621592 142.504948 
L 112.020984 142.504948 
L 115.420375 142.504948 
L 118.819767 142.504948 
L 122.219158 142.504948 
L 125.618549 142.504948 
L 129.017941 142.504948 
L 132.417332 142.504948 
L 135.816724 142.504948 
L 139.216115 142.504948 
L 142.615507 142.504948 
L 146.014898 142.504948 
L 149.414289 142.504948 
L 152.813681 142.504948 
L 156.213072 142.504948 
L 159.612464 142.504948 
L 163.011855 142.504948 
L 166.411246 142.504948 
L 169.810638 142.504948 
L 173.210029 142.504948 
L 176.609421 142.504948 
L 180.008812 142.504948 
L 183.408204 142.504948 
L 186.807595 142.504948 
L 190.206986 142.504948 
L 193.606378 142.504948 
L 197.005769 142.504948 
L 200.405161 142.504948 
L 203.804552 142.504948 
L 207.203943 142.504948 
L 210.603335 142.504948 
L 214.002726 142.504948 
L 217.402118 142.504948 
L 220.801509 142.504948 
L 224.200901 142.504948 
L 227.600292 142.504948 
L 230.999683 142.504948 
L 234.399075 142.504948 
L 237.798466 142.504948 
L 241.197858 142.504948 
L 244.597249 142.504948 
L 247.99664 142.504948 
L 251.396032 142.504948 
L 254.795423 142.504948 
L 258.194815 142.504948 
L 261.594206 142.504948 
L 264.993598 142.504948 
L 268.392989 142.504948 
L 271.79238 142.504948 
L 275.191772 142.504948 
L 278.591163 142.504948 
L 281.990555 142.504948 
L 285.389946 142.504948 
L 288.789338 142.504948 
L 292.188729 142.504948 
L 295.58812 142.504948 
L 298.987512 142.504948 
L 302.386903 142.504948 
L 305.786295 142.504948 
L 309.185686 142.504948 
L 312.585077 142.504948 
L 315.984469 142.504948 
L 319.38386 142.504948 
L 322.783252 142.504948 
L 326.182643 142.504948 
L 329.582035 142.504948 
L 332.981426 142.504948 
L 336.380817 142.504948 
L 339.780209 142.504948 
L 343.1796 142.504948 
L 346.578992 142.504948 
L 349.978383 142.504948 
L 353.377774 142.504948 
L 356.777166 142.504948 
L 360.176557 142.504948 
L 363.575949 142.504948 
L 366.97534 142.504948 
L 370.374732 142.504948 
L 373.774123 142.504948 
L 377.173514 142.504948 
L 380.572906 142.504948 
L 383.972297 142.504948 
L 387.371689 142.504948 
L 390.77108 142.504948 
L 394.170471 142.504948 
L 397.569863 142.504948 
" style="fill:none;stroke:#47dbcd;stroke-linecap:square;stroke-width:1.5;"/>
   </g>
   <g id="line2d_15">
    <path clip-path="url(#pde97c8ea55)" d="M 61.030113 164.140258 
L 64.429504 163.935378 
L 67.828895 163.730498 
L 71.228287 163.525619 
L 74.627678 163.320739 
L 78.02707 163.115859 
L 81.426461 162.910979 
L 84.825852 162.706099 
L 88.225244 162.50122 
L 91.624635 162.29634 
L 95.024027 162.09146 
L 98.423418 161.88658 
L 101.82281 161.6817 
L 105.222201 161.47682 
L 108.621592 161.271941 
L 112.020984 161.067061 
L 115.420375 160.862181 
L 118.819767 160.657301 
L 122.219158 160.452421 
L 125.618549 160.247541 
L 129.017941 160.042662 
L 132.417332 159.837782 
L 135.816724 159.632902 
L 139.216115 159.428022 
L 142.615507 159.223142 
L 146.014898 159.018262 
L 149.414289 158.813383 
L 152.813681 158.608503 
L 156.213072 158.403623 
L 159.612464 158.198743 
L 163.011855 157.993863 
L 166.411246 157.788983 
L 169.810638 157.584104 
L 173.210029 157.379224 
L 176.609421 157.174344 
L 180.008812 156.969464 
L 183.408204 156.764584 
L 186.807595 156.559705 
L 190.206986 156.354825 
L 193.606378 156.149945 
L 197.005769 155.945065 
L 200.405161 155.740185 
L 203.804552 155.535305 
L 207.203943 155.330426 
L 210.603335 155.125546 
L 214.002726 154.920666 
L 217.402118 154.715786 
L 220.801509 154.510906 
L 224.200901 154.306026 
L 227.600292 154.101147 
L 230.999683 153.896267 
L 234.399075 153.691387 
L 237.798466 153.486507 
L 241.197858 153.281627 
L 244.597249 153.076747 
L 247.99664 152.871868 
L 251.396032 152.666988 
L 254.795423 152.462108 
L 258.194815 152.257228 
L 261.594206 152.052348 
L 264.993598 151.847468 
L 268.392989 151.642589 
L 271.79238 151.437709 
L 275.191772 151.232829 
L 278.591163 151.027949 
L 281.990555 150.823069 
L 285.389946 150.61819 
L 288.789338 150.41331 
L 292.188729 150.20843 
L 295.58812 150.00355 
L 298.987512 149.79867 
L 302.386903 149.59379 
L 305.786295 149.388911 
L 309.185686 149.184031 
L 312.585077 148.979151 
L 315.984469 148.774271 
L 319.38386 148.569391 
L 322.783252 148.364511 
L 326.182643 148.159632 
L 329.582035 147.954752 
L 332.981426 147.749872 
L 336.380817 147.544992 
L 339.780209 147.340112 
L 343.1796 147.135232 
L 346.578992 146.930353 
L 349.978383 146.725473 
L 353.377774 146.520593 
L 356.777166 146.315713 
L 360.176557 146.110833 
L 363.575949 145.905953 
L 366.97534 145.701074 
L 370.374732 145.496194 
L 373.774123 145.291314 
L 377.173514 145.086434 
L 380.572906 144.881554 
L 383.972297 144.676675 
L 387.371689 144.471795 
L 390.77108 144.266915 
L 394.170471 144.062035 
L 397.569863 143.857155 
" style="fill:none;stroke:#f5b14c;stroke-linecap:square;stroke-width:1.5;"/>
   </g>
   <g id="line2d_16">
    <path clip-path="url(#pde97c8ea55)" d="M 61.030113 164.140258 
L 64.429504 162.665123 
L 67.828895 161.189989 
L 71.228287 159.714854 
L 74.627678 158.239719 
L 78.02707 156.764584 
L 81.426461 155.28945 
L 84.825852 153.814315 
L 88.225244 152.33918 
L 91.624635 150.864045 
L 95.024027 149.388911 
L 98.423418 147.913776 
L 101.82281 146.438641 
L 105.222201 144.963506 
L 108.621592 143.488372 
L 112.020984 142.013237 
L 115.420375 140.538102 
L 118.819767 139.062967 
L 122.219158 137.587832 
L 125.618549 136.112698 
L 129.017941 134.637563 
L 132.417332 133.162428 
L 135.816724 131.687293 
L 139.216115 130.212159 
L 142.615507 128.737024 
L 146.014898 127.261889 
L 149.414289 125.786754 
L 152.813681 124.31162 
L 156.213072 122.836485 
L 159.612464 121.36135 
L 163.011855 119.886215 
L 166.411246 118.411081 
L 169.810638 116.935946 
L 173.210029 115.460811 
L 176.609421 113.985676 
L 180.008812 112.510542 
L 183.408204 111.035407 
L 186.807595 109.560272 
L 190.206986 108.085137 
L 193.606378 106.610003 
L 197.005769 105.134868 
L 200.405161 103.659733 
L 203.804552 102.184598 
L 207.203943 100.709464 
L 210.603335 99.234329 
L 214.002726 97.759194 
L 217.402118 96.284059 
L 220.801509 94.808924 
L 224.200901 93.33379 
L 227.600292 91.858655 
L 230.999683 90.38352 
L 234.399075 88.908385 
L 237.798466 87.433251 
L 241.197858 85.958116 
L 244.597249 84.482981 
L 247.99664 83.007846 
L 251.396032 81.532712 
L 254.795423 80.057577 
L 258.194815 78.582442 
L 261.594206 77.107307 
L 264.993598 75.632173 
L 268.392989 74.157038 
L 271.79238 72.681903 
L 275.191772 71.206768 
L 278.591163 69.731634 
L 281.990555 68.256499 
L 285.389946 66.781364 
L 288.789338 65.306229 
L 292.188729 63.831095 
L 295.58812 62.35596 
L 298.987512 60.880825 
L 302.386903 59.40569 
L 305.786295 57.930556 
L 309.185686 56.455421 
L 312.585077 54.980286 
L 315.984469 53.505151 
L 319.38386 52.030016 
L 322.783252 50.554882 
L 326.182643 49.079747 
L 329.582035 47.604612 
L 332.981426 46.129477 
L 336.380817 44.654343 
L 339.780209 43.179208 
L 343.1796 41.704073 
L 346.578992 40.228938 
L 349.978383 38.753804 
L 353.377774 37.278669 
L 356.777166 35.803534 
L 360.176557 34.328399 
L 363.575949 32.853265 
L 366.97534 31.37813 
L 370.374732 29.902995 
L 373.774123 28.42786 
L 377.173514 26.952726 
L 380.572906 25.477591 
L 383.972297 24.002456 
L 387.371689 22.527321 
L 390.77108 21.052187 
L 394.170471 19.577052 
L 397.569863 18.101917 
" style="fill:none;stroke:#f3a0f2;stroke-linecap:square;stroke-width:1.5;"/>
   </g>
   <g id="line2d_17">
    <path clip-path="url(#pde97c8ea55)" d="M 61.030113 164.140258 
L 64.429504 163.593912 
L 67.828895 163.047566 
L 71.228287 162.50122 
L 74.627678 161.954873 
L 78.02707 161.408527 
L 81.426461 160.862181 
L 84.825852 160.315835 
L 88.225244 159.769488 
L 91.624635 159.223142 
L 95.024027 158.676796 
L 98.423418 158.13045 
L 101.82281 157.584104 
L 105.222201 157.037757 
L 108.621592 156.491411 
L 112.020984 155.945065 
L 115.420375 155.398719 
L 118.819767 154.852373 
L 122.219158 154.306026 
L 125.618549 153.75968 
L 129.017941 153.213334 
L 132.417332 152.666988 
L 135.816724 152.120642 
L 139.216115 151.574295 
L 142.615507 151.027949 
L 146.014898 150.481603 
L 149.414289 149.935257 
L 152.813681 149.388911 
L 156.213072 148.842564 
L 159.612464 148.296218 
L 163.011855 147.749872 
L 166.411246 147.203526 
L 169.810638 146.65718 
L 173.210029 146.110833 
L 176.609421 145.564487 
L 180.008812 145.018141 
L 183.408204 144.471795 
L 186.807595 143.925448 
L 190.206986 143.379102 
L 193.606378 142.832756 
L 197.005769 142.28641 
L 200.405161 141.740064 
L 203.804552 141.193717 
L 207.203943 140.647371 
L 210.603335 140.101025 
L 214.002726 139.554679 
L 217.402118 139.008333 
L 220.801509 138.461986 
L 224.200901 137.91564 
L 227.600292 137.369294 
L 230.999683 136.822948 
L 234.399075 136.276602 
L 237.798466 135.730255 
L 241.197858 135.183909 
L 244.597249 134.637563 
L 247.99664 134.091217 
L 251.396032 133.544871 
L 254.795423 132.998524 
L 258.194815 132.452178 
L 261.594206 131.905832 
L 264.993598 131.359486 
L 268.392989 130.81314 
L 271.79238 130.266793 
L 275.191772 129.720447 
L 278.591163 129.174101 
L 281.990555 128.627755 
L 285.389946 128.081408 
L 288.789338 127.535062 
L 292.188729 126.988716 
L 295.58812 126.44237 
L 298.987512 125.896024 
L 302.386903 125.349677 
L 305.786295 124.803331 
L 309.185686 124.256985 
L 312.585077 123.710639 
L 315.984469 123.164293 
L 319.38386 122.617946 
L 322.783252 122.0716 
L 326.182643 121.525254 
L 329.582035 120.978908 
L 332.981426 120.432562 
L 336.380817 119.886215 
L 339.780209 119.339869 
L 343.1796 118.793523 
L 346.578992 118.247177 
L 349.978383 117.700831 
L 353.377774 117.154484 
L 356.777166 116.608138 
L 360.176557 116.061792 
L 363.575949 115.515446 
L 366.97534 114.9691 
L 370.374732 114.422753 
L 373.774123 113.876407 
L 377.173514 113.330061 
L 380.572906 112.783715 
L 383.972297 112.237368 
L 387.371689 111.691022 
L 390.77108 111.144676 
L 394.170471 110.59833 
L 397.569863 110.051984 
" style="fill:none;stroke:#9d2ec5;stroke-linecap:square;stroke-width:1.5;"/>
   </g>
   <g id="line2d_18">
    <path clip-path="url(#pde97c8ea55)" d="M 61.030113 164.140258 
L 64.429504 162.774393 
L 67.828895 161.408527 
L 71.228287 160.042662 
L 74.627678 158.676796 
L 78.02707 157.310931 
L 81.426461 155.945065 
L 84.825852 154.5792 
L 88.225244 153.213334 
L 91.624635 151.847468 
L 95.024027 150.481603 
L 98.423418 149.115737 
L 101.82281 147.749872 
L 105.222201 146.384006 
L 108.621592 145.018141 
L 112.020984 143.652275 
L 115.420375 142.28641 
L 118.819767 140.920544 
L 122.219158 139.554679 
L 125.618549 138.188813 
L 129.017941 136.822948 
L 132.417332 135.457082 
L 135.816724 134.091217 
L 139.216115 132.725351 
L 142.615507 131.359486 
L 146.014898 129.99362 
L 149.414289 128.627755 
L 152.813681 127.261889 
L 156.213072 125.896024 
L 159.612464 124.530158 
L 163.011855 123.164293 
L 166.411246 121.798427 
L 169.810638 120.432562 
L 173.210029 119.066696 
L 176.609421 117.700831 
L 180.008812 116.334965 
L 183.408204 114.9691 
L 186.807595 113.603234 
L 190.206986 112.237368 
L 193.606378 110.871503 
L 197.005769 109.505637 
L 200.405161 108.139772 
L 203.804552 106.773906 
L 207.203943 105.408041 
L 210.603335 104.042175 
L 214.002726 102.67631 
L 217.402118 101.310444 
L 220.801509 99.944579 
L 224.200901 98.578713 
L 227.600292 97.212848 
L 230.999683 95.846982 
L 234.399075 94.481117 
L 237.798466 93.115251 
L 241.197858 91.749386 
L 244.597249 90.38352 
L 247.99664 89.017655 
L 251.396032 87.651789 
L 254.795423 86.285924 
L 258.194815 84.920058 
L 261.594206 83.554193 
L 264.993598 82.188327 
L 268.392989 80.822462 
L 271.79238 79.456596 
L 275.191772 78.090731 
L 278.591163 76.724865 
L 281.990555 75.359 
L 285.389946 73.993134 
L 288.789338 72.627268 
L 292.188729 71.261403 
L 295.58812 69.895537 
L 298.987512 68.529672 
L 302.386903 67.163806 
L 305.786295 65.797941 
L 309.185686 64.432075 
L 312.585077 63.06621 
L 315.984469 61.700344 
L 319.38386 60.334479 
L 322.783252 58.968613 
L 326.182643 57.602748 
L 329.582035 56.236882 
L 332.981426 54.871017 
L 336.380817 53.505151 
L 339.780209 52.139286 
L 343.1796 50.77342 
L 346.578992 49.407555 
L 349.978383 48.041689 
L 353.377774 46.675824 
L 356.777166 45.309958 
L 360.176557 43.944093 
L 363.575949 42.578227 
L 366.97534 41.212362 
L 370.374732 39.846496 
L 373.774123 38.480631 
L 377.173514 37.114765 
L 380.572906 35.7489 
L 383.972297 34.383034 
L 387.371689 33.017169 
L 390.77108 31.651303 
L 394.170471 30.285437 
L 397.569863 28.919572 
" style="fill:none;stroke:#661d98;stroke-linecap:square;stroke-width:1.5;"/>
   </g>
   <g id="line2d_19">
    <path clip-path="url(#pde97c8ea55)" d="M 61.030113 164.140258 
L 64.429504 164.071965 
L 67.828895 164.003672 
L 71.228287 163.935378 
L 74.627678 163.867085 
L 78.02707 163.798792 
L 81.426461 163.730498 
L 84.825852 163.662205 
L 88.225244 163.593912 
L 91.624635 163.525619 
L 95.024027 163.457325 
L 98.423418 163.389032 
L 101.82281 163.320739 
L 105.222201 163.252446 
L 108.621592 163.184152 
L 112.020984 163.115859 
L 115.420375 163.047566 
L 118.819767 162.979272 
L 122.219158 162.910979 
L 125.618549 162.842686 
L 129.017941 162.774393 
L 132.417332 162.706099 
L 135.816724 162.637806 
L 139.216115 162.569513 
L 142.615507 162.50122 
L 146.014898 162.432926 
L 149.414289 162.364633 
L 152.813681 162.29634 
L 156.213072 162.228046 
L 159.612464 162.159753 
L 163.011855 162.09146 
L 166.411246 162.023167 
L 169.810638 161.954873 
L 173.210029 161.88658 
L 176.609421 161.818287 
L 180.008812 161.749993 
L 183.408204 161.6817 
L 186.807595 161.613407 
L 190.206986 161.545114 
L 193.606378 161.47682 
L 197.005769 161.408527 
L 200.405161 161.340234 
L 203.804552 161.271941 
L 207.203943 161.203647 
L 210.603335 161.135354 
L 214.002726 161.067061 
L 217.402118 160.998767 
L 220.801509 160.930474 
L 224.200901 160.862181 
L 227.600292 160.793888 
L 230.999683 160.725594 
L 234.399075 160.657301 
L 237.798466 160.589008 
L 241.197858 160.520715 
L 244.597249 160.452421 
L 247.99664 160.384128 
L 251.396032 160.315835 
L 254.795423 160.247541 
L 258.194815 160.179248 
L 261.594206 160.110955 
L 264.993598 160.042662 
L 268.392989 159.974368 
L 271.79238 159.906075 
L 275.191772 159.837782 
L 278.591163 159.769488 
L 281.990555 159.701195 
L 285.389946 159.632902 
L 288.789338 159.564609 
L 292.188729 159.496315 
L 295.58812 159.428022 
L 298.987512 159.359729 
L 302.386903 159.291436 
L 305.786295 159.223142 
L 309.185686 159.154849 
L 312.585077 159.086556 
L 315.984469 159.018262 
L 319.38386 158.949969 
L 322.783252 158.881676 
L 326.182643 158.813383 
L 329.582035 158.745089 
L 332.981426 158.676796 
L 336.380817 158.608503 
L 339.780209 158.54021 
L 343.1796 158.471916 
L 346.578992 158.403623 
L 349.978383 158.33533 
L 353.377774 158.267036 
L 356.777166 158.198743 
L 360.176557 158.13045 
L 363.575949 158.062157 
L 366.97534 157.993863 
L 370.374732 157.92557 
L 373.774123 157.857277 
L 377.173514 157.788983 
L 380.572906 157.72069 
L 383.972297 157.652397 
L 387.371689 157.584104 
L 390.77108 157.51581 
L 394.170471 157.447517 
L 397.569863 157.379224 
" style="fill:none;stroke:#808080;stroke-linecap:square;stroke-width:1.5;"/>
   </g>
   <g id="patch_3">
    <path d="M 44.203125 171.442175 
L 44.203125 10.8 
" style="fill:none;stroke:#000000;stroke-linecap:square;stroke-linejoin:miter;"/>
   </g>
   <g id="patch_4">
    <path d="M 414.39685 171.442175 
L 414.39685 10.8 
" style="fill:none;stroke:#000000;stroke-linecap:square;stroke-linejoin:miter;"/>
   </g>
   <g id="patch_5">
    <path d="M 44.203125 171.442175 
L 414.39685 171.442175 
" style="fill:none;stroke:#000000;stroke-linecap:square;stroke-linejoin:miter;"/>
   </g>
   <g id="patch_6">
    <path d="M 44.203125 10.8 
L 414.39685 10.8 
" style="fill:none;stroke:#000000;stroke-linecap:square;stroke-linejoin:miter;"/>
   </g>
   <g id="legend_1">
    <g id="line2d_20">
     <path d="M 53.203125 23.898438 
L 73.203125 23.898438 
" style="fill:none;stroke:#2cbdfe;stroke-linecap:square;stroke-width:1.5;"/>
    </g>
    <g id="line2d_21"/>
    <g id="text_15">
     <!-- FD -->
     <g transform="translate(81.203125 27.398438)scale(0.1 -0.1)">
      <defs>
       <path d="M 1581 331 
L 2163 331 
Q 3072 331 3558 850 
Q 4044 1369 4044 2338 
Q 4044 3306 3559 3818 
Q 3075 4331 2163 4331 
L 1581 4331 
L 1581 331 
z
M 353 0 
L 353 331 
L 947 331 
L 947 4331 
L 353 4331 
L 353 4666 
L 2209 4666 
Q 3416 4666 4089 4050 
Q 4763 3434 4763 2338 
Q 4763 1238 4088 619 
Q 3413 0 2209 0 
L 353 0 
z
" id="DejaVuSerif-44" transform="scale(0.015625)"/>
      </defs>
      <use xlink:href="#DejaVuSerif-46"/>
      <use x="69.384766" xlink:href="#DejaVuSerif-44"/>
     </g>
    </g>
    <g id="line2d_22">
     <path d="M 53.203125 38.576563 
L 73.203125 38.576563 
" style="fill:none;stroke:#47dbcd;stroke-linecap:square;stroke-width:1.5;"/>
    </g>
    <g id="line2d_23"/>
    <g id="text_16">
     <!-- CPU -->
     <g transform="translate(81.203125 42.076563)scale(0.1 -0.1)">
      <defs>
       <path d="M 4513 1234 
Q 4306 581 3820 245 
Q 3334 -91 2591 -91 
Q 2134 -91 1743 65 
Q 1353 222 1050 525 
Q 700 875 529 1320 
Q 359 1766 359 2328 
Q 359 3416 987 4083 
Q 1616 4750 2644 4750 
Q 3025 4750 3456 4650 
Q 3888 4550 4384 4347 
L 4384 3272 
L 4031 3272 
Q 3916 3859 3567 4137 
Q 3219 4416 2591 4416 
Q 1844 4416 1459 3886 
Q 1075 3356 1075 2328 
Q 1075 1303 1459 773 
Q 1844 244 2591 244 
Q 3113 244 3450 492 
Q 3788 741 3938 1234 
L 4513 1234 
z
" id="DejaVuSerif-43" transform="scale(0.015625)"/>
       <path d="M 897 4331 
L 300 4331 
L 300 4666 
L 2125 4666 
L 2125 4331 
L 1528 4331 
L 1528 1919 
Q 1528 1025 1820 672 
Q 2113 319 2828 319 
Q 3544 319 3836 672 
Q 4128 1025 4128 1919 
L 4128 4331 
L 3531 4331 
L 3531 4666 
L 5106 4666 
L 5106 4331 
L 4513 4331 
L 4513 1856 
Q 4513 791 4103 350 
Q 3694 -91 2713 -91 
Q 1731 -91 1314 353 
Q 897 797 897 1856 
L 897 4331 
z
" id="DejaVuSerif-55" transform="scale(0.015625)"/>
      </defs>
      <use xlink:href="#DejaVuSerif-43"/>
      <use x="76.513672" xlink:href="#DejaVuSerif-50"/>
      <use x="142.048828" xlink:href="#DejaVuSerif-55"/>
     </g>
    </g>
    <g id="line2d_24">
     <path d="M 53.203125 53.254688 
L 73.203125 53.254688 
" style="fill:none;stroke:#f5b14c;stroke-linecap:square;stroke-width:1.5;"/>
    </g>
    <g id="line2d_25"/>
    <g id="text_17">
     <!-- FEC -->
     <g transform="translate(81.203125 56.754688)scale(0.1 -0.1)">
      <defs>
       <path d="M 353 0 
L 353 331 
L 947 331 
L 947 4331 
L 353 4331 
L 353 4666 
L 4109 4666 
L 4109 3628 
L 3725 3628 
L 3725 4281 
L 1581 4281 
L 1581 2719 
L 3109 2719 
L 3109 3303 
L 3494 3303 
L 3494 1753 
L 3109 1753 
L 3109 2338 
L 1581 2338 
L 1581 384 
L 3775 384 
L 3775 1038 
L 4159 1038 
L 4159 0 
L 353 0 
z
" id="DejaVuSerif-45" transform="scale(0.015625)"/>
      </defs>
      <use xlink:href="#DejaVuSerif-46"/>
      <use x="69.384766" xlink:href="#DejaVuSerif-45"/>
      <use x="142.382812" xlink:href="#DejaVuSerif-43"/>
     </g>
    </g>
    <g id="line2d_26">
     <path d="M 123.835938 23.898438 
L 143.835938 23.898438 
" style="fill:none;stroke:#f3a0f2;stroke-linecap:square;stroke-width:1.5;"/>
    </g>
    <g id="line2d_27"/>
    <g id="text_18">
     <!-- FD (NL) -->
     <g transform="translate(151.835938 27.398438)scale(0.1 -0.1)">
      <defs>
       <path d="M 2041 -997 
Q 1281 -656 893 83 
Q 506 822 506 1931 
Q 506 3044 893 3783 
Q 1281 4522 2041 4863 
L 2041 4556 
Q 1559 4225 1350 3623 
Q 1141 3022 1141 1931 
Q 1141 844 1350 242 
Q 1559 -359 2041 -691 
L 2041 -997 
z
" id="DejaVuSerif-28" transform="scale(0.015625)"/>
       <path d="M 313 0 
L 313 331 
L 941 331 
L 941 4331 
L 313 4331 
L 313 4666 
L 1509 4666 
L 4306 984 
L 4306 4331 
L 3681 4331 
L 3681 4666 
L 5319 4666 
L 5319 4331 
L 4691 4331 
L 4691 -91 
L 4313 -91 
L 1325 3841 
L 1325 331 
L 1953 331 
L 1953 0 
L 313 0 
z
" id="DejaVuSerif-4e" transform="scale(0.015625)"/>
       <path d="M 353 0 
L 353 331 
L 947 331 
L 947 4331 
L 353 4331 
L 353 4666 
L 2175 4666 
L 2175 4331 
L 1581 4331 
L 1581 384 
L 3713 384 
L 3713 1166 
L 4097 1166 
L 4097 0 
L 353 0 
z
" id="DejaVuSerif-4c" transform="scale(0.015625)"/>
       <path d="M 453 -997 
L 453 -691 
Q 934 -359 1145 242 
Q 1356 844 1356 1931 
Q 1356 3022 1145 3623 
Q 934 4225 453 4556 
L 453 4863 
Q 1216 4522 1603 3783 
Q 1991 3044 1991 1931 
Q 1991 822 1603 83 
Q 1216 -656 453 -997 
z
" id="DejaVuSerif-29" transform="scale(0.015625)"/>
      </defs>
      <use xlink:href="#DejaVuSerif-46"/>
      <use x="69.384766" xlink:href="#DejaVuSerif-44"/>
      <use x="149.560547" xlink:href="#DejaVuSerif-20"/>
      <use x="181.347656" xlink:href="#DejaVuSerif-28"/>
      <use x="220.361328" xlink:href="#DejaVuSerif-4e"/>
      <use x="307.861328" xlink:href="#DejaVuSerif-4c"/>
      <use x="374.267578" xlink:href="#DejaVuSerif-29"/>
     </g>
    </g>
    <g id="line2d_28">
     <path d="M 123.835938 38.576563 
L 143.835938 38.576563 
" style="fill:none;stroke:#9d2ec5;stroke-linecap:square;stroke-width:1.5;"/>
    </g>
    <g id="line2d_29"/>
    <g id="text_19">
     <!-- OFDM -->
     <g transform="translate(151.835938 42.076563)scale(0.1 -0.1)">
      <defs>
       <path d="M 2625 244 
Q 3391 244 3781 770 
Q 4172 1297 4172 2328 
Q 4172 3363 3781 3889 
Q 3391 4416 2625 4416 
Q 1856 4416 1465 3889 
Q 1075 3363 1075 2328 
Q 1075 1297 1465 770 
Q 1856 244 2625 244 
z
M 2625 -91 
Q 2150 -91 1751 65 
Q 1353 222 1050 525 
Q 700 875 529 1319 
Q 359 1763 359 2328 
Q 359 2894 529 3339 
Q 700 3784 1050 4134 
Q 1356 4441 1750 4595 
Q 2144 4750 2625 4750 
Q 3641 4750 4266 4084 
Q 4891 3419 4891 2328 
Q 4891 1769 4719 1320 
Q 4547 872 4197 525 
Q 3891 219 3497 64 
Q 3103 -91 2625 -91 
z
" id="DejaVuSerif-4f" transform="scale(0.015625)"/>
      </defs>
      <use xlink:href="#DejaVuSerif-4f"/>
      <use x="81.982422" xlink:href="#DejaVuSerif-46"/>
      <use x="151.367188" xlink:href="#DejaVuSerif-44"/>
      <use x="231.542969" xlink:href="#DejaVuSerif-4d"/>
     </g>
    </g>
    <g id="line2d_30">
     <path d="M 213.164062 23.898438 
L 233.164062 23.898438 
" style="fill:none;stroke:#661d98;stroke-linecap:square;stroke-width:1.5;"/>
    </g>
    <g id="line2d_31"/>
    <g id="text_20">
     <!-- Filter -->
     <g transform="translate(241.164062 27.398438)scale(0.1 -0.1)">
      <defs>
       <path d="M 622 4353 
Q 622 4497 726 4603 
Q 831 4709 978 4709 
Q 1122 4709 1226 4603 
Q 1331 4497 1331 4353 
Q 1331 4206 1228 4103 
Q 1125 4000 978 4000 
Q 831 4000 726 4103 
Q 622 4206 622 4353 
z
M 1356 331 
L 1900 331 
L 1900 0 
L 231 0 
L 231 331 
L 781 331 
L 781 2988 
L 231 2988 
L 231 3322 
L 1356 3322 
L 1356 331 
z
" id="DejaVuSerif-69" transform="scale(0.015625)"/>
       <path d="M 1313 331 
L 1856 331 
L 1856 0 
L 184 0 
L 184 331 
L 738 331 
L 738 4531 
L 184 4531 
L 184 4863 
L 1313 4863 
L 1313 331 
z
" id="DejaVuSerif-6c" transform="scale(0.015625)"/>
       <path d="M 691 2988 
L 184 2988 
L 184 3322 
L 691 3322 
L 691 4353 
L 1269 4353 
L 1269 3322 
L 2350 3322 
L 2350 2988 
L 1269 2988 
L 1269 878 
Q 1269 456 1350 337 
Q 1431 219 1650 219 
Q 1875 219 1978 351 
Q 2081 484 2088 781 
L 2522 781 
Q 2497 328 2275 118 
Q 2053 -91 1600 -91 
Q 1103 -91 897 129 
Q 691 350 691 878 
L 691 2988 
z
" id="DejaVuSerif-74" transform="scale(0.015625)"/>
      </defs>
      <use xlink:href="#DejaVuSerif-46"/>
      <use x="69.384766" xlink:href="#DejaVuSerif-69"/>
      <use x="101.367188" xlink:href="#DejaVuSerif-6c"/>
      <use x="133.349609" xlink:href="#DejaVuSerif-74"/>
      <use x="173.535156" xlink:href="#DejaVuSerif-65"/>
      <use x="232.714844" xlink:href="#DejaVuSerif-72"/>
     </g>
    </g>
    <g id="line2d_32">
     <path d="M 213.164062 38.576563 
L 233.164062 38.576563 
" style="fill:none;stroke:#808080;stroke-linecap:square;stroke-width:1.5;"/>
    </g>
    <g id="line2d_33"/>
    <g id="text_21">
     <!-- DPD -->
     <g transform="translate(241.164062 42.076563)scale(0.1 -0.1)">
      <use xlink:href="#DejaVuSerif-44"/>
      <use x="80.175781" xlink:href="#DejaVuSerif-50"/>
      <use x="147.460938" xlink:href="#DejaVuSerif-44"/>
     </g>
    </g>
   </g>
  </g>
 </g>
 <defs>
  <clipPath id="pde97c8ea55">
   <rect height="160.642175" width="370.193725" x="44.203125" y="10.8"/>
  </clipPath>
 </defs>
</svg>
