<?xml version="1.0" encoding="utf-8" standalone="no"?>
<!DOCTYPE svg PUBLIC "-//W3C//DTD SVG 1.1//EN"
  "http://www.w3.org/Graphics/SVG/1.1/DTD/svg11.dtd">
<svg height="424.8pt" version="1.1" viewBox="0 0 424.8 424.8" width="424.8pt" xmlns="http://www.w3.org/2000/svg" xmlns:xlink="http://www.w3.org/1999/xlink">
 <metadata>
  <rdf:RDF xmlns:cc="http://creativecommons.org/ns#" xmlns:dc="http://purl.org/dc/elements/1.1/" xmlns:rdf="http://www.w3.org/1999/02/22-rdf-syntax-ns#">
   <cc:Work>
    <dc:type rdf:resource="http://purl.org/dc/dcmitype/StillImage"/>
    <dc:date>2024-06-17T16:07:38.404194</dc:date>
    <dc:format>image/svg+xml</dc:format>
    <dc:creator>
     <cc:Agent>
      <dc:title>Matplotlib v3.4.3, https://matplotlib.org/</dc:title>
     </cc:Agent>
    </dc:creator>
   </cc:Work>
  </rdf:RDF>
 </metadata>
 <defs>
  <style type="text/css">*{stroke-linecap:butt;stroke-linejoin:round;}</style>
 </defs>
 <g id="figure_1">
  <g id="patch_1">
   <path d="M 0 424.8 
L 424.8 424.8 
L 424.8 0 
L 0 0 
z
" style="fill:#ffffff;"/>
  </g>
  <g id="axes_1">
   <g id="patch_2">
    <path d="M 56.928125 383.64375 
L 414 383.64375 
L 414 10.8 
L 56.928125 10.8 
z
" style="fill:#ffffff;"/>
   </g>
   <g id="matplotlib.axis_1">
    <g id="xtick_1">
     <g id="line2d_1">
      <defs>
       <path d="M 0 0 
L 0 3.5 
" id="m94585c9292" style="stroke:#000000;stroke-width:0.8;"/>
      </defs>
      <g>
       <use style="stroke:#000000;stroke-width:0.8;" x="73.158665" xlink:href="#m94585c9292" y="383.64375"/>
      </g>
     </g>
     <g id="text_1">
      <!-- 0 -->
      <g transform="translate(69.977415 398.242188)scale(0.1 -0.1)">
       <defs>
        <path d="M 2034 219 
Q 2513 219 2750 744 
Q 2988 1269 2988 2328 
Q 2988 3391 2750 3916 
Q 2513 4441 2034 4441 
Q 1556 4441 1318 3916 
Q 1081 3391 1081 2328 
Q 1081 1269 1318 744 
Q 1556 219 2034 219 
z
M 2034 -91 
Q 1275 -91 848 546 
Q 422 1184 422 2328 
Q 422 3475 848 4112 
Q 1275 4750 2034 4750 
Q 2797 4750 3222 4112 
Q 3647 3475 3647 2328 
Q 3647 1184 3222 546 
Q 2797 -91 2034 -91 
z
" id="DejaVuSerif-30" transform="scale(0.015625)"/>
       </defs>
       <use xlink:href="#DejaVuSerif-30"/>
      </g>
     </g>
    </g>
    <g id="xtick_2">
     <g id="line2d_2">
      <g>
       <use style="stroke:#000000;stroke-width:0.8;" x="137.629528" xlink:href="#m94585c9292" y="383.64375"/>
      </g>
     </g>
     <g id="text_2">
      <!-- 20 -->
      <g transform="translate(131.267028 398.242188)scale(0.1 -0.1)">
       <defs>
        <path d="M 819 3553 
L 469 3553 
L 469 4384 
Q 803 4563 1142 4656 
Q 1481 4750 1806 4750 
Q 2534 4750 2956 4397 
Q 3378 4044 3378 3438 
Q 3378 2753 2422 1800 
Q 2347 1728 2309 1691 
L 1131 513 
L 3078 513 
L 3078 1088 
L 3444 1088 
L 3444 0 
L 434 0 
L 434 341 
L 1850 1753 
Q 2319 2222 2519 2614 
Q 2719 3006 2719 3438 
Q 2719 3909 2473 4175 
Q 2228 4441 1797 4441 
Q 1350 4441 1106 4219 
Q 863 3997 819 3553 
z
" id="DejaVuSerif-32" transform="scale(0.015625)"/>
       </defs>
       <use xlink:href="#DejaVuSerif-32"/>
       <use x="63.623047" xlink:href="#DejaVuSerif-30"/>
      </g>
     </g>
    </g>
    <g id="xtick_3">
     <g id="line2d_3">
      <g>
       <use style="stroke:#000000;stroke-width:0.8;" x="202.100391" xlink:href="#m94585c9292" y="383.64375"/>
      </g>
     </g>
     <g id="text_3">
      <!-- 40 -->
      <g transform="translate(195.737891 398.242188)scale(0.1 -0.1)">
       <defs>
        <path d="M 2234 1581 
L 2234 4063 
L 641 1581 
L 2234 1581 
z
M 3609 0 
L 1484 0 
L 1484 331 
L 2234 331 
L 2234 1247 
L 197 1247 
L 197 1588 
L 2241 4750 
L 2859 4750 
L 2859 1581 
L 3750 1581 
L 3750 1247 
L 2859 1247 
L 2859 331 
L 3609 331 
L 3609 0 
z
" id="DejaVuSerif-34" transform="scale(0.015625)"/>
       </defs>
       <use xlink:href="#DejaVuSerif-34"/>
       <use x="63.623047" xlink:href="#DejaVuSerif-30"/>
      </g>
     </g>
    </g>
    <g id="xtick_4">
     <g id="line2d_4">
      <g>
       <use style="stroke:#000000;stroke-width:0.8;" x="266.571254" xlink:href="#m94585c9292" y="383.64375"/>
      </g>
     </g>
     <g id="text_4">
      <!-- 60 -->
      <g transform="translate(260.208754 398.242188)scale(0.1 -0.1)">
       <defs>
        <path d="M 2094 219 
Q 2534 219 2771 542 
Q 3009 866 3009 1472 
Q 3009 2078 2771 2401 
Q 2534 2725 2094 2725 
Q 1647 2725 1412 2412 
Q 1178 2100 1178 1509 
Q 1178 888 1415 553 
Q 1653 219 2094 219 
z
M 1075 2569 
Q 1288 2803 1556 2918 
Q 1825 3034 2163 3034 
Q 2859 3034 3264 2615 
Q 3669 2197 3669 1472 
Q 3669 763 3233 336 
Q 2797 -91 2069 -91 
Q 1278 -91 853 498 
Q 428 1088 428 2181 
Q 428 3406 931 4078 
Q 1434 4750 2350 4750 
Q 2597 4750 2869 4703 
Q 3141 4656 3425 4563 
L 3425 3794 
L 3072 3794 
Q 3034 4109 2831 4275 
Q 2628 4441 2284 4441 
Q 1678 4441 1381 3981 
Q 1084 3522 1075 2569 
z
" id="DejaVuSerif-36" transform="scale(0.015625)"/>
       </defs>
       <use xlink:href="#DejaVuSerif-36"/>
       <use x="63.623047" xlink:href="#DejaVuSerif-30"/>
      </g>
     </g>
    </g>
    <g id="xtick_5">
     <g id="line2d_5">
      <g>
       <use style="stroke:#000000;stroke-width:0.8;" x="331.042117" xlink:href="#m94585c9292" y="383.64375"/>
      </g>
     </g>
     <g id="text_5">
      <!-- 80 -->
      <g transform="translate(324.679617 398.242188)scale(0.1 -0.1)">
       <defs>
        <path d="M 2981 1275 
Q 2981 1775 2732 2051 
Q 2484 2328 2034 2328 
Q 1584 2328 1336 2051 
Q 1088 1775 1088 1275 
Q 1088 772 1336 495 
Q 1584 219 2034 219 
Q 2484 219 2732 495 
Q 2981 772 2981 1275 
z
M 2853 3541 
Q 2853 3966 2637 4203 
Q 2422 4441 2034 4441 
Q 1650 4441 1433 4203 
Q 1216 3966 1216 3541 
Q 1216 3113 1433 2875 
Q 1650 2638 2034 2638 
Q 2422 2638 2637 2875 
Q 2853 3113 2853 3541 
z
M 2516 2484 
Q 3047 2413 3344 2092 
Q 3641 1772 3641 1275 
Q 3641 619 3225 264 
Q 2809 -91 2034 -91 
Q 1263 -91 845 264 
Q 428 619 428 1275 
Q 428 1772 725 2092 
Q 1022 2413 1556 2484 
Q 1084 2569 832 2842 
Q 581 3116 581 3541 
Q 581 4103 968 4426 
Q 1356 4750 2034 4750 
Q 2713 4750 3100 4426 
Q 3488 4103 3488 3541 
Q 3488 3116 3236 2842 
Q 2984 2569 2516 2484 
z
" id="DejaVuSerif-38" transform="scale(0.015625)"/>
       </defs>
       <use xlink:href="#DejaVuSerif-38"/>
       <use x="63.623047" xlink:href="#DejaVuSerif-30"/>
      </g>
     </g>
    </g>
    <g id="xtick_6">
     <g id="line2d_6">
      <g>
       <use style="stroke:#000000;stroke-width:0.8;" x="395.51298" xlink:href="#m94585c9292" y="383.64375"/>
      </g>
     </g>
     <g id="text_6">
      <!-- 100 -->
      <g transform="translate(385.96923 398.242188)scale(0.1 -0.1)">
       <defs>
        <path d="M 909 0 
L 909 331 
L 1722 331 
L 1722 4213 
L 781 3603 
L 781 4013 
L 1919 4750 
L 2350 4750 
L 2350 331 
L 3163 331 
L 3163 0 
L 909 0 
z
" id="DejaVuSerif-31" transform="scale(0.015625)"/>
       </defs>
       <use xlink:href="#DejaVuSerif-31"/>
       <use x="63.623047" xlink:href="#DejaVuSerif-30"/>
       <use x="127.246094" xlink:href="#DejaVuSerif-30"/>
      </g>
     </g>
    </g>
    <g id="text_7">
     <!-- Load / % -->
     <g transform="translate(213.338281 411.920313)scale(0.1 -0.1)">
      <defs>
       <path d="M 353 0 
L 353 331 
L 947 331 
L 947 4331 
L 353 4331 
L 353 4666 
L 2175 4666 
L 2175 4331 
L 1581 4331 
L 1581 384 
L 3713 384 
L 3713 1166 
L 4097 1166 
L 4097 0 
L 353 0 
z
" id="DejaVuSerif-4c" transform="scale(0.015625)"/>
       <path d="M 1925 219 
Q 2388 219 2623 584 
Q 2859 950 2859 1663 
Q 2859 2375 2623 2739 
Q 2388 3103 1925 3103 
Q 1463 3103 1227 2739 
Q 991 2375 991 1663 
Q 991 950 1228 584 
Q 1466 219 1925 219 
z
M 1925 -91 
Q 1200 -91 759 389 
Q 319 869 319 1663 
Q 319 2456 758 2934 
Q 1197 3413 1925 3413 
Q 2653 3413 3092 2934 
Q 3531 2456 3531 1663 
Q 3531 869 3092 389 
Q 2653 -91 1925 -91 
z
" id="DejaVuSerif-6f" transform="scale(0.015625)"/>
       <path d="M 2547 1044 
L 2547 1747 
L 1806 1747 
Q 1378 1747 1168 1562 
Q 959 1378 959 997 
Q 959 650 1171 447 
Q 1384 244 1747 244 
Q 2106 244 2326 466 
Q 2547 688 2547 1044 
z
M 3122 2075 
L 3122 331 
L 3634 331 
L 3634 0 
L 2547 0 
L 2547 359 
Q 2356 128 2106 18 
Q 1856 -91 1522 -91 
Q 969 -91 644 203 
Q 319 497 319 997 
Q 319 1513 691 1797 
Q 1063 2081 1741 2081 
L 2547 2081 
L 2547 2309 
Q 2547 2688 2317 2895 
Q 2088 3103 1672 3103 
Q 1328 3103 1125 2947 
Q 922 2791 872 2484 
L 575 2484 
L 575 3156 
Q 875 3284 1158 3348 
Q 1441 3413 1709 3413 
Q 2400 3413 2761 3070 
Q 3122 2728 3122 2075 
z
" id="DejaVuSerif-61" transform="scale(0.015625)"/>
       <path d="M 3359 331 
L 3909 331 
L 3909 0 
L 2784 0 
L 2784 519 
Q 2616 206 2355 57 
Q 2094 -91 1709 -91 
Q 1097 -91 708 395 
Q 319 881 319 1663 
Q 319 2444 706 2928 
Q 1094 3413 1709 3413 
Q 2094 3413 2355 3264 
Q 2616 3116 2784 2803 
L 2784 4531 
L 2241 4531 
L 2241 4863 
L 3359 4863 
L 3359 331 
z
M 2784 1497 
L 2784 1825 
Q 2784 2422 2554 2737 
Q 2325 3053 1888 3053 
Q 1444 3053 1217 2703 
Q 991 2353 991 1663 
Q 991 975 1217 622 
Q 1444 269 1888 269 
Q 2325 269 2554 583 
Q 2784 897 2784 1497 
z
" id="DejaVuSerif-64" transform="scale(0.015625)"/>
       <path id="DejaVuSerif-20" transform="scale(0.015625)"/>
       <path d="M 1656 4666 
L 2156 4666 
L 500 -594 
L 0 -594 
L 1656 4666 
z
" id="DejaVuSerif-2f" transform="scale(0.015625)"/>
       <path d="M 1434 4459 
Q 1159 4459 1004 4200 
Q 850 3941 850 3475 
Q 850 3016 1008 2753 
Q 1166 2491 1434 2491 
Q 1700 2491 1854 2752 
Q 2009 3013 2009 3475 
Q 2009 3938 1854 4198 
Q 1700 4459 1434 4459 
z
M 4653 2169 
Q 4381 2169 4226 1906 
Q 4072 1644 4072 1178 
Q 4072 719 4228 458 
Q 4384 197 4653 197 
Q 4922 197 5075 458 
Q 5228 719 5228 1178 
Q 5228 1641 5073 1905 
Q 4919 2169 4653 2169 
z
M 4653 2450 
Q 5147 2450 5437 2106 
Q 5728 1763 5728 1178 
Q 5728 594 5436 251 
Q 5144 -91 4653 -91 
Q 4153 -91 3862 251 
Q 3572 594 3572 1178 
Q 3572 1766 3864 2108 
Q 4156 2450 4653 2450 
z
M 4263 4750 
L 4738 4750 
L 1819 -91 
L 1344 -91 
L 4263 4750 
z
M 1428 4750 
Q 1922 4750 2215 4408 
Q 2509 4066 2509 3481 
Q 2509 2891 2217 2550 
Q 1925 2209 1428 2209 
Q 931 2209 642 2551 
Q 353 2894 353 3481 
Q 353 4063 643 4406 
Q 934 4750 1428 4750 
z
" id="DejaVuSerif-25" transform="scale(0.015625)"/>
      </defs>
      <use xlink:href="#DejaVuSerif-4c"/>
      <use x="66.40625" xlink:href="#DejaVuSerif-6f"/>
      <use x="126.611328" xlink:href="#DejaVuSerif-61"/>
      <use x="186.230469" xlink:href="#DejaVuSerif-64"/>
      <use x="250.244141" xlink:href="#DejaVuSerif-20"/>
      <use x="282.03125" xlink:href="#DejaVuSerif-2f"/>
      <use x="315.722656" xlink:href="#DejaVuSerif-20"/>
      <use x="347.509766" xlink:href="#DejaVuSerif-25"/>
     </g>
    </g>
   </g>
   <g id="matplotlib.axis_2">
    <g id="ytick_1">
     <g id="line2d_7">
      <defs>
       <path d="M 0 0 
L -3.5 0 
" id="m7737b562ed" style="stroke:#000000;stroke-width:0.8;"/>
      </defs>
      <g>
       <use style="stroke:#000000;stroke-width:0.8;" x="56.928125" xlink:href="#m7737b562ed" y="366.696307"/>
      </g>
     </g>
     <g id="text_8">
      <!-- 0 -->
      <g transform="translate(43.565625 370.495526)scale(0.1 -0.1)">
       <use xlink:href="#DejaVuSerif-30"/>
      </g>
     </g>
    </g>
    <g id="ytick_2">
     <g id="line2d_8">
      <g>
       <use style="stroke:#000000;stroke-width:0.8;" x="56.928125" xlink:href="#m7737b562ed" y="315.363751"/>
      </g>
     </g>
     <g id="text_9">
      <!-- 200 -->
      <g transform="translate(30.840625 319.16297)scale(0.1 -0.1)">
       <use xlink:href="#DejaVuSerif-32"/>
       <use x="63.623047" xlink:href="#DejaVuSerif-30"/>
       <use x="127.246094" xlink:href="#DejaVuSerif-30"/>
      </g>
     </g>
    </g>
    <g id="ytick_3">
     <g id="line2d_9">
      <g>
       <use style="stroke:#000000;stroke-width:0.8;" x="56.928125" xlink:href="#m7737b562ed" y="264.031196"/>
      </g>
     </g>
     <g id="text_10">
      <!-- 400 -->
      <g transform="translate(30.840625 267.830415)scale(0.1 -0.1)">
       <use xlink:href="#DejaVuSerif-34"/>
       <use x="63.623047" xlink:href="#DejaVuSerif-30"/>
       <use x="127.246094" xlink:href="#DejaVuSerif-30"/>
      </g>
     </g>
    </g>
    <g id="ytick_4">
     <g id="line2d_10">
      <g>
       <use style="stroke:#000000;stroke-width:0.8;" x="56.928125" xlink:href="#m7737b562ed" y="212.69864"/>
      </g>
     </g>
     <g id="text_11">
      <!-- 600 -->
      <g transform="translate(30.840625 216.497859)scale(0.1 -0.1)">
       <use xlink:href="#DejaVuSerif-36"/>
       <use x="63.623047" xlink:href="#DejaVuSerif-30"/>
       <use x="127.246094" xlink:href="#DejaVuSerif-30"/>
      </g>
     </g>
    </g>
    <g id="ytick_5">
     <g id="line2d_11">
      <g>
       <use style="stroke:#000000;stroke-width:0.8;" x="56.928125" xlink:href="#m7737b562ed" y="161.366085"/>
      </g>
     </g>
     <g id="text_12">
      <!-- 800 -->
      <g transform="translate(30.840625 165.165304)scale(0.1 -0.1)">
       <use xlink:href="#DejaVuSerif-38"/>
       <use x="63.623047" xlink:href="#DejaVuSerif-30"/>
       <use x="127.246094" xlink:href="#DejaVuSerif-30"/>
      </g>
     </g>
    </g>
    <g id="ytick_6">
     <g id="line2d_12">
      <g>
       <use style="stroke:#000000;stroke-width:0.8;" x="56.928125" xlink:href="#m7737b562ed" y="110.03353"/>
      </g>
     </g>
     <g id="text_13">
      <!-- 1000 -->
      <g transform="translate(24.478125 113.832748)scale(0.1 -0.1)">
       <use xlink:href="#DejaVuSerif-31"/>
       <use x="63.623047" xlink:href="#DejaVuSerif-30"/>
       <use x="127.246094" xlink:href="#DejaVuSerif-30"/>
       <use x="190.869141" xlink:href="#DejaVuSerif-30"/>
      </g>
     </g>
    </g>
    <g id="ytick_7">
     <g id="line2d_13">
      <g>
       <use style="stroke:#000000;stroke-width:0.8;" x="56.928125" xlink:href="#m7737b562ed" y="58.700974"/>
      </g>
     </g>
     <g id="text_14">
      <!-- 1200 -->
      <g transform="translate(24.478125 62.500193)scale(0.1 -0.1)">
       <use xlink:href="#DejaVuSerif-31"/>
       <use x="63.623047" xlink:href="#DejaVuSerif-32"/>
       <use x="127.246094" xlink:href="#DejaVuSerif-30"/>
       <use x="190.869141" xlink:href="#DejaVuSerif-30"/>
      </g>
     </g>
    </g>
    <g id="text_15">
     <!-- Power / W -->
     <g transform="translate(18.398438 223.026563)rotate(-90)scale(0.1 -0.1)">
      <defs>
       <path d="M 1581 2375 
L 2406 2375 
Q 2872 2375 3115 2626 
Q 3359 2878 3359 3353 
Q 3359 3831 3115 4081 
Q 2872 4331 2406 4331 
L 1581 4331 
L 1581 2375 
z
M 353 0 
L 353 331 
L 947 331 
L 947 4331 
L 353 4331 
L 353 4666 
L 2559 4666 
Q 3259 4666 3668 4311 
Q 4078 3956 4078 3353 
Q 4078 2753 3668 2397 
Q 3259 2041 2559 2041 
L 1581 2041 
L 1581 331 
L 2303 331 
L 2303 0 
L 353 0 
z
" id="DejaVuSerif-50" transform="scale(0.015625)"/>
       <path d="M 3072 3322 
L 3922 728 
L 4672 2988 
L 4191 2988 
L 4191 3322 
L 5394 3322 
L 5394 2988 
L 5025 2988 
L 4038 0 
L 3559 0 
L 2741 2484 
L 1919 0 
L 1459 0 
L 475 2988 
L 103 2988 
L 103 3322 
L 1606 3322 
L 1606 2988 
L 1069 2988 
L 1813 728 
L 2669 3322 
L 3072 3322 
z
" id="DejaVuSerif-77" transform="scale(0.015625)"/>
       <path d="M 3469 1600 
L 991 1600 
L 991 1575 
Q 991 903 1244 561 
Q 1497 219 1991 219 
Q 2369 219 2611 417 
Q 2853 616 2950 1006 
L 3413 1006 
Q 3275 459 2904 184 
Q 2534 -91 1931 -91 
Q 1203 -91 761 389 
Q 319 869 319 1663 
Q 319 2450 753 2931 
Q 1188 3413 1894 3413 
Q 2647 3413 3050 2948 
Q 3453 2484 3469 1600 
z
M 2791 1931 
Q 2772 2513 2545 2808 
Q 2319 3103 1894 3103 
Q 1497 3103 1269 2806 
Q 1041 2509 991 1931 
L 2791 1931 
z
" id="DejaVuSerif-65" transform="scale(0.015625)"/>
       <path d="M 3059 3328 
L 3059 2497 
L 2728 2497 
Q 2713 2744 2591 2866 
Q 2469 2988 2234 2988 
Q 1809 2988 1582 2694 
Q 1356 2400 1356 1850 
L 1356 331 
L 2022 331 
L 2022 0 
L 263 0 
L 263 331 
L 781 331 
L 781 2994 
L 231 2994 
L 231 3322 
L 1356 3322 
L 1356 2731 
Q 1525 3078 1790 3245 
Q 2056 3413 2438 3413 
Q 2578 3413 2733 3391 
Q 2888 3369 3059 3328 
z
" id="DejaVuSerif-72" transform="scale(0.015625)"/>
       <path d="M 4878 0 
L 4366 0 
L 3297 3794 
L 2228 0 
L 1716 0 
L 494 4331 
L 31 4331 
L 31 4666 
L 1734 4666 
L 1734 4331 
L 1153 4331 
L 2125 884 
L 3188 4666 
L 3694 4666 
L 4775 844 
L 5753 4331 
L 5216 4331 
L 5216 4666 
L 6559 4666 
L 6559 4331 
L 6100 4331 
L 4878 0 
z
" id="DejaVuSerif-57" transform="scale(0.015625)"/>
      </defs>
      <use xlink:href="#DejaVuSerif-50"/>
      <use x="63.285156" xlink:href="#DejaVuSerif-6f"/>
      <use x="123.490234" xlink:href="#DejaVuSerif-77"/>
      <use x="209.085938" xlink:href="#DejaVuSerif-65"/>
      <use x="268.265625" xlink:href="#DejaVuSerif-72"/>
      <use x="316.068359" xlink:href="#DejaVuSerif-20"/>
      <use x="347.855469" xlink:href="#DejaVuSerif-2f"/>
      <use x="381.546875" xlink:href="#DejaVuSerif-20"/>
      <use x="413.333984" xlink:href="#DejaVuSerif-57"/>
     </g>
    </g>
   </g>
   <g id="line2d_14">
    <path clip-path="url(#pab86c9c63b)" d="M 73.158665 301.479193 
L 76.382208 284.222954 
L 79.605751 278.651412 
L 82.829294 276.650729 
L 86.052837 275.01687 
L 89.276381 273.383011 
L 92.499924 271.662773 
L 95.723467 269.883642 
L 98.94701 268.104511 
L 102.170553 266.32538 
L 105.394096 264.411674 
L 108.617639 262.390241 
L 111.841183 260.368809 
L 115.064726 258.347376 
L 118.288269 256.325943 
L 121.511812 254.449919 
L 124.735355 252.69006 
L 127.958898 250.930202 
L 131.182442 249.170343 
L 134.405985 247.410484 
L 137.629528 245.650626 
L 140.853071 243.890767 
L 144.076614 242.229465 
L 147.300157 240.629601 
L 150.5237 239.029738 
L 153.747244 237.429874 
L 156.970787 235.83001 
L 160.19433 234.230146 
L 163.417873 232.630283 
L 166.641416 231.030419 
L 169.864959 229.430555 
L 173.088502 227.830691 
L 176.312046 226.329336 
L 179.535589 224.856514 
L 182.759132 223.383692 
L 185.982675 221.91087 
L 189.206218 220.438048 
L 192.429761 219.058563 
L 195.653305 217.793525 
L 198.876848 216.528487 
L 202.100391 215.263449 
L 205.323934 213.998411 
L 208.547477 212.733374 
L 211.77102 211.468336 
L 214.994563 210.203298 
L 218.218107 208.939909 
L 221.44165 207.705413 
L 224.665193 206.470917 
L 227.888736 205.236421 
L 231.112279 204.001925 
L 234.335822 202.767429 
L 237.559366 201.532933 
L 240.782909 200.298437 
L 244.006452 199.063941 
L 247.229995 197.829445 
L 250.453538 196.594949 
L 253.677081 195.360453 
L 256.900624 194.13054 
L 260.124168 192.903686 
L 263.347711 191.676833 
L 266.571254 190.449979 
L 269.794797 189.223125 
L 273.01834 187.996272 
L 276.241883 186.769418 
L 279.465427 185.542564 
L 282.68897 184.315711 
L 285.912513 183.088857 
L 289.136056 181.862003 
L 292.359599 180.63515 
L 295.583142 179.451838 
L 298.806685 178.311738 
L 302.030229 177.171638 
L 305.253772 176.031538 
L 308.477315 174.891438 
L 311.700858 173.751338 
L 314.924401 172.611238 
L 318.147944 171.471138 
L 321.371488 170.331038 
L 324.595031 169.190938 
L 327.818574 168.051253 
L 331.042117 166.963716 
L 334.26566 165.876179 
L 337.489203 164.788642 
L 340.712746 163.701105 
L 343.93629 162.613568 
L 347.159833 161.469022 
L 350.383376 160.091507 
L 353.606919 158.713993 
L 356.830462 157.336478 
L 360.054005 155.958964 
L 363.277548 154.581449 
L 366.501092 153.203935 
L 369.724635 151.82642 
L 372.948178 150.678082 
L 376.171721 149.804473 
L 379.395264 148.930864 
L 382.618807 148.057255 
L 385.842351 147.183646 
L 389.065894 146.310037 
" style="fill:none;stroke:#47dbcd;stroke-linecap:square;stroke-width:1.5;"/>
   </g>
   <g id="line2d_15">
    <path clip-path="url(#pab86c9c63b)" d="M 73.158665 364.155345 
L 76.382208 364.094997 
L 79.605751 364.03465 
L 82.829294 363.974302 
L 86.052837 363.913954 
L 89.276381 363.853606 
L 92.499924 363.793258 
L 95.723467 363.73291 
L 98.94701 363.672563 
L 102.170553 363.612215 
L 105.394096 363.551867 
L 108.617639 363.491519 
L 111.841183 363.431171 
L 115.064726 363.370823 
L 118.288269 363.310476 
L 121.511812 363.250128 
L 124.735355 363.18978 
L 127.958898 363.129432 
L 131.182442 363.069084 
L 134.405985 363.008736 
L 137.629528 362.948389 
L 140.853071 362.888041 
L 144.076614 362.827693 
L 147.300157 362.767345 
L 150.5237 362.706997 
L 153.747244 362.646649 
L 156.970787 362.586302 
L 160.19433 362.525954 
L 163.417873 362.465606 
L 166.641416 362.405258 
L 169.864959 362.34491 
L 173.088502 362.284562 
L 176.312046 362.224215 
L 179.535589 362.163867 
L 182.759132 362.103519 
L 185.982675 362.043171 
L 189.206218 361.982823 
L 192.429761 361.922475 
L 195.653305 361.862128 
L 198.876848 361.80178 
L 202.100391 361.741432 
L 205.323934 361.681084 
L 208.547477 361.620736 
L 211.77102 361.560388 
L 214.994563 361.500041 
L 218.218107 361.439693 
L 221.44165 361.379345 
L 224.665193 361.318997 
L 227.888736 361.258649 
L 231.112279 361.198301 
L 234.335822 361.137954 
L 237.559366 361.077606 
L 240.782909 361.017258 
L 244.006452 360.95691 
L 247.229995 360.896562 
L 250.453538 360.836214 
L 253.677081 360.775867 
L 256.900624 360.715519 
L 260.124168 360.655171 
L 263.347711 360.594823 
L 266.571254 360.534475 
L 269.794797 360.474127 
L 273.01834 360.41378 
L 276.241883 360.353432 
L 279.465427 360.293084 
L 282.68897 360.232736 
L 285.912513 360.172388 
L 289.136056 360.11204 
L 292.359599 360.051693 
L 295.583142 359.991345 
L 298.806685 359.930997 
L 302.030229 359.870649 
L 305.253772 359.810301 
L 308.477315 359.749953 
L 311.700858 359.689605 
L 314.924401 359.629258 
L 318.147944 359.56891 
L 321.371488 359.508562 
L 324.595031 359.448214 
L 327.818574 359.387866 
L 331.042117 359.327518 
L 334.26566 359.267171 
L 337.489203 359.206823 
L 340.712746 359.146475 
L 343.93629 359.086127 
L 347.159833 359.025779 
L 350.383376 358.965431 
L 353.606919 358.905084 
L 356.830462 358.844736 
L 360.054005 358.784388 
L 363.277548 358.72404 
L 366.501092 358.663692 
L 369.724635 358.603344 
L 372.948178 358.542997 
L 376.171721 358.482649 
L 379.395264 358.422301 
L 382.618807 358.361953 
L 385.842351 358.301605 
L 389.065894 358.241257 
" style="fill:none;stroke:#2cbdfe;stroke-linecap:square;stroke-width:1.5;"/>
   </g>
   <g id="line2d_16">
    <path clip-path="url(#pab86c9c63b)" d="M 73.158665 366.696307 
L 76.382208 366.640457 
L 79.605751 366.584607 
L 82.829294 366.528757 
L 86.052837 366.472908 
L 89.276381 366.417058 
L 92.499924 366.361208 
L 95.723467 366.305358 
L 98.94701 366.249508 
L 102.170553 366.193658 
L 105.394096 366.137809 
L 108.617639 366.081959 
L 111.841183 366.026109 
L 115.064726 365.970259 
L 118.288269 365.914409 
L 121.511812 365.85856 
L 124.735355 365.80271 
L 127.958898 365.74686 
L 131.182442 365.69101 
L 134.405985 365.63516 
L 137.629528 365.57931 
L 140.853071 365.523461 
L 144.076614 365.467611 
L 147.300157 365.411761 
L 150.5237 365.355911 
L 153.747244 365.300061 
L 156.970787 365.244211 
L 160.19433 365.188362 
L 163.417873 365.132512 
L 166.641416 365.076662 
L 169.864959 365.020812 
L 173.088502 364.964962 
L 176.312046 364.909113 
L 179.535589 364.853263 
L 182.759132 364.797413 
L 185.982675 364.741563 
L 189.206218 364.685713 
L 192.429761 364.629863 
L 195.653305 364.574014 
L 198.876848 364.518164 
L 202.100391 364.462314 
L 205.323934 364.406464 
L 208.547477 364.350614 
L 211.77102 364.294765 
L 214.994563 364.238915 
L 218.218107 364.183065 
L 221.44165 364.127215 
L 224.665193 364.071365 
L 227.888736 364.015515 
L 231.112279 363.959666 
L 234.335822 363.903816 
L 237.559366 363.847966 
L 240.782909 363.792116 
L 244.006452 363.736266 
L 247.229995 363.680417 
L 250.453538 363.624567 
L 253.677081 363.568717 
L 256.900624 363.512867 
L 260.124168 363.457017 
L 263.347711 363.401167 
L 266.571254 363.345318 
L 269.794797 363.289468 
L 273.01834 363.233618 
L 276.241883 363.177768 
L 279.465427 363.121918 
L 282.68897 363.066068 
L 285.912513 363.010219 
L 289.136056 362.954369 
L 292.359599 362.898519 
L 295.583142 362.842669 
L 298.806685 362.786819 
L 302.030229 362.73097 
L 305.253772 362.67512 
L 308.477315 362.61927 
L 311.700858 362.56342 
L 314.924401 362.50757 
L 318.147944 362.45172 
L 321.371488 362.395871 
L 324.595031 362.340021 
L 327.818574 362.284171 
L 331.042117 362.228321 
L 334.26566 362.172471 
L 337.489203 362.116622 
L 340.712746 362.060772 
L 343.93629 362.004922 
L 347.159833 361.949072 
L 350.383376 361.893222 
L 353.606919 361.837372 
L 356.830462 361.781523 
L 360.054005 361.725673 
L 363.277548 361.669823 
L 366.501092 361.613973 
L 369.724635 361.558123 
L 372.948178 361.502274 
L 376.171721 361.446424 
L 379.395264 361.390574 
L 382.618807 361.334724 
L 385.842351 361.278874 
L 389.065894 361.223024 
" style="fill:none;stroke:#f5b14c;stroke-linecap:square;stroke-width:1.5;"/>
   </g>
   <g id="line2d_17">
    <path clip-path="url(#pab86c9c63b)" d="M 73.158665 352.329921 
L 76.382208 348.635102 
L 79.605751 347.426203 
L 82.829294 346.977003 
L 86.052837 346.605846 
L 89.276381 346.234689 
L 92.499924 345.845154 
L 95.723467 345.44309 
L 98.94701 345.041026 
L 102.170553 344.638962 
L 105.394096 344.208268 
L 108.617639 343.754654 
L 111.841183 343.30104 
L 115.064726 342.847426 
L 118.288269 342.393813 
L 121.511812 341.971135 
L 124.735355 341.573171 
L 127.958898 341.175207 
L 131.182442 340.777243 
L 134.405985 340.37928 
L 137.629528 339.981316 
L 140.853071 339.583352 
L 144.076614 339.206356 
L 147.300157 338.842431 
L 150.5237 338.478506 
L 153.747244 338.114581 
L 156.970787 337.750657 
L 160.19433 337.386732 
L 163.417873 337.022807 
L 166.641416 336.658882 
L 169.864959 336.294957 
L 173.088502 335.931032 
L 176.312046 335.588065 
L 179.535589 335.251168 
L 182.759132 334.914271 
L 185.982675 334.577375 
L 189.206218 334.240478 
L 192.429761 333.923439 
L 195.653305 333.630748 
L 198.876848 333.338057 
L 202.100391 333.045367 
L 205.323934 332.752676 
L 208.547477 332.459985 
L 211.77102 332.167295 
L 214.994563 331.874604 
L 218.218107 331.582264 
L 221.44165 331.296071 
L 224.665193 331.009878 
L 227.888736 330.723685 
L 231.112279 330.437492 
L 234.335822 330.1513 
L 237.559366 329.865107 
L 240.782909 329.578914 
L 244.006452 329.292721 
L 247.229995 329.006528 
L 250.453538 328.720335 
L 253.677081 328.434142 
L 256.900624 328.148924 
L 260.124168 327.864357 
L 263.347711 327.57979 
L 266.571254 327.295223 
L 269.794797 327.010656 
L 273.01834 326.726089 
L 276.241883 326.441522 
L 279.465427 326.156955 
L 282.68897 325.872388 
L 285.912513 325.587821 
L 289.136056 325.303254 
L 292.359599 325.018687 
L 295.583142 324.743384 
L 298.806685 324.477274 
L 302.030229 324.211164 
L 305.253772 323.945054 
L 308.477315 323.678943 
L 311.700858 323.412833 
L 314.924401 323.146723 
L 318.147944 322.880613 
L 321.371488 322.614503 
L 324.595031 322.348393 
L 327.818574 322.082371 
L 331.042117 321.827444 
L 334.26566 321.572516 
L 337.489203 321.317589 
L 340.712746 321.062662 
L 343.93629 320.807734 
L 347.159833 320.540678 
L 350.383376 320.224058 
L 353.606919 319.907438 
L 356.830462 319.590818 
L 360.054005 319.274198 
L 363.277548 318.957578 
L 366.501092 318.640957 
L 369.724635 318.324337 
L 372.948178 318.056475 
L 376.171721 317.84706 
L 379.395264 317.637646 
L 382.618807 317.428232 
L 385.842351 317.218818 
L 389.065894 317.009404 
" style="fill:none;stroke:#661d98;stroke-linecap:square;stroke-width:1.5;"/>
   </g>
   <g id="line2d_18">
    <path clip-path="url(#pab86c9c63b)" d="M 73.158665 284.571846 
L 76.382208 263.50459 
L 79.605751 256.607951 
L 82.829294 254.041871 
L 86.052837 251.920657 
L 89.276381 249.799443 
L 92.499924 247.573473 
L 95.723467 245.27608 
L 98.94701 242.978688 
L 102.170553 240.681295 
L 105.394096 238.220697 
L 108.617639 235.629453 
L 111.841183 233.038208 
L 115.064726 230.446964 
L 118.288269 227.85572 
L 121.511812 225.44082 
L 124.735355 223.1668 
L 127.958898 220.89278 
L 131.182442 218.61876 
L 134.405985 216.34474 
L 137.629528 214.07072 
L 140.853071 211.7967 
L 144.076614 209.642205 
L 147.300157 207.562218 
L 150.5237 205.482232 
L 153.747244 203.402246 
L 156.970787 201.322259 
L 160.19433 199.242273 
L 163.417873 197.162287 
L 166.641416 195.0823 
L 169.864959 193.002314 
L 173.088502 190.922328 
L 176.312046 188.961807 
L 179.535589 187.035891 
L 182.759132 185.109975 
L 185.982675 183.184058 
L 189.206218 181.258142 
L 192.429761 179.445419 
L 195.653305 177.771493 
L 198.876848 176.097567 
L 202.100391 174.423641 
L 205.323934 172.749715 
L 208.547477 171.075789 
L 211.77102 169.401863 
L 214.994563 167.727937 
L 218.218107 166.056011 
L 221.44165 164.419124 
L 224.665193 162.782238 
L 227.888736 161.145351 
L 231.112279 159.508464 
L 234.335822 157.871578 
L 237.559366 156.234691 
L 240.782909 154.597804 
L 244.006452 152.960918 
L 247.229995 151.324031 
L 250.453538 149.687145 
L 253.677081 148.050258 
L 256.900624 146.418929 
L 260.124168 144.791311 
L 263.347711 143.163693 
L 266.571254 141.536075 
L 269.794797 139.908456 
L 273.01834 138.280838 
L 276.241883 136.65322 
L 279.465427 135.025601 
L 282.68897 133.397983 
L 285.912513 131.770365 
L 289.136056 130.142746 
L 292.359599 128.515128 
L 295.583142 126.940315 
L 298.806685 125.417907 
L 302.030229 123.8955 
L 305.253772 122.373092 
L 308.477315 120.850684 
L 311.700858 119.328276 
L 314.924401 117.805869 
L 318.147944 116.283461 
L 321.371488 114.761053 
L 324.595031 113.238645 
L 327.818574 111.716741 
L 331.042117 110.258079 
L 334.26566 108.799417 
L 337.489203 107.340755 
L 340.712746 105.882093 
L 343.93629 104.423431 
L 347.159833 102.895631 
L 350.383376 101.085299 
L 353.606919 99.274966 
L 356.830462 97.464634 
L 360.054005 95.654302 
L 363.277548 93.843969 
L 366.501092 92.033637 
L 369.724635 90.223305 
L 372.948178 88.690906 
L 376.171721 87.491685 
L 379.395264 86.292464 
L 382.618807 85.093244 
L 385.842351 83.894023 
L 389.065894 82.694802 
" style="fill:none;stroke:#000000;stroke-dasharray:1.5,2.475;stroke-dashoffset:0;stroke-width:1.5;"/>
   </g>
   <g id="line2d_19">
    <path clip-path="url(#pab86c9c63b)" d="M 73.158665 264.339191 
L 74.738201 249.396284 
L 76.059854 240.872514 
L 78.155157 233.421593 
L 80.766227 230.238975 
L 90.75921 222.839387 
L 103.911266 212.262314 
L 120.190159 197.440038 
L 142.787197 179.458244 
L 174.829216 156.20973 
L 192.171878 144.593173 
L 219.507524 128.775046 
L 256.803918 107.692765 
L 296.195615 85.558167 
L 330.365173 67.658505 
L 349.287371 58.182515 
L 374.495479 42.351555 
L 397.76946 27.747443 
" style="fill:none;stroke:#ff0000;stroke-linecap:square;stroke-width:1.5;"/>
   </g>
   <g id="patch_3">
    <path d="M 56.928125 383.64375 
L 56.928125 10.8 
" style="fill:none;stroke:#000000;stroke-linecap:square;stroke-linejoin:miter;"/>
   </g>
   <g id="patch_4">
    <path d="M 414 383.64375 
L 414 10.8 
" style="fill:none;stroke:#000000;stroke-linecap:square;stroke-linejoin:miter;"/>
   </g>
   <g id="patch_5">
    <path d="M 56.928125 383.64375 
L 414 383.64375 
" style="fill:none;stroke:#000000;stroke-linecap:square;stroke-linejoin:miter;"/>
   </g>
   <g id="patch_6">
    <path d="M 56.928125 10.8 
L 414 10.8 
" style="fill:none;stroke:#000000;stroke-linecap:square;stroke-linejoin:miter;"/>
   </g>
   <g id="legend_1">
    <g id="patch_7">
     <path d="M 63.928125 106.86875 
L 176.554688 106.86875 
Q 178.554688 106.86875 178.554688 104.86875 
L 178.554688 17.8 
Q 178.554688 15.8 176.554688 15.8 
L 63.928125 15.8 
Q 61.928125 15.8 61.928125 17.8 
L 61.928125 104.86875 
Q 61.928125 106.86875 63.928125 106.86875 
z
" style="fill:#ffffff;opacity:0.8;stroke:#cccccc;stroke-linejoin:miter;"/>
    </g>
    <g id="line2d_20">
     <path d="M 65.928125 23.898438 
L 85.928125 23.898438 
" style="fill:none;stroke:#47dbcd;stroke-linecap:square;stroke-width:1.5;"/>
    </g>
    <g id="line2d_21"/>
    <g id="text_16">
     <!-- Power amplifier -->
     <g transform="translate(93.928125 27.398438)scale(0.1 -0.1)">
      <defs>
       <path d="M 3316 2675 
Q 3481 3041 3739 3227 
Q 3997 3413 4341 3413 
Q 4863 3413 5119 3089 
Q 5375 2766 5375 2113 
L 5375 331 
L 5894 331 
L 5894 0 
L 4300 0 
L 4300 331 
L 4800 331 
L 4800 2047 
Q 4800 2556 4650 2772 
Q 4500 2988 4153 2988 
Q 3769 2988 3567 2697 
Q 3366 2406 3366 1850 
L 3366 331 
L 3866 331 
L 3866 0 
L 2291 0 
L 2291 331 
L 2791 331 
L 2791 2069 
Q 2791 2566 2641 2777 
Q 2491 2988 2144 2988 
Q 1759 2988 1557 2697 
Q 1356 2406 1356 1850 
L 1356 331 
L 1856 331 
L 1856 0 
L 263 0 
L 263 331 
L 781 331 
L 781 2994 
L 231 2994 
L 231 3322 
L 1356 3322 
L 1356 2731 
Q 1516 3063 1762 3238 
Q 2009 3413 2322 3413 
Q 2709 3413 2968 3220 
Q 3228 3028 3316 2675 
z
" id="DejaVuSerif-6d" transform="scale(0.015625)"/>
       <path d="M 1313 1825 
L 1313 1497 
Q 1313 897 1542 583 
Q 1772 269 2209 269 
Q 2650 269 2876 622 
Q 3103 975 3103 1663 
Q 3103 2353 2876 2703 
Q 2650 3053 2209 3053 
Q 1772 3053 1542 2737 
Q 1313 2422 1313 1825 
z
M 738 2988 
L 184 2988 
L 184 3322 
L 1313 3322 
L 1313 2803 
Q 1481 3116 1742 3264 
Q 2003 3413 2388 3413 
Q 3000 3413 3387 2928 
Q 3775 2444 3775 1663 
Q 3775 881 3387 395 
Q 3000 -91 2388 -91 
Q 2003 -91 1742 57 
Q 1481 206 1313 519 
L 1313 -997 
L 1856 -997 
L 1856 -1331 
L 184 -1331 
L 184 -997 
L 738 -997 
L 738 2988 
z
" id="DejaVuSerif-70" transform="scale(0.015625)"/>
       <path d="M 1313 331 
L 1856 331 
L 1856 0 
L 184 0 
L 184 331 
L 738 331 
L 738 4531 
L 184 4531 
L 184 4863 
L 1313 4863 
L 1313 331 
z
" id="DejaVuSerif-6c" transform="scale(0.015625)"/>
       <path d="M 622 4353 
Q 622 4497 726 4603 
Q 831 4709 978 4709 
Q 1122 4709 1226 4603 
Q 1331 4497 1331 4353 
Q 1331 4206 1228 4103 
Q 1125 4000 978 4000 
Q 831 4000 726 4103 
Q 622 4206 622 4353 
z
M 1356 331 
L 1900 331 
L 1900 0 
L 231 0 
L 231 331 
L 781 331 
L 781 2988 
L 231 2988 
L 231 3322 
L 1356 3322 
L 1356 331 
z
" id="DejaVuSerif-69" transform="scale(0.015625)"/>
       <path d="M 2753 4078 
L 2450 4078 
Q 2447 4313 2317 4434 
Q 2188 4556 1941 4556 
Q 1619 4556 1487 4379 
Q 1356 4203 1356 3750 
L 1356 3322 
L 2284 3322 
L 2284 2988 
L 1356 2988 
L 1356 331 
L 2094 331 
L 2094 0 
L 231 0 
L 231 331 
L 781 331 
L 781 2988 
L 231 2988 
L 231 3322 
L 781 3322 
L 781 3738 
Q 781 4294 1070 4578 
Q 1359 4863 1919 4863 
Q 2128 4863 2337 4825 
Q 2547 4788 2753 4709 
L 2753 4078 
z
" id="DejaVuSerif-66" transform="scale(0.015625)"/>
      </defs>
      <use xlink:href="#DejaVuSerif-50"/>
      <use x="63.285156" xlink:href="#DejaVuSerif-6f"/>
      <use x="123.490234" xlink:href="#DejaVuSerif-77"/>
      <use x="209.085938" xlink:href="#DejaVuSerif-65"/>
      <use x="268.265625" xlink:href="#DejaVuSerif-72"/>
      <use x="316.068359" xlink:href="#DejaVuSerif-20"/>
      <use x="347.855469" xlink:href="#DejaVuSerif-61"/>
      <use x="407.474609" xlink:href="#DejaVuSerif-6d"/>
      <use x="502.298828" xlink:href="#DejaVuSerif-70"/>
      <use x="566.3125" xlink:href="#DejaVuSerif-6c"/>
      <use x="598.294922" xlink:href="#DejaVuSerif-69"/>
      <use x="630.277344" xlink:href="#DejaVuSerif-66"/>
      <use x="667.289062" xlink:href="#DejaVuSerif-69"/>
      <use x="699.271484" xlink:href="#DejaVuSerif-65"/>
      <use x="758.451172" xlink:href="#DejaVuSerif-72"/>
     </g>
    </g>
    <g id="line2d_22">
     <path d="M 65.928125 38.576563 
L 85.928125 38.576563 
" style="fill:none;stroke:#2cbdfe;stroke-linecap:square;stroke-width:1.5;"/>
    </g>
    <g id="line2d_23"/>
    <g id="text_17">
     <!-- Baseband -->
     <g transform="translate(93.928125 42.076563)scale(0.1 -0.1)">
      <defs>
       <path d="M 1581 331 
L 2516 331 
Q 3078 331 3337 575 
Q 3597 819 3597 1350 
Q 3597 1878 3339 2120 
Q 3081 2363 2516 2363 
L 1581 2363 
L 1581 331 
z
M 1581 2694 
L 2375 2694 
Q 2888 2694 3123 2891 
Q 3359 3088 3359 3513 
Q 3359 3941 3123 4136 
Q 2888 4331 2375 4331 
L 1581 4331 
L 1581 2694 
z
M 353 0 
L 353 331 
L 947 331 
L 947 4331 
L 353 4331 
L 353 4666 
L 2656 4666 
Q 3363 4666 3720 4377 
Q 4078 4088 4078 3513 
Q 4078 3097 3829 2850 
Q 3581 2603 3103 2547 
Q 3697 2472 4005 2167 
Q 4313 1863 4313 1350 
Q 4313 656 3875 328 
Q 3438 0 2509 0 
L 353 0 
z
" id="DejaVuSerif-42" transform="scale(0.015625)"/>
       <path d="M 359 184 
L 359 959 
L 691 959 
Q 703 588 923 403 
Q 1144 219 1575 219 
Q 1963 219 2166 364 
Q 2369 509 2369 788 
Q 2369 1006 2220 1140 
Q 2072 1275 1594 1428 
L 1178 1569 
Q 750 1706 558 1912 
Q 366 2119 366 2438 
Q 366 2894 700 3153 
Q 1034 3413 1625 3413 
Q 1888 3413 2178 3344 
Q 2469 3275 2778 3144 
L 2778 2419 
L 2447 2419 
Q 2434 2741 2221 2922 
Q 2009 3103 1644 3103 
Q 1281 3103 1095 2975 
Q 909 2847 909 2591 
Q 909 2381 1050 2254 
Q 1191 2128 1613 1997 
L 2069 1856 
Q 2541 1709 2748 1489 
Q 2956 1269 2956 922 
Q 2956 450 2595 179 
Q 2234 -91 1600 -91 
Q 1278 -91 972 -22 
Q 666 47 359 184 
z
" id="DejaVuSerif-73" transform="scale(0.015625)"/>
       <path d="M 738 331 
L 738 4531 
L 184 4531 
L 184 4863 
L 1313 4863 
L 1313 2803 
Q 1481 3116 1742 3264 
Q 2003 3413 2388 3413 
Q 3000 3413 3387 2928 
Q 3775 2444 3775 1663 
Q 3775 881 3387 395 
Q 3000 -91 2388 -91 
Q 2003 -91 1742 57 
Q 1481 206 1313 519 
L 1313 0 
L 184 0 
L 184 331 
L 738 331 
z
M 1313 1497 
Q 1313 897 1542 583 
Q 1772 269 2209 269 
Q 2650 269 2876 622 
Q 3103 975 3103 1663 
Q 3103 2353 2876 2703 
Q 2650 3053 2209 3053 
Q 1772 3053 1542 2737 
Q 1313 2422 1313 1825 
L 1313 1497 
z
" id="DejaVuSerif-62" transform="scale(0.015625)"/>
       <path d="M 263 0 
L 263 331 
L 781 331 
L 781 2988 
L 231 2988 
L 231 3322 
L 1356 3322 
L 1356 2731 
Q 1516 3069 1770 3241 
Q 2025 3413 2363 3413 
Q 2913 3413 3172 3097 
Q 3431 2781 3431 2113 
L 3431 331 
L 3944 331 
L 3944 0 
L 2356 0 
L 2356 331 
L 2853 331 
L 2853 1931 
Q 2853 2541 2703 2767 
Q 2553 2994 2175 2994 
Q 1775 2994 1565 2701 
Q 1356 2409 1356 1850 
L 1356 331 
L 1856 331 
L 1856 0 
L 263 0 
z
" id="DejaVuSerif-6e" transform="scale(0.015625)"/>
      </defs>
      <use xlink:href="#DejaVuSerif-42"/>
      <use x="73.486328" xlink:href="#DejaVuSerif-61"/>
      <use x="133.105469" xlink:href="#DejaVuSerif-73"/>
      <use x="184.423828" xlink:href="#DejaVuSerif-65"/>
      <use x="243.603516" xlink:href="#DejaVuSerif-62"/>
      <use x="307.617188" xlink:href="#DejaVuSerif-61"/>
      <use x="367.236328" xlink:href="#DejaVuSerif-6e"/>
      <use x="431.640625" xlink:href="#DejaVuSerif-64"/>
     </g>
    </g>
    <g id="line2d_24">
     <path d="M 65.928125 53.254688 
L 85.928125 53.254688 
" style="fill:none;stroke:#f5b14c;stroke-linecap:square;stroke-width:1.5;"/>
    </g>
    <g id="line2d_25"/>
    <g id="text_18">
     <!-- Radio -->
     <g transform="translate(93.928125 56.754688)scale(0.1 -0.1)">
      <defs>
       <path d="M 3066 2316 
Q 3284 2256 3442 2114 
Q 3600 1972 3725 1716 
L 4403 331 
L 4972 331 
L 4972 0 
L 3872 0 
L 3144 1484 
Q 2934 1916 2759 2042 
Q 2584 2169 2278 2169 
L 1581 2169 
L 1581 331 
L 2241 331 
L 2241 0 
L 353 0 
L 353 331 
L 947 331 
L 947 4331 
L 353 4331 
L 353 4666 
L 2719 4666 
Q 3400 4666 3770 4341 
Q 4141 4016 4141 3419 
Q 4141 2938 3870 2661 
Q 3600 2384 3066 2316 
z
M 1581 2503 
L 2503 2503 
Q 2975 2503 3200 2726 
Q 3425 2950 3425 3419 
Q 3425 3888 3200 4109 
Q 2975 4331 2503 4331 
L 1581 4331 
L 1581 2503 
z
" id="DejaVuSerif-52" transform="scale(0.015625)"/>
      </defs>
      <use xlink:href="#DejaVuSerif-52"/>
      <use x="77.542969" xlink:href="#DejaVuSerif-61"/>
      <use x="137.162109" xlink:href="#DejaVuSerif-64"/>
      <use x="201.175781" xlink:href="#DejaVuSerif-69"/>
      <use x="233.158203" xlink:href="#DejaVuSerif-6f"/>
     </g>
    </g>
    <g id="line2d_26">
     <path d="M 65.928125 67.932813 
L 85.928125 67.932813 
" style="fill:none;stroke:#661d98;stroke-linecap:square;stroke-width:1.5;"/>
    </g>
    <g id="line2d_27"/>
    <g id="text_19">
     <!-- Overhead -->
     <g transform="translate(93.928125 71.432813)scale(0.1 -0.1)">
      <defs>
       <path d="M 2625 244 
Q 3391 244 3781 770 
Q 4172 1297 4172 2328 
Q 4172 3363 3781 3889 
Q 3391 4416 2625 4416 
Q 1856 4416 1465 3889 
Q 1075 3363 1075 2328 
Q 1075 1297 1465 770 
Q 1856 244 2625 244 
z
M 2625 -91 
Q 2150 -91 1751 65 
Q 1353 222 1050 525 
Q 700 875 529 1319 
Q 359 1763 359 2328 
Q 359 2894 529 3339 
Q 700 3784 1050 4134 
Q 1356 4441 1750 4595 
Q 2144 4750 2625 4750 
Q 3641 4750 4266 4084 
Q 4891 3419 4891 2328 
Q 4891 1769 4719 1320 
Q 4547 872 4197 525 
Q 3891 219 3497 64 
Q 3103 -91 2625 -91 
z
" id="DejaVuSerif-4f" transform="scale(0.015625)"/>
       <path d="M 1581 0 
L 359 2988 
L -19 2988 
L -19 3322 
L 1509 3322 
L 1509 2988 
L 978 2988 
L 1913 703 
L 2847 2988 
L 2350 2988 
L 2350 3322 
L 3597 3322 
L 3597 2988 
L 3225 2988 
L 2003 0 
L 1581 0 
z
" id="DejaVuSerif-76" transform="scale(0.015625)"/>
       <path d="M 263 0 
L 263 331 
L 781 331 
L 781 4531 
L 231 4531 
L 231 4863 
L 1356 4863 
L 1356 2731 
Q 1516 3069 1770 3241 
Q 2025 3413 2363 3413 
Q 2913 3413 3172 3097 
Q 3431 2781 3431 2113 
L 3431 331 
L 3944 331 
L 3944 0 
L 2356 0 
L 2356 331 
L 2853 331 
L 2853 1931 
Q 2853 2541 2704 2764 
Q 2556 2988 2175 2988 
Q 1775 2988 1565 2697 
Q 1356 2406 1356 1850 
L 1356 331 
L 1856 331 
L 1856 0 
L 263 0 
z
" id="DejaVuSerif-68" transform="scale(0.015625)"/>
      </defs>
      <use xlink:href="#DejaVuSerif-4f"/>
      <use x="81.982422" xlink:href="#DejaVuSerif-76"/>
      <use x="138.476562" xlink:href="#DejaVuSerif-65"/>
      <use x="197.65625" xlink:href="#DejaVuSerif-72"/>
      <use x="245.458984" xlink:href="#DejaVuSerif-68"/>
      <use x="309.863281" xlink:href="#DejaVuSerif-65"/>
      <use x="369.042969" xlink:href="#DejaVuSerif-61"/>
      <use x="428.662109" xlink:href="#DejaVuSerif-64"/>
     </g>
    </g>
    <g id="line2d_28">
     <path d="M 65.928125 82.610938 
L 85.928125 82.610938 
" style="fill:none;stroke:#000000;stroke-dasharray:1.5,2.475;stroke-dashoffset:0;stroke-width:1.5;"/>
    </g>
    <g id="line2d_29"/>
    <g id="text_20">
     <!-- total -->
     <g transform="translate(93.928125 86.110938)scale(0.1 -0.1)">
      <defs>
       <path d="M 691 2988 
L 184 2988 
L 184 3322 
L 691 3322 
L 691 4353 
L 1269 4353 
L 1269 3322 
L 2350 3322 
L 2350 2988 
L 1269 2988 
L 1269 878 
Q 1269 456 1350 337 
Q 1431 219 1650 219 
Q 1875 219 1978 351 
Q 2081 484 2088 781 
L 2522 781 
Q 2497 328 2275 118 
Q 2053 -91 1600 -91 
Q 1103 -91 897 129 
Q 691 350 691 878 
L 691 2988 
z
" id="DejaVuSerif-74" transform="scale(0.015625)"/>
      </defs>
      <use xlink:href="#DejaVuSerif-74"/>
      <use x="40.185547" xlink:href="#DejaVuSerif-6f"/>
      <use x="100.390625" xlink:href="#DejaVuSerif-74"/>
      <use x="140.576172" xlink:href="#DejaVuSerif-61"/>
      <use x="200.195312" xlink:href="#DejaVuSerif-6c"/>
     </g>
    </g>
    <g id="line2d_30">
     <path d="M 65.928125 97.289063 
L 85.928125 97.289063 
" style="fill:none;stroke:#ff0000;stroke-linecap:square;stroke-width:1.5;"/>
    </g>
    <g id="line2d_31"/>
    <g id="text_21">
     <!-- (Desset et al) -->
     <g transform="translate(93.928125 100.789063)scale(0.1 -0.1)">
      <defs>
       <path d="M 2041 -997 
Q 1281 -656 893 83 
Q 506 822 506 1931 
Q 506 3044 893 3783 
Q 1281 4522 2041 4863 
L 2041 4556 
Q 1559 4225 1350 3623 
Q 1141 3022 1141 1931 
Q 1141 844 1350 242 
Q 1559 -359 2041 -691 
L 2041 -997 
z
" id="DejaVuSerif-28" transform="scale(0.015625)"/>
       <path d="M 1581 331 
L 2163 331 
Q 3072 331 3558 850 
Q 4044 1369 4044 2338 
Q 4044 3306 3559 3818 
Q 3075 4331 2163 4331 
L 1581 4331 
L 1581 331 
z
M 353 0 
L 353 331 
L 947 331 
L 947 4331 
L 353 4331 
L 353 4666 
L 2209 4666 
Q 3416 4666 4089 4050 
Q 4763 3434 4763 2338 
Q 4763 1238 4088 619 
Q 3413 0 2209 0 
L 353 0 
z
" id="DejaVuSerif-44" transform="scale(0.015625)"/>
       <path d="M 453 -997 
L 453 -691 
Q 934 -359 1145 242 
Q 1356 844 1356 1931 
Q 1356 3022 1145 3623 
Q 934 4225 453 4556 
L 453 4863 
Q 1216 4522 1603 3783 
Q 1991 3044 1991 1931 
Q 1991 822 1603 83 
Q 1216 -656 453 -997 
z
" id="DejaVuSerif-29" transform="scale(0.015625)"/>
      </defs>
      <use xlink:href="#DejaVuSerif-28"/>
      <use x="39.013672" xlink:href="#DejaVuSerif-44"/>
      <use x="119.189453" xlink:href="#DejaVuSerif-65"/>
      <use x="178.369141" xlink:href="#DejaVuSerif-73"/>
      <use x="229.6875" xlink:href="#DejaVuSerif-73"/>
      <use x="281.005859" xlink:href="#DejaVuSerif-65"/>
      <use x="340.185547" xlink:href="#DejaVuSerif-74"/>
      <use x="380.371094" xlink:href="#DejaVuSerif-20"/>
      <use x="412.158203" xlink:href="#DejaVuSerif-65"/>
      <use x="471.337891" xlink:href="#DejaVuSerif-74"/>
      <use x="511.523438" xlink:href="#DejaVuSerif-20"/>
      <use x="543.310547" xlink:href="#DejaVuSerif-61"/>
      <use x="602.929688" xlink:href="#DejaVuSerif-6c"/>
      <use x="634.912109" xlink:href="#DejaVuSerif-29"/>
     </g>
    </g>
   </g>
  </g>
 </g>
 <defs>
  <clipPath id="pab86c9c63b">
   <rect height="372.84375" width="357.071875" x="56.928125" y="10.8"/>
  </clipPath>
 </defs>
</svg>
