<?xml version="1.0" encoding="utf-8" standalone="no"?>
<!DOCTYPE svg PUBLIC "-//W3C//DTD SVG 1.1//EN"
  "http://www.w3.org/Graphics/SVG/1.1/DTD/svg11.dtd">
<svg height="424.8pt" version="1.1" viewBox="0 0 424.8 424.8" width="424.8pt" xmlns="http://www.w3.org/2000/svg" xmlns:xlink="http://www.w3.org/1999/xlink">
 <metadata>
  <rdf:RDF xmlns:cc="http://creativecommons.org/ns#" xmlns:dc="http://purl.org/dc/elements/1.1/" xmlns:rdf="http://www.w3.org/1999/02/22-rdf-syntax-ns#">
   <cc:Work>
    <dc:type rdf:resource="http://purl.org/dc/dcmitype/StillImage"/>
    <dc:date>2024-06-17T11:19:17.653338</dc:date>
    <dc:format>image/svg+xml</dc:format>
    <dc:creator>
     <cc:Agent>
      <dc:title>Matplotlib v3.4.3, https://matplotlib.org/</dc:title>
     </cc:Agent>
    </dc:creator>
   </cc:Work>
  </rdf:RDF>
 </metadata>
 <defs>
  <style type="text/css">*{stroke-linecap:butt;stroke-linejoin:round;}</style>
 </defs>
 <g id="figure_1">
  <g id="patch_1">
   <path d="M 0 424.8 
L 424.8 424.8 
L 424.8 0 
L 0 0 
z
" style="fill:#ffffff;"/>
  </g>
  <g id="axes_1">
   <g id="patch_2">
    <path d="M 56.928125 383.64375 
L 414 383.64375 
L 414 10.8 
L 56.928125 10.8 
z
" style="fill:#ffffff;"/>
   </g>
   <g id="matplotlib.axis_1">
    <g id="xtick_1">
     <g id="line2d_1">
      <defs>
       <path d="M 0 0 
L 0 3.5 
" id="m964243a8cd" style="stroke:#000000;stroke-width:0.8;"/>
      </defs>
      <g>
       <use style="stroke:#000000;stroke-width:0.8;" x="73.158665" xlink:href="#m964243a8cd" y="383.64375"/>
      </g>
     </g>
     <g id="text_1">
      <!-- 0 -->
      <g transform="translate(69.977415 398.242188)scale(0.1 -0.1)">
       <defs>
        <path d="M 2034 219 
Q 2513 219 2750 744 
Q 2988 1269 2988 2328 
Q 2988 3391 2750 3916 
Q 2513 4441 2034 4441 
Q 1556 4441 1318 3916 
Q 1081 3391 1081 2328 
Q 1081 1269 1318 744 
Q 1556 219 2034 219 
z
M 2034 -91 
Q 1275 -91 848 546 
Q 422 1184 422 2328 
Q 422 3475 848 4112 
Q 1275 4750 2034 4750 
Q 2797 4750 3222 4112 
Q 3647 3475 3647 2328 
Q 3647 1184 3222 546 
Q 2797 -91 2034 -91 
z
" id="DejaVuSerif-30" transform="scale(0.015625)"/>
       </defs>
       <use xlink:href="#DejaVuSerif-30"/>
      </g>
     </g>
    </g>
    <g id="xtick_2">
     <g id="line2d_2">
      <g>
       <use style="stroke:#000000;stroke-width:0.8;" x="137.629528" xlink:href="#m964243a8cd" y="383.64375"/>
      </g>
     </g>
     <g id="text_2">
      <!-- 20 -->
      <g transform="translate(131.267028 398.242188)scale(0.1 -0.1)">
       <defs>
        <path d="M 819 3553 
L 469 3553 
L 469 4384 
Q 803 4563 1142 4656 
Q 1481 4750 1806 4750 
Q 2534 4750 2956 4397 
Q 3378 4044 3378 3438 
Q 3378 2753 2422 1800 
Q 2347 1728 2309 1691 
L 1131 513 
L 3078 513 
L 3078 1088 
L 3444 1088 
L 3444 0 
L 434 0 
L 434 341 
L 1850 1753 
Q 2319 2222 2519 2614 
Q 2719 3006 2719 3438 
Q 2719 3909 2473 4175 
Q 2228 4441 1797 4441 
Q 1350 4441 1106 4219 
Q 863 3997 819 3553 
z
" id="DejaVuSerif-32" transform="scale(0.015625)"/>
       </defs>
       <use xlink:href="#DejaVuSerif-32"/>
       <use x="63.623047" xlink:href="#DejaVuSerif-30"/>
      </g>
     </g>
    </g>
    <g id="xtick_3">
     <g id="line2d_3">
      <g>
       <use style="stroke:#000000;stroke-width:0.8;" x="202.100391" xlink:href="#m964243a8cd" y="383.64375"/>
      </g>
     </g>
     <g id="text_3">
      <!-- 40 -->
      <g transform="translate(195.737891 398.242188)scale(0.1 -0.1)">
       <defs>
        <path d="M 2234 1581 
L 2234 4063 
L 641 1581 
L 2234 1581 
z
M 3609 0 
L 1484 0 
L 1484 331 
L 2234 331 
L 2234 1247 
L 197 1247 
L 197 1588 
L 2241 4750 
L 2859 4750 
L 2859 1581 
L 3750 1581 
L 3750 1247 
L 2859 1247 
L 2859 331 
L 3609 331 
L 3609 0 
z
" id="DejaVuSerif-34" transform="scale(0.015625)"/>
       </defs>
       <use xlink:href="#DejaVuSerif-34"/>
       <use x="63.623047" xlink:href="#DejaVuSerif-30"/>
      </g>
     </g>
    </g>
    <g id="xtick_4">
     <g id="line2d_4">
      <g>
       <use style="stroke:#000000;stroke-width:0.8;" x="266.571254" xlink:href="#m964243a8cd" y="383.64375"/>
      </g>
     </g>
     <g id="text_4">
      <!-- 60 -->
      <g transform="translate(260.208754 398.242188)scale(0.1 -0.1)">
       <defs>
        <path d="M 2094 219 
Q 2534 219 2771 542 
Q 3009 866 3009 1472 
Q 3009 2078 2771 2401 
Q 2534 2725 2094 2725 
Q 1647 2725 1412 2412 
Q 1178 2100 1178 1509 
Q 1178 888 1415 553 
Q 1653 219 2094 219 
z
M 1075 2569 
Q 1288 2803 1556 2918 
Q 1825 3034 2163 3034 
Q 2859 3034 3264 2615 
Q 3669 2197 3669 1472 
Q 3669 763 3233 336 
Q 2797 -91 2069 -91 
Q 1278 -91 853 498 
Q 428 1088 428 2181 
Q 428 3406 931 4078 
Q 1434 4750 2350 4750 
Q 2597 4750 2869 4703 
Q 3141 4656 3425 4563 
L 3425 3794 
L 3072 3794 
Q 3034 4109 2831 4275 
Q 2628 4441 2284 4441 
Q 1678 4441 1381 3981 
Q 1084 3522 1075 2569 
z
" id="DejaVuSerif-36" transform="scale(0.015625)"/>
       </defs>
       <use xlink:href="#DejaVuSerif-36"/>
       <use x="63.623047" xlink:href="#DejaVuSerif-30"/>
      </g>
     </g>
    </g>
    <g id="xtick_5">
     <g id="line2d_5">
      <g>
       <use style="stroke:#000000;stroke-width:0.8;" x="331.042117" xlink:href="#m964243a8cd" y="383.64375"/>
      </g>
     </g>
     <g id="text_5">
      <!-- 80 -->
      <g transform="translate(324.679617 398.242188)scale(0.1 -0.1)">
       <defs>
        <path d="M 2981 1275 
Q 2981 1775 2732 2051 
Q 2484 2328 2034 2328 
Q 1584 2328 1336 2051 
Q 1088 1775 1088 1275 
Q 1088 772 1336 495 
Q 1584 219 2034 219 
Q 2484 219 2732 495 
Q 2981 772 2981 1275 
z
M 2853 3541 
Q 2853 3966 2637 4203 
Q 2422 4441 2034 4441 
Q 1650 4441 1433 4203 
Q 1216 3966 1216 3541 
Q 1216 3113 1433 2875 
Q 1650 2638 2034 2638 
Q 2422 2638 2637 2875 
Q 2853 3113 2853 3541 
z
M 2516 2484 
Q 3047 2413 3344 2092 
Q 3641 1772 3641 1275 
Q 3641 619 3225 264 
Q 2809 -91 2034 -91 
Q 1263 -91 845 264 
Q 428 619 428 1275 
Q 428 1772 725 2092 
Q 1022 2413 1556 2484 
Q 1084 2569 832 2842 
Q 581 3116 581 3541 
Q 581 4103 968 4426 
Q 1356 4750 2034 4750 
Q 2713 4750 3100 4426 
Q 3488 4103 3488 3541 
Q 3488 3116 3236 2842 
Q 2984 2569 2516 2484 
z
" id="DejaVuSerif-38" transform="scale(0.015625)"/>
       </defs>
       <use xlink:href="#DejaVuSerif-38"/>
       <use x="63.623047" xlink:href="#DejaVuSerif-30"/>
      </g>
     </g>
    </g>
    <g id="xtick_6">
     <g id="line2d_6">
      <g>
       <use style="stroke:#000000;stroke-width:0.8;" x="395.51298" xlink:href="#m964243a8cd" y="383.64375"/>
      </g>
     </g>
     <g id="text_6">
      <!-- 100 -->
      <g transform="translate(385.96923 398.242188)scale(0.1 -0.1)">
       <defs>
        <path d="M 909 0 
L 909 331 
L 1722 331 
L 1722 4213 
L 781 3603 
L 781 4013 
L 1919 4750 
L 2350 4750 
L 2350 331 
L 3163 331 
L 3163 0 
L 909 0 
z
" id="DejaVuSerif-31" transform="scale(0.015625)"/>
       </defs>
       <use xlink:href="#DejaVuSerif-31"/>
       <use x="63.623047" xlink:href="#DejaVuSerif-30"/>
       <use x="127.246094" xlink:href="#DejaVuSerif-30"/>
      </g>
     </g>
    </g>
    <g id="text_7">
     <!-- Load / % -->
     <g transform="translate(213.338281 411.920313)scale(0.1 -0.1)">
      <defs>
       <path d="M 353 0 
L 353 331 
L 947 331 
L 947 4331 
L 353 4331 
L 353 4666 
L 2175 4666 
L 2175 4331 
L 1581 4331 
L 1581 384 
L 3713 384 
L 3713 1166 
L 4097 1166 
L 4097 0 
L 353 0 
z
" id="DejaVuSerif-4c" transform="scale(0.015625)"/>
       <path d="M 1925 219 
Q 2388 219 2623 584 
Q 2859 950 2859 1663 
Q 2859 2375 2623 2739 
Q 2388 3103 1925 3103 
Q 1463 3103 1227 2739 
Q 991 2375 991 1663 
Q 991 950 1228 584 
Q 1466 219 1925 219 
z
M 1925 -91 
Q 1200 -91 759 389 
Q 319 869 319 1663 
Q 319 2456 758 2934 
Q 1197 3413 1925 3413 
Q 2653 3413 3092 2934 
Q 3531 2456 3531 1663 
Q 3531 869 3092 389 
Q 2653 -91 1925 -91 
z
" id="DejaVuSerif-6f" transform="scale(0.015625)"/>
       <path d="M 2547 1044 
L 2547 1747 
L 1806 1747 
Q 1378 1747 1168 1562 
Q 959 1378 959 997 
Q 959 650 1171 447 
Q 1384 244 1747 244 
Q 2106 244 2326 466 
Q 2547 688 2547 1044 
z
M 3122 2075 
L 3122 331 
L 3634 331 
L 3634 0 
L 2547 0 
L 2547 359 
Q 2356 128 2106 18 
Q 1856 -91 1522 -91 
Q 969 -91 644 203 
Q 319 497 319 997 
Q 319 1513 691 1797 
Q 1063 2081 1741 2081 
L 2547 2081 
L 2547 2309 
Q 2547 2688 2317 2895 
Q 2088 3103 1672 3103 
Q 1328 3103 1125 2947 
Q 922 2791 872 2484 
L 575 2484 
L 575 3156 
Q 875 3284 1158 3348 
Q 1441 3413 1709 3413 
Q 2400 3413 2761 3070 
Q 3122 2728 3122 2075 
z
" id="DejaVuSerif-61" transform="scale(0.015625)"/>
       <path d="M 3359 331 
L 3909 331 
L 3909 0 
L 2784 0 
L 2784 519 
Q 2616 206 2355 57 
Q 2094 -91 1709 -91 
Q 1097 -91 708 395 
Q 319 881 319 1663 
Q 319 2444 706 2928 
Q 1094 3413 1709 3413 
Q 2094 3413 2355 3264 
Q 2616 3116 2784 2803 
L 2784 4531 
L 2241 4531 
L 2241 4863 
L 3359 4863 
L 3359 331 
z
M 2784 1497 
L 2784 1825 
Q 2784 2422 2554 2737 
Q 2325 3053 1888 3053 
Q 1444 3053 1217 2703 
Q 991 2353 991 1663 
Q 991 975 1217 622 
Q 1444 269 1888 269 
Q 2325 269 2554 583 
Q 2784 897 2784 1497 
z
" id="DejaVuSerif-64" transform="scale(0.015625)"/>
       <path id="DejaVuSerif-20" transform="scale(0.015625)"/>
       <path d="M 1656 4666 
L 2156 4666 
L 500 -594 
L 0 -594 
L 1656 4666 
z
" id="DejaVuSerif-2f" transform="scale(0.015625)"/>
       <path d="M 1434 4459 
Q 1159 4459 1004 4200 
Q 850 3941 850 3475 
Q 850 3016 1008 2753 
Q 1166 2491 1434 2491 
Q 1700 2491 1854 2752 
Q 2009 3013 2009 3475 
Q 2009 3938 1854 4198 
Q 1700 4459 1434 4459 
z
M 4653 2169 
Q 4381 2169 4226 1906 
Q 4072 1644 4072 1178 
Q 4072 719 4228 458 
Q 4384 197 4653 197 
Q 4922 197 5075 458 
Q 5228 719 5228 1178 
Q 5228 1641 5073 1905 
Q 4919 2169 4653 2169 
z
M 4653 2450 
Q 5147 2450 5437 2106 
Q 5728 1763 5728 1178 
Q 5728 594 5436 251 
Q 5144 -91 4653 -91 
Q 4153 -91 3862 251 
Q 3572 594 3572 1178 
Q 3572 1766 3864 2108 
Q 4156 2450 4653 2450 
z
M 4263 4750 
L 4738 4750 
L 1819 -91 
L 1344 -91 
L 4263 4750 
z
M 1428 4750 
Q 1922 4750 2215 4408 
Q 2509 4066 2509 3481 
Q 2509 2891 2217 2550 
Q 1925 2209 1428 2209 
Q 931 2209 642 2551 
Q 353 2894 353 3481 
Q 353 4063 643 4406 
Q 934 4750 1428 4750 
z
" id="DejaVuSerif-25" transform="scale(0.015625)"/>
      </defs>
      <use xlink:href="#DejaVuSerif-4c"/>
      <use x="66.40625" xlink:href="#DejaVuSerif-6f"/>
      <use x="126.611328" xlink:href="#DejaVuSerif-61"/>
      <use x="186.230469" xlink:href="#DejaVuSerif-64"/>
      <use x="250.244141" xlink:href="#DejaVuSerif-20"/>
      <use x="282.03125" xlink:href="#DejaVuSerif-2f"/>
      <use x="315.722656" xlink:href="#DejaVuSerif-20"/>
      <use x="347.509766" xlink:href="#DejaVuSerif-25"/>
     </g>
    </g>
   </g>
   <g id="matplotlib.axis_2">
    <g id="ytick_1">
     <g id="line2d_7">
      <defs>
       <path d="M 0 0 
L -3.5 0 
" id="m964b9ce698" style="stroke:#000000;stroke-width:0.8;"/>
      </defs>
      <g>
       <use style="stroke:#000000;stroke-width:0.8;" x="56.928125" xlink:href="#m964b9ce698" y="366.696307"/>
      </g>
     </g>
     <g id="text_8">
      <!-- 0 -->
      <g transform="translate(43.565625 370.495526)scale(0.1 -0.1)">
       <use xlink:href="#DejaVuSerif-30"/>
      </g>
     </g>
    </g>
    <g id="ytick_2">
     <g id="line2d_8">
      <g>
       <use style="stroke:#000000;stroke-width:0.8;" x="56.928125" xlink:href="#m964b9ce698" y="314.574384"/>
      </g>
     </g>
     <g id="text_9">
      <!-- 200 -->
      <g transform="translate(30.840625 318.373603)scale(0.1 -0.1)">
       <use xlink:href="#DejaVuSerif-32"/>
       <use x="63.623047" xlink:href="#DejaVuSerif-30"/>
       <use x="127.246094" xlink:href="#DejaVuSerif-30"/>
      </g>
     </g>
    </g>
    <g id="ytick_3">
     <g id="line2d_9">
      <g>
       <use style="stroke:#000000;stroke-width:0.8;" x="56.928125" xlink:href="#m964b9ce698" y="262.452461"/>
      </g>
     </g>
     <g id="text_10">
      <!-- 400 -->
      <g transform="translate(30.840625 266.25168)scale(0.1 -0.1)">
       <use xlink:href="#DejaVuSerif-34"/>
       <use x="63.623047" xlink:href="#DejaVuSerif-30"/>
       <use x="127.246094" xlink:href="#DejaVuSerif-30"/>
      </g>
     </g>
    </g>
    <g id="ytick_4">
     <g id="line2d_10">
      <g>
       <use style="stroke:#000000;stroke-width:0.8;" x="56.928125" xlink:href="#m964b9ce698" y="210.330539"/>
      </g>
     </g>
     <g id="text_11">
      <!-- 600 -->
      <g transform="translate(30.840625 214.129757)scale(0.1 -0.1)">
       <use xlink:href="#DejaVuSerif-36"/>
       <use x="63.623047" xlink:href="#DejaVuSerif-30"/>
       <use x="127.246094" xlink:href="#DejaVuSerif-30"/>
      </g>
     </g>
    </g>
    <g id="ytick_5">
     <g id="line2d_11">
      <g>
       <use style="stroke:#000000;stroke-width:0.8;" x="56.928125" xlink:href="#m964b9ce698" y="158.208616"/>
      </g>
     </g>
     <g id="text_12">
      <!-- 800 -->
      <g transform="translate(30.840625 162.007835)scale(0.1 -0.1)">
       <use xlink:href="#DejaVuSerif-38"/>
       <use x="63.623047" xlink:href="#DejaVuSerif-30"/>
       <use x="127.246094" xlink:href="#DejaVuSerif-30"/>
      </g>
     </g>
    </g>
    <g id="ytick_6">
     <g id="line2d_12">
      <g>
       <use style="stroke:#000000;stroke-width:0.8;" x="56.928125" xlink:href="#m964b9ce698" y="106.086693"/>
      </g>
     </g>
     <g id="text_13">
      <!-- 1000 -->
      <g transform="translate(24.478125 109.885912)scale(0.1 -0.1)">
       <use xlink:href="#DejaVuSerif-31"/>
       <use x="63.623047" xlink:href="#DejaVuSerif-30"/>
       <use x="127.246094" xlink:href="#DejaVuSerif-30"/>
       <use x="190.869141" xlink:href="#DejaVuSerif-30"/>
      </g>
     </g>
    </g>
    <g id="ytick_7">
     <g id="line2d_13">
      <g>
       <use style="stroke:#000000;stroke-width:0.8;" x="56.928125" xlink:href="#m964b9ce698" y="53.96477"/>
      </g>
     </g>
     <g id="text_14">
      <!-- 1200 -->
      <g transform="translate(24.478125 57.763989)scale(0.1 -0.1)">
       <use xlink:href="#DejaVuSerif-31"/>
       <use x="63.623047" xlink:href="#DejaVuSerif-32"/>
       <use x="127.246094" xlink:href="#DejaVuSerif-30"/>
       <use x="190.869141" xlink:href="#DejaVuSerif-30"/>
      </g>
     </g>
    </g>
    <g id="text_15">
     <!-- Power / W -->
     <g transform="translate(18.398438 223.026563)rotate(-90)scale(0.1 -0.1)">
      <defs>
       <path d="M 1581 2375 
L 2406 2375 
Q 2872 2375 3115 2626 
Q 3359 2878 3359 3353 
Q 3359 3831 3115 4081 
Q 2872 4331 2406 4331 
L 1581 4331 
L 1581 2375 
z
M 353 0 
L 353 331 
L 947 331 
L 947 4331 
L 353 4331 
L 353 4666 
L 2559 4666 
Q 3259 4666 3668 4311 
Q 4078 3956 4078 3353 
Q 4078 2753 3668 2397 
Q 3259 2041 2559 2041 
L 1581 2041 
L 1581 331 
L 2303 331 
L 2303 0 
L 353 0 
z
" id="DejaVuSerif-50" transform="scale(0.015625)"/>
       <path d="M 3072 3322 
L 3922 728 
L 4672 2988 
L 4191 2988 
L 4191 3322 
L 5394 3322 
L 5394 2988 
L 5025 2988 
L 4038 0 
L 3559 0 
L 2741 2484 
L 1919 0 
L 1459 0 
L 475 2988 
L 103 2988 
L 103 3322 
L 1606 3322 
L 1606 2988 
L 1069 2988 
L 1813 728 
L 2669 3322 
L 3072 3322 
z
" id="DejaVuSerif-77" transform="scale(0.015625)"/>
       <path d="M 3469 1600 
L 991 1600 
L 991 1575 
Q 991 903 1244 561 
Q 1497 219 1991 219 
Q 2369 219 2611 417 
Q 2853 616 2950 1006 
L 3413 1006 
Q 3275 459 2904 184 
Q 2534 -91 1931 -91 
Q 1203 -91 761 389 
Q 319 869 319 1663 
Q 319 2450 753 2931 
Q 1188 3413 1894 3413 
Q 2647 3413 3050 2948 
Q 3453 2484 3469 1600 
z
M 2791 1931 
Q 2772 2513 2545 2808 
Q 2319 3103 1894 3103 
Q 1497 3103 1269 2806 
Q 1041 2509 991 1931 
L 2791 1931 
z
" id="DejaVuSerif-65" transform="scale(0.015625)"/>
       <path d="M 3059 3328 
L 3059 2497 
L 2728 2497 
Q 2713 2744 2591 2866 
Q 2469 2988 2234 2988 
Q 1809 2988 1582 2694 
Q 1356 2400 1356 1850 
L 1356 331 
L 2022 331 
L 2022 0 
L 263 0 
L 263 331 
L 781 331 
L 781 2994 
L 231 2994 
L 231 3322 
L 1356 3322 
L 1356 2731 
Q 1525 3078 1790 3245 
Q 2056 3413 2438 3413 
Q 2578 3413 2733 3391 
Q 2888 3369 3059 3328 
z
" id="DejaVuSerif-72" transform="scale(0.015625)"/>
       <path d="M 4878 0 
L 4366 0 
L 3297 3794 
L 2228 0 
L 1716 0 
L 494 4331 
L 31 4331 
L 31 4666 
L 1734 4666 
L 1734 4331 
L 1153 4331 
L 2125 884 
L 3188 4666 
L 3694 4666 
L 4775 844 
L 5753 4331 
L 5216 4331 
L 5216 4666 
L 6559 4666 
L 6559 4331 
L 6100 4331 
L 4878 0 
z
" id="DejaVuSerif-57" transform="scale(0.015625)"/>
      </defs>
      <use xlink:href="#DejaVuSerif-50"/>
      <use x="63.285156" xlink:href="#DejaVuSerif-6f"/>
      <use x="123.490234" xlink:href="#DejaVuSerif-77"/>
      <use x="209.085938" xlink:href="#DejaVuSerif-65"/>
      <use x="268.265625" xlink:href="#DejaVuSerif-72"/>
      <use x="316.068359" xlink:href="#DejaVuSerif-20"/>
      <use x="347.855469" xlink:href="#DejaVuSerif-2f"/>
      <use x="381.546875" xlink:href="#DejaVuSerif-20"/>
      <use x="413.333984" xlink:href="#DejaVuSerif-57"/>
     </g>
    </g>
   </g>
   <g id="line2d_14">
    <path clip-path="url(#p91b31fa7ba)" d="M 73.158665 300.476316 
L 76.382208 282.954719 
L 79.605751 277.2975 
L 82.829294 275.266051 
L 86.052837 273.607068 
L 89.276381 271.948084 
L 92.499924 270.201393 
L 95.723467 268.394903 
L 98.94701 266.588414 
L 102.170553 264.781924 
L 105.394096 262.838791 
L 108.617639 260.786273 
L 111.841183 258.733755 
L 115.064726 256.681238 
L 118.288269 254.62872 
L 121.511812 252.723848 
L 124.735355 250.936927 
L 127.958898 249.150006 
L 131.182442 247.363085 
L 134.405985 245.576164 
L 137.629528 243.789243 
L 140.853071 242.002323 
L 144.076614 240.315474 
L 147.300157 238.691008 
L 150.5237 237.066543 
L 153.747244 235.442077 
L 156.970787 233.817611 
L 160.19433 232.193146 
L 163.417873 230.56868 
L 166.641416 228.944214 
L 169.864959 227.319749 
L 173.088502 225.695283 
L 176.312046 224.17084 
L 179.535589 222.67537 
L 182.759132 221.1799 
L 185.982675 219.684429 
L 189.206218 218.188959 
L 192.429761 216.78826 
L 195.653305 215.50377 
L 198.876848 214.219279 
L 202.100391 212.934788 
L 205.323934 211.650297 
L 208.547477 210.365806 
L 211.77102 209.081315 
L 214.994563 207.796824 
L 218.218107 206.514008 
L 221.44165 205.260528 
L 224.665193 204.007049 
L 227.888736 202.753569 
L 231.112279 201.500089 
L 234.335822 200.24661 
L 237.559366 198.99313 
L 240.782909 197.739651 
L 244.006452 196.486171 
L 247.229995 195.232692 
L 250.453538 193.979212 
L 253.677081 192.725733 
L 256.900624 191.476907 
L 260.124168 190.231187 
L 263.347711 188.985467 
L 266.571254 187.739748 
L 269.794797 186.494028 
L 273.01834 185.248309 
L 276.241883 184.002589 
L 279.465427 182.756869 
L 282.68897 181.51115 
L 285.912513 180.26543 
L 289.136056 179.01971 
L 292.359599 177.773991 
L 295.583142 176.572482 
L 298.806685 175.414851 
L 302.030229 174.257219 
L 305.253772 173.099587 
L 308.477315 171.941955 
L 311.700858 170.784323 
L 314.924401 169.626691 
L 318.147944 168.469059 
L 321.371488 167.311428 
L 324.595031 166.153796 
L 327.818574 164.996585 
L 331.042117 163.892325 
L 334.26566 162.788064 
L 337.489203 161.683804 
L 340.712746 160.579543 
L 343.93629 159.475282 
L 347.159833 158.313136 
L 350.383376 156.914438 
L 353.606919 155.515741 
L 356.830462 154.117044 
L 360.054005 152.718346 
L 363.277548 151.319649 
L 366.501092 149.920952 
L 369.724635 148.522254 
L 372.948178 147.356258 
L 376.171721 146.469215 
L 379.395264 145.582172 
L 382.618807 144.695129 
L 385.842351 143.808086 
L 389.065894 142.921043 
" style="fill:none;stroke:#47dbcd;stroke-linecap:square;stroke-width:1.5;"/>
   </g>
   <g id="line2d_15">
    <path clip-path="url(#p91b31fa7ba)" d="M 73.158665 361.536236 
L 76.382208 361.420852 
L 79.605751 361.305467 
L 82.829294 361.190082 
L 86.052837 361.074697 
L 89.276381 360.959312 
L 92.499924 360.843927 
L 95.723467 360.728542 
L 98.94701 360.613157 
L 102.170553 360.497772 
L 105.394096 360.382387 
L 108.617639 360.267002 
L 111.841183 360.151618 
L 115.064726 360.036233 
L 118.288269 359.920848 
L 121.511812 359.805463 
L 124.735355 359.690078 
L 127.958898 359.574693 
L 131.182442 359.459308 
L 134.405985 359.343923 
L 137.629528 359.228538 
L 140.853071 359.113153 
L 144.076614 358.997769 
L 147.300157 358.882384 
L 150.5237 358.766999 
L 153.747244 358.651614 
L 156.970787 358.536229 
L 160.19433 358.420844 
L 163.417873 358.305459 
L 166.641416 358.190074 
L 169.864959 358.074689 
L 173.088502 357.959304 
L 176.312046 357.843919 
L 179.535589 357.728535 
L 182.759132 357.61315 
L 185.982675 357.497765 
L 189.206218 357.38238 
L 192.429761 357.266995 
L 195.653305 357.15161 
L 198.876848 357.036225 
L 202.100391 356.92084 
L 205.323934 356.805455 
L 208.547477 356.69007 
L 211.77102 356.574685 
L 214.994563 356.459301 
L 218.218107 356.343916 
L 221.44165 356.228531 
L 224.665193 356.113146 
L 227.888736 355.997761 
L 231.112279 355.882376 
L 234.335822 355.766991 
L 237.559366 355.651606 
L 240.782909 355.536221 
L 244.006452 355.420836 
L 247.229995 355.305452 
L 250.453538 355.190067 
L 253.677081 355.074682 
L 256.900624 354.959297 
L 260.124168 354.843912 
L 263.347711 354.728527 
L 266.571254 354.613142 
L 269.794797 354.497757 
L 273.01834 354.382372 
L 276.241883 354.266987 
L 279.465427 354.151602 
L 282.68897 354.036218 
L 285.912513 353.920833 
L 289.136056 353.805448 
L 292.359599 353.690063 
L 295.583142 353.574678 
L 298.806685 353.459293 
L 302.030229 353.343908 
L 305.253772 353.228523 
L 308.477315 353.113138 
L 311.700858 352.997753 
L 314.924401 352.882368 
L 318.147944 352.766984 
L 321.371488 352.651599 
L 324.595031 352.536214 
L 327.818574 352.420829 
L 331.042117 352.305444 
L 334.26566 352.190059 
L 337.489203 352.074674 
L 340.712746 351.959289 
L 343.93629 351.843904 
L 347.159833 351.728519 
L 350.383376 351.613135 
L 353.606919 351.49775 
L 356.830462 351.382365 
L 360.054005 351.26698 
L 363.277548 351.151595 
L 366.501092 351.03621 
L 369.724635 350.920825 
L 372.948178 350.80544 
L 376.171721 350.690055 
L 379.395264 350.57467 
L 382.618807 350.459285 
L 385.842351 350.343901 
L 389.065894 350.228516 
" style="fill:none;stroke:#2cbdfe;stroke-linecap:square;stroke-width:1.5;"/>
   </g>
   <g id="line2d_16">
    <path clip-path="url(#p91b31fa7ba)" d="M 73.158665 366.696307 
L 76.382208 366.677404 
L 79.605751 366.658501 
L 82.829294 366.639598 
L 86.052837 366.620695 
L 89.276381 366.601792 
L 92.499924 366.58289 
L 95.723467 366.563987 
L 98.94701 366.545084 
L 102.170553 366.526181 
L 105.394096 366.507278 
L 108.617639 366.488375 
L 111.841183 366.469472 
L 115.064726 366.450569 
L 118.288269 366.431666 
L 121.511812 366.412764 
L 124.735355 366.393861 
L 127.958898 366.374958 
L 131.182442 366.356055 
L 134.405985 366.337152 
L 137.629528 366.318249 
L 140.853071 366.299346 
L 144.076614 366.280443 
L 147.300157 366.26154 
L 150.5237 366.242638 
L 153.747244 366.223735 
L 156.970787 366.204832 
L 160.19433 366.185929 
L 163.417873 366.167026 
L 166.641416 366.148123 
L 169.864959 366.12922 
L 173.088502 366.110317 
L 176.312046 366.091415 
L 179.535589 366.072512 
L 182.759132 366.053609 
L 185.982675 366.034706 
L 189.206218 366.015803 
L 192.429761 365.9969 
L 195.653305 365.977997 
L 198.876848 365.959094 
L 202.100391 365.940191 
L 205.323934 365.921289 
L 208.547477 365.902386 
L 211.77102 365.883483 
L 214.994563 365.86458 
L 218.218107 365.845677 
L 221.44165 365.826774 
L 224.665193 365.807871 
L 227.888736 365.788968 
L 231.112279 365.770066 
L 234.335822 365.751163 
L 237.559366 365.73226 
L 240.782909 365.713357 
L 244.006452 365.694454 
L 247.229995 365.675551 
L 250.453538 365.656648 
L 253.677081 365.637745 
L 256.900624 365.618842 
L 260.124168 365.59994 
L 263.347711 365.581037 
L 266.571254 365.562134 
L 269.794797 365.543231 
L 273.01834 365.524328 
L 276.241883 365.505425 
L 279.465427 365.486522 
L 282.68897 365.467619 
L 285.912513 365.448716 
L 289.136056 365.429814 
L 292.359599 365.410911 
L 295.583142 365.392008 
L 298.806685 365.373105 
L 302.030229 365.354202 
L 305.253772 365.335299 
L 308.477315 365.316396 
L 311.700858 365.297493 
L 314.924401 365.278591 
L 318.147944 365.259688 
L 321.371488 365.240785 
L 324.595031 365.221882 
L 327.818574 365.202979 
L 331.042117 365.184076 
L 334.26566 365.165173 
L 337.489203 365.14627 
L 340.712746 365.127367 
L 343.93629 365.108465 
L 347.159833 365.089562 
L 350.383376 365.070659 
L 353.606919 365.051756 
L 356.830462 365.032853 
L 360.054005 365.01395 
L 363.277548 364.995047 
L 366.501092 364.976144 
L 369.724635 364.957241 
L 372.948178 364.938339 
L 376.171721 364.919436 
L 379.395264 364.900533 
L 382.618807 364.88163 
L 385.842351 364.862727 
L 389.065894 364.843824 
" style="fill:none;stroke:#f5b14c;stroke-linecap:square;stroke-width:1.5;"/>
   </g>
   <g id="line2d_17">
    <path clip-path="url(#p91b31fa7ba)" d="M 73.158665 351.609999 
L 76.382208 347.855941 
L 79.605751 346.62603 
L 82.829294 346.167501 
L 86.052837 345.788214 
L 89.276381 345.408927 
L 92.499924 345.010981 
L 95.723467 344.600312 
L 98.94701 344.189643 
L 102.170553 343.778975 
L 105.394096 343.339235 
L 108.617639 342.876224 
L 111.841183 342.413213 
L 115.064726 341.950201 
L 118.288269 341.48719 
L 121.511812 341.055591 
L 124.735355 340.649085 
L 127.958898 340.24258 
L 131.182442 339.836074 
L 134.405985 339.429569 
L 137.629528 339.023063 
L 140.853071 338.616558 
L 144.076614 338.231342 
L 147.300157 337.859399 
L 150.5237 337.487456 
L 153.747244 337.115513 
L 156.970787 336.74357 
L 160.19433 336.371627 
L 163.417873 335.999683 
L 166.641416 335.62774 
L 169.864959 335.255797 
L 173.088502 334.883854 
L 176.312046 334.533191 
L 179.535589 334.188691 
L 182.759132 333.844192 
L 185.982675 333.499693 
L 189.206218 333.155193 
L 192.429761 332.830857 
L 195.653305 332.531243 
L 198.876848 332.231629 
L 202.100391 331.932016 
L 205.323934 331.632402 
L 208.547477 331.332789 
L 211.77102 331.033175 
L 214.994563 330.733562 
L 218.218107 330.434305 
L 221.44165 330.141289 
L 224.665193 329.848273 
L 227.888736 329.555257 
L 231.112279 329.262241 
L 234.335822 328.969225 
L 237.559366 328.67621 
L 240.782909 328.383194 
L 244.006452 328.090178 
L 247.229995 327.797162 
L 250.453538 327.504146 
L 253.677081 327.21113 
L 256.900624 326.919104 
L 260.124168 326.62774 
L 263.347711 326.336375 
L 266.571254 326.04501 
L 269.794797 325.753645 
L 273.01834 325.46228 
L 276.241883 325.170915 
L 279.465427 324.87955 
L 282.68897 324.588185 
L 285.912513 324.29682 
L 289.136056 324.005455 
L 292.359599 323.71409 
L 295.583142 323.432131 
L 298.806685 323.159507 
L 302.030229 322.886883 
L 305.253772 322.614258 
L 308.477315 322.341634 
L 311.700858 322.06901 
L 314.924401 321.796386 
L 318.147944 321.523761 
L 321.371488 321.251137 
L 324.595031 320.978513 
L 327.818574 320.705978 
L 331.042117 320.444709 
L 334.26566 320.183439 
L 337.489203 319.92217 
L 340.712746 319.6609 
L 343.93629 319.399631 
L 347.159833 319.126046 
L 350.383376 318.802135 
L 353.606919 318.478224 
L 356.830462 318.154313 
L 360.054005 317.830402 
L 363.277548 317.506491 
L 366.501092 317.18258 
L 369.724635 316.858669 
L 372.948178 316.584266 
L 376.171721 316.369209 
L 379.395264 316.154153 
L 382.618807 315.939096 
L 385.842351 315.72404 
L 389.065894 315.508983 
" style="fill:none;stroke:#661d98;stroke-linecap:square;stroke-width:1.5;"/>
   </g>
   <g id="line2d_18">
    <path clip-path="url(#p91b31fa7ba)" d="M 73.158665 280.229938 
L 76.382208 258.819995 
L 79.605751 251.798578 
L 82.829294 249.174312 
L 86.052837 247.001754 
L 89.276381 244.829195 
L 92.499924 242.55027 
L 95.723467 240.198824 
L 98.94701 237.847378 
L 102.170553 235.495932 
L 105.394096 232.978771 
L 108.617639 230.328954 
L 111.841183 227.679137 
L 115.064726 225.029321 
L 118.288269 222.379504 
L 121.511812 219.908744 
L 124.735355 217.58103 
L 127.958898 215.253316 
L 131.182442 212.925602 
L 134.405985 210.597888 
L 137.629528 208.270174 
L 140.853071 205.942459 
L 144.076614 203.736108 
L 147.300157 201.605411 
L 150.5237 199.474715 
L 153.747244 197.344018 
L 156.970787 195.213321 
L 160.19433 193.082625 
L 163.417873 190.951928 
L 166.641416 188.821232 
L 169.864959 186.690535 
L 173.088502 184.559838 
L 176.312046 182.550444 
L 179.535589 180.576187 
L 182.759132 178.601929 
L 185.982675 176.627672 
L 189.206218 174.653414 
L 192.429761 172.794092 
L 195.653305 171.075699 
L 198.876848 169.357307 
L 202.100391 167.638915 
L 205.323934 165.920523 
L 208.547477 164.20213 
L 211.77102 162.483738 
L 214.994563 160.765346 
L 218.218107 159.048984 
L 221.44165 157.368201 
L 224.665193 155.687418 
L 227.888736 154.006635 
L 231.112279 152.325852 
L 234.335822 150.645069 
L 237.559366 148.964285 
L 240.782909 147.283502 
L 244.006452 145.602719 
L 247.229995 143.921936 
L 250.453538 142.241153 
L 253.677081 140.560369 
L 256.900624 138.88523 
L 260.124168 137.213858 
L 263.347711 135.542485 
L 266.571254 133.871113 
L 269.794797 132.199741 
L 273.01834 130.528368 
L 276.241883 128.856996 
L 279.465427 127.185624 
L 282.68897 125.514251 
L 285.912513 123.842879 
L 289.136056 122.171506 
L 292.359599 120.500134 
L 295.583142 118.882379 
L 298.806685 117.317835 
L 302.030229 115.753291 
L 305.253772 114.188747 
L 308.477315 112.624203 
L 311.700858 111.059659 
L 314.924401 109.495116 
L 318.147944 107.930572 
L 321.371488 106.366028 
L 324.595031 104.801484 
L 327.818574 103.237451 
L 331.042117 101.737633 
L 334.26566 100.237815 
L 337.489203 98.737998 
L 340.712746 97.23818 
L 343.93629 95.738362 
L 347.159833 94.168342 
L 350.383376 92.311446 
L 353.606919 90.45455 
L 356.830462 88.597654 
L 360.054005 86.740758 
L 363.277548 84.883862 
L 366.501092 83.026966 
L 369.724635 81.17007 
L 372.948178 79.595381 
L 376.171721 78.358994 
L 379.395264 77.122607 
L 382.618807 75.88622 
L 385.842351 74.649833 
L 389.065894 73.413446 
" style="fill:none;stroke:#000000;stroke-dasharray:1.5,2.475;stroke-dashoffset:0;stroke-width:1.5;"/>
   </g>
   <g id="line2d_19">
    <path clip-path="url(#p91b31fa7ba)" d="M 73.158665 262.765193 
L 74.738201 247.592501 
L 76.059854 238.937656 
L 78.155157 231.372159 
L 80.766227 228.1406 
L 90.75921 220.627224 
L 103.911266 209.887502 
L 120.190159 194.837297 
L 142.787197 176.578987 
L 174.829216 152.972969 
L 192.171878 141.177778 
L 219.507524 125.116407 
L 256.803918 103.709933 
L 296.195615 81.23496 
L 330.365173 63.060046 
L 349.287371 53.438339 
L 374.495479 37.363938 
L 397.76946 27.747443 
" style="fill:none;stroke:#ff0000;stroke-linecap:square;stroke-width:1.5;"/>
   </g>
   <g id="patch_3">
    <path d="M 56.928125 383.64375 
L 56.928125 10.8 
" style="fill:none;stroke:#000000;stroke-linecap:square;stroke-linejoin:miter;"/>
   </g>
   <g id="patch_4">
    <path d="M 414 383.64375 
L 414 10.8 
" style="fill:none;stroke:#000000;stroke-linecap:square;stroke-linejoin:miter;"/>
   </g>
   <g id="patch_5">
    <path d="M 56.928125 383.64375 
L 414 383.64375 
" style="fill:none;stroke:#000000;stroke-linecap:square;stroke-linejoin:miter;"/>
   </g>
   <g id="patch_6">
    <path d="M 56.928125 10.8 
L 414 10.8 
" style="fill:none;stroke:#000000;stroke-linecap:square;stroke-linejoin:miter;"/>
   </g>
   <g id="legend_1">
    <g id="patch_7">
     <path d="M 63.928125 106.86875 
L 176.554688 106.86875 
Q 178.554688 106.86875 178.554688 104.86875 
L 178.554688 17.8 
Q 178.554688 15.8 176.554688 15.8 
L 63.928125 15.8 
Q 61.928125 15.8 61.928125 17.8 
L 61.928125 104.86875 
Q 61.928125 106.86875 63.928125 106.86875 
z
" style="fill:#ffffff;opacity:0.8;stroke:#cccccc;stroke-linejoin:miter;"/>
    </g>
    <g id="line2d_20">
     <path d="M 65.928125 23.898438 
L 85.928125 23.898438 
" style="fill:none;stroke:#47dbcd;stroke-linecap:square;stroke-width:1.5;"/>
    </g>
    <g id="line2d_21"/>
    <g id="text_16">
     <!-- Power amplifier -->
     <g transform="translate(93.928125 27.398438)scale(0.1 -0.1)">
      <defs>
       <path d="M 3316 2675 
Q 3481 3041 3739 3227 
Q 3997 3413 4341 3413 
Q 4863 3413 5119 3089 
Q 5375 2766 5375 2113 
L 5375 331 
L 5894 331 
L 5894 0 
L 4300 0 
L 4300 331 
L 4800 331 
L 4800 2047 
Q 4800 2556 4650 2772 
Q 4500 2988 4153 2988 
Q 3769 2988 3567 2697 
Q 3366 2406 3366 1850 
L 3366 331 
L 3866 331 
L 3866 0 
L 2291 0 
L 2291 331 
L 2791 331 
L 2791 2069 
Q 2791 2566 2641 2777 
Q 2491 2988 2144 2988 
Q 1759 2988 1557 2697 
Q 1356 2406 1356 1850 
L 1356 331 
L 1856 331 
L 1856 0 
L 263 0 
L 263 331 
L 781 331 
L 781 2994 
L 231 2994 
L 231 3322 
L 1356 3322 
L 1356 2731 
Q 1516 3063 1762 3238 
Q 2009 3413 2322 3413 
Q 2709 3413 2968 3220 
Q 3228 3028 3316 2675 
z
" id="DejaVuSerif-6d" transform="scale(0.015625)"/>
       <path d="M 1313 1825 
L 1313 1497 
Q 1313 897 1542 583 
Q 1772 269 2209 269 
Q 2650 269 2876 622 
Q 3103 975 3103 1663 
Q 3103 2353 2876 2703 
Q 2650 3053 2209 3053 
Q 1772 3053 1542 2737 
Q 1313 2422 1313 1825 
z
M 738 2988 
L 184 2988 
L 184 3322 
L 1313 3322 
L 1313 2803 
Q 1481 3116 1742 3264 
Q 2003 3413 2388 3413 
Q 3000 3413 3387 2928 
Q 3775 2444 3775 1663 
Q 3775 881 3387 395 
Q 3000 -91 2388 -91 
Q 2003 -91 1742 57 
Q 1481 206 1313 519 
L 1313 -997 
L 1856 -997 
L 1856 -1331 
L 184 -1331 
L 184 -997 
L 738 -997 
L 738 2988 
z
" id="DejaVuSerif-70" transform="scale(0.015625)"/>
       <path d="M 1313 331 
L 1856 331 
L 1856 0 
L 184 0 
L 184 331 
L 738 331 
L 738 4531 
L 184 4531 
L 184 4863 
L 1313 4863 
L 1313 331 
z
" id="DejaVuSerif-6c" transform="scale(0.015625)"/>
       <path d="M 622 4353 
Q 622 4497 726 4603 
Q 831 4709 978 4709 
Q 1122 4709 1226 4603 
Q 1331 4497 1331 4353 
Q 1331 4206 1228 4103 
Q 1125 4000 978 4000 
Q 831 4000 726 4103 
Q 622 4206 622 4353 
z
M 1356 331 
L 1900 331 
L 1900 0 
L 231 0 
L 231 331 
L 781 331 
L 781 2988 
L 231 2988 
L 231 3322 
L 1356 3322 
L 1356 331 
z
" id="DejaVuSerif-69" transform="scale(0.015625)"/>
       <path d="M 2753 4078 
L 2450 4078 
Q 2447 4313 2317 4434 
Q 2188 4556 1941 4556 
Q 1619 4556 1487 4379 
Q 1356 4203 1356 3750 
L 1356 3322 
L 2284 3322 
L 2284 2988 
L 1356 2988 
L 1356 331 
L 2094 331 
L 2094 0 
L 231 0 
L 231 331 
L 781 331 
L 781 2988 
L 231 2988 
L 231 3322 
L 781 3322 
L 781 3738 
Q 781 4294 1070 4578 
Q 1359 4863 1919 4863 
Q 2128 4863 2337 4825 
Q 2547 4788 2753 4709 
L 2753 4078 
z
" id="DejaVuSerif-66" transform="scale(0.015625)"/>
      </defs>
      <use xlink:href="#DejaVuSerif-50"/>
      <use x="63.285156" xlink:href="#DejaVuSerif-6f"/>
      <use x="123.490234" xlink:href="#DejaVuSerif-77"/>
      <use x="209.085938" xlink:href="#DejaVuSerif-65"/>
      <use x="268.265625" xlink:href="#DejaVuSerif-72"/>
      <use x="316.068359" xlink:href="#DejaVuSerif-20"/>
      <use x="347.855469" xlink:href="#DejaVuSerif-61"/>
      <use x="407.474609" xlink:href="#DejaVuSerif-6d"/>
      <use x="502.298828" xlink:href="#DejaVuSerif-70"/>
      <use x="566.3125" xlink:href="#DejaVuSerif-6c"/>
      <use x="598.294922" xlink:href="#DejaVuSerif-69"/>
      <use x="630.277344" xlink:href="#DejaVuSerif-66"/>
      <use x="667.289062" xlink:href="#DejaVuSerif-69"/>
      <use x="699.271484" xlink:href="#DejaVuSerif-65"/>
      <use x="758.451172" xlink:href="#DejaVuSerif-72"/>
     </g>
    </g>
    <g id="line2d_22">
     <path d="M 65.928125 38.576563 
L 85.928125 38.576563 
" style="fill:none;stroke:#2cbdfe;stroke-linecap:square;stroke-width:1.5;"/>
    </g>
    <g id="line2d_23"/>
    <g id="text_17">
     <!-- Baseband -->
     <g transform="translate(93.928125 42.076563)scale(0.1 -0.1)">
      <defs>
       <path d="M 1581 331 
L 2516 331 
Q 3078 331 3337 575 
Q 3597 819 3597 1350 
Q 3597 1878 3339 2120 
Q 3081 2363 2516 2363 
L 1581 2363 
L 1581 331 
z
M 1581 2694 
L 2375 2694 
Q 2888 2694 3123 2891 
Q 3359 3088 3359 3513 
Q 3359 3941 3123 4136 
Q 2888 4331 2375 4331 
L 1581 4331 
L 1581 2694 
z
M 353 0 
L 353 331 
L 947 331 
L 947 4331 
L 353 4331 
L 353 4666 
L 2656 4666 
Q 3363 4666 3720 4377 
Q 4078 4088 4078 3513 
Q 4078 3097 3829 2850 
Q 3581 2603 3103 2547 
Q 3697 2472 4005 2167 
Q 4313 1863 4313 1350 
Q 4313 656 3875 328 
Q 3438 0 2509 0 
L 353 0 
z
" id="DejaVuSerif-42" transform="scale(0.015625)"/>
       <path d="M 359 184 
L 359 959 
L 691 959 
Q 703 588 923 403 
Q 1144 219 1575 219 
Q 1963 219 2166 364 
Q 2369 509 2369 788 
Q 2369 1006 2220 1140 
Q 2072 1275 1594 1428 
L 1178 1569 
Q 750 1706 558 1912 
Q 366 2119 366 2438 
Q 366 2894 700 3153 
Q 1034 3413 1625 3413 
Q 1888 3413 2178 3344 
Q 2469 3275 2778 3144 
L 2778 2419 
L 2447 2419 
Q 2434 2741 2221 2922 
Q 2009 3103 1644 3103 
Q 1281 3103 1095 2975 
Q 909 2847 909 2591 
Q 909 2381 1050 2254 
Q 1191 2128 1613 1997 
L 2069 1856 
Q 2541 1709 2748 1489 
Q 2956 1269 2956 922 
Q 2956 450 2595 179 
Q 2234 -91 1600 -91 
Q 1278 -91 972 -22 
Q 666 47 359 184 
z
" id="DejaVuSerif-73" transform="scale(0.015625)"/>
       <path d="M 738 331 
L 738 4531 
L 184 4531 
L 184 4863 
L 1313 4863 
L 1313 2803 
Q 1481 3116 1742 3264 
Q 2003 3413 2388 3413 
Q 3000 3413 3387 2928 
Q 3775 2444 3775 1663 
Q 3775 881 3387 395 
Q 3000 -91 2388 -91 
Q 2003 -91 1742 57 
Q 1481 206 1313 519 
L 1313 0 
L 184 0 
L 184 331 
L 738 331 
z
M 1313 1497 
Q 1313 897 1542 583 
Q 1772 269 2209 269 
Q 2650 269 2876 622 
Q 3103 975 3103 1663 
Q 3103 2353 2876 2703 
Q 2650 3053 2209 3053 
Q 1772 3053 1542 2737 
Q 1313 2422 1313 1825 
L 1313 1497 
z
" id="DejaVuSerif-62" transform="scale(0.015625)"/>
       <path d="M 263 0 
L 263 331 
L 781 331 
L 781 2988 
L 231 2988 
L 231 3322 
L 1356 3322 
L 1356 2731 
Q 1516 3069 1770 3241 
Q 2025 3413 2363 3413 
Q 2913 3413 3172 3097 
Q 3431 2781 3431 2113 
L 3431 331 
L 3944 331 
L 3944 0 
L 2356 0 
L 2356 331 
L 2853 331 
L 2853 1931 
Q 2853 2541 2703 2767 
Q 2553 2994 2175 2994 
Q 1775 2994 1565 2701 
Q 1356 2409 1356 1850 
L 1356 331 
L 1856 331 
L 1856 0 
L 263 0 
z
" id="DejaVuSerif-6e" transform="scale(0.015625)"/>
      </defs>
      <use xlink:href="#DejaVuSerif-42"/>
      <use x="73.486328" xlink:href="#DejaVuSerif-61"/>
      <use x="133.105469" xlink:href="#DejaVuSerif-73"/>
      <use x="184.423828" xlink:href="#DejaVuSerif-65"/>
      <use x="243.603516" xlink:href="#DejaVuSerif-62"/>
      <use x="307.617188" xlink:href="#DejaVuSerif-61"/>
      <use x="367.236328" xlink:href="#DejaVuSerif-6e"/>
      <use x="431.640625" xlink:href="#DejaVuSerif-64"/>
     </g>
    </g>
    <g id="line2d_24">
     <path d="M 65.928125 53.254688 
L 85.928125 53.254688 
" style="fill:none;stroke:#f5b14c;stroke-linecap:square;stroke-width:1.5;"/>
    </g>
    <g id="line2d_25"/>
    <g id="text_18">
     <!-- Radio -->
     <g transform="translate(93.928125 56.754688)scale(0.1 -0.1)">
      <defs>
       <path d="M 3066 2316 
Q 3284 2256 3442 2114 
Q 3600 1972 3725 1716 
L 4403 331 
L 4972 331 
L 4972 0 
L 3872 0 
L 3144 1484 
Q 2934 1916 2759 2042 
Q 2584 2169 2278 2169 
L 1581 2169 
L 1581 331 
L 2241 331 
L 2241 0 
L 353 0 
L 353 331 
L 947 331 
L 947 4331 
L 353 4331 
L 353 4666 
L 2719 4666 
Q 3400 4666 3770 4341 
Q 4141 4016 4141 3419 
Q 4141 2938 3870 2661 
Q 3600 2384 3066 2316 
z
M 1581 2503 
L 2503 2503 
Q 2975 2503 3200 2726 
Q 3425 2950 3425 3419 
Q 3425 3888 3200 4109 
Q 2975 4331 2503 4331 
L 1581 4331 
L 1581 2503 
z
" id="DejaVuSerif-52" transform="scale(0.015625)"/>
      </defs>
      <use xlink:href="#DejaVuSerif-52"/>
      <use x="77.542969" xlink:href="#DejaVuSerif-61"/>
      <use x="137.162109" xlink:href="#DejaVuSerif-64"/>
      <use x="201.175781" xlink:href="#DejaVuSerif-69"/>
      <use x="233.158203" xlink:href="#DejaVuSerif-6f"/>
     </g>
    </g>
    <g id="line2d_26">
     <path d="M 65.928125 67.932813 
L 85.928125 67.932813 
" style="fill:none;stroke:#661d98;stroke-linecap:square;stroke-width:1.5;"/>
    </g>
    <g id="line2d_27"/>
    <g id="text_19">
     <!-- Overhead -->
     <g transform="translate(93.928125 71.432813)scale(0.1 -0.1)">
      <defs>
       <path d="M 2625 244 
Q 3391 244 3781 770 
Q 4172 1297 4172 2328 
Q 4172 3363 3781 3889 
Q 3391 4416 2625 4416 
Q 1856 4416 1465 3889 
Q 1075 3363 1075 2328 
Q 1075 1297 1465 770 
Q 1856 244 2625 244 
z
M 2625 -91 
Q 2150 -91 1751 65 
Q 1353 222 1050 525 
Q 700 875 529 1319 
Q 359 1763 359 2328 
Q 359 2894 529 3339 
Q 700 3784 1050 4134 
Q 1356 4441 1750 4595 
Q 2144 4750 2625 4750 
Q 3641 4750 4266 4084 
Q 4891 3419 4891 2328 
Q 4891 1769 4719 1320 
Q 4547 872 4197 525 
Q 3891 219 3497 64 
Q 3103 -91 2625 -91 
z
" id="DejaVuSerif-4f" transform="scale(0.015625)"/>
       <path d="M 1581 0 
L 359 2988 
L -19 2988 
L -19 3322 
L 1509 3322 
L 1509 2988 
L 978 2988 
L 1913 703 
L 2847 2988 
L 2350 2988 
L 2350 3322 
L 3597 3322 
L 3597 2988 
L 3225 2988 
L 2003 0 
L 1581 0 
z
" id="DejaVuSerif-76" transform="scale(0.015625)"/>
       <path d="M 263 0 
L 263 331 
L 781 331 
L 781 4531 
L 231 4531 
L 231 4863 
L 1356 4863 
L 1356 2731 
Q 1516 3069 1770 3241 
Q 2025 3413 2363 3413 
Q 2913 3413 3172 3097 
Q 3431 2781 3431 2113 
L 3431 331 
L 3944 331 
L 3944 0 
L 2356 0 
L 2356 331 
L 2853 331 
L 2853 1931 
Q 2853 2541 2704 2764 
Q 2556 2988 2175 2988 
Q 1775 2988 1565 2697 
Q 1356 2406 1356 1850 
L 1356 331 
L 1856 331 
L 1856 0 
L 263 0 
z
" id="DejaVuSerif-68" transform="scale(0.015625)"/>
      </defs>
      <use xlink:href="#DejaVuSerif-4f"/>
      <use x="81.982422" xlink:href="#DejaVuSerif-76"/>
      <use x="138.476562" xlink:href="#DejaVuSerif-65"/>
      <use x="197.65625" xlink:href="#DejaVuSerif-72"/>
      <use x="245.458984" xlink:href="#DejaVuSerif-68"/>
      <use x="309.863281" xlink:href="#DejaVuSerif-65"/>
      <use x="369.042969" xlink:href="#DejaVuSerif-61"/>
      <use x="428.662109" xlink:href="#DejaVuSerif-64"/>
     </g>
    </g>
    <g id="line2d_28">
     <path d="M 65.928125 82.610938 
L 85.928125 82.610938 
" style="fill:none;stroke:#000000;stroke-dasharray:1.5,2.475;stroke-dashoffset:0;stroke-width:1.5;"/>
    </g>
    <g id="line2d_29"/>
    <g id="text_20">
     <!-- total -->
     <g transform="translate(93.928125 86.110938)scale(0.1 -0.1)">
      <defs>
       <path d="M 691 2988 
L 184 2988 
L 184 3322 
L 691 3322 
L 691 4353 
L 1269 4353 
L 1269 3322 
L 2350 3322 
L 2350 2988 
L 1269 2988 
L 1269 878 
Q 1269 456 1350 337 
Q 1431 219 1650 219 
Q 1875 219 1978 351 
Q 2081 484 2088 781 
L 2522 781 
Q 2497 328 2275 118 
Q 2053 -91 1600 -91 
Q 1103 -91 897 129 
Q 691 350 691 878 
L 691 2988 
z
" id="DejaVuSerif-74" transform="scale(0.015625)"/>
      </defs>
      <use xlink:href="#DejaVuSerif-74"/>
      <use x="40.185547" xlink:href="#DejaVuSerif-6f"/>
      <use x="100.390625" xlink:href="#DejaVuSerif-74"/>
      <use x="140.576172" xlink:href="#DejaVuSerif-61"/>
      <use x="200.195312" xlink:href="#DejaVuSerif-6c"/>
     </g>
    </g>
    <g id="line2d_30">
     <path d="M 65.928125 97.289063 
L 85.928125 97.289063 
" style="fill:none;stroke:#ff0000;stroke-linecap:square;stroke-width:1.5;"/>
    </g>
    <g id="line2d_31"/>
    <g id="text_21">
     <!-- (Desset et al) -->
     <g transform="translate(93.928125 100.789063)scale(0.1 -0.1)">
      <defs>
       <path d="M 2041 -997 
Q 1281 -656 893 83 
Q 506 822 506 1931 
Q 506 3044 893 3783 
Q 1281 4522 2041 4863 
L 2041 4556 
Q 1559 4225 1350 3623 
Q 1141 3022 1141 1931 
Q 1141 844 1350 242 
Q 1559 -359 2041 -691 
L 2041 -997 
z
" id="DejaVuSerif-28" transform="scale(0.015625)"/>
       <path d="M 1581 331 
L 2163 331 
Q 3072 331 3558 850 
Q 4044 1369 4044 2338 
Q 4044 3306 3559 3818 
Q 3075 4331 2163 4331 
L 1581 4331 
L 1581 331 
z
M 353 0 
L 353 331 
L 947 331 
L 947 4331 
L 353 4331 
L 353 4666 
L 2209 4666 
Q 3416 4666 4089 4050 
Q 4763 3434 4763 2338 
Q 4763 1238 4088 619 
Q 3413 0 2209 0 
L 353 0 
z
" id="DejaVuSerif-44" transform="scale(0.015625)"/>
       <path d="M 453 -997 
L 453 -691 
Q 934 -359 1145 242 
Q 1356 844 1356 1931 
Q 1356 3022 1145 3623 
Q 934 4225 453 4556 
L 453 4863 
Q 1216 4522 1603 3783 
Q 1991 3044 1991 1931 
Q 1991 822 1603 83 
Q 1216 -656 453 -997 
z
" id="DejaVuSerif-29" transform="scale(0.015625)"/>
      </defs>
      <use xlink:href="#DejaVuSerif-28"/>
      <use x="39.013672" xlink:href="#DejaVuSerif-44"/>
      <use x="119.189453" xlink:href="#DejaVuSerif-65"/>
      <use x="178.369141" xlink:href="#DejaVuSerif-73"/>
      <use x="229.6875" xlink:href="#DejaVuSerif-73"/>
      <use x="281.005859" xlink:href="#DejaVuSerif-65"/>
      <use x="340.185547" xlink:href="#DejaVuSerif-74"/>
      <use x="380.371094" xlink:href="#DejaVuSerif-20"/>
      <use x="412.158203" xlink:href="#DejaVuSerif-65"/>
      <use x="471.337891" xlink:href="#DejaVuSerif-74"/>
      <use x="511.523438" xlink:href="#DejaVuSerif-20"/>
      <use x="543.310547" xlink:href="#DejaVuSerif-61"/>
      <use x="602.929688" xlink:href="#DejaVuSerif-6c"/>
      <use x="634.912109" xlink:href="#DejaVuSerif-29"/>
     </g>
    </g>
   </g>
  </g>
 </g>
 <defs>
  <clipPath id="p91b31fa7ba">
   <rect height="372.84375" width="357.071875" x="56.928125" y="10.8"/>
  </clipPath>
 </defs>
</svg>
