<?xml version="1.0" encoding="utf-8" standalone="no"?>
<!DOCTYPE svg PUBLIC "-//W3C//DTD SVG 1.1//EN"
  "http://www.w3.org/Graphics/SVG/1.1/DTD/svg11.dtd">
<svg xmlns:xlink="http://www.w3.org/1999/xlink" width="424.8pt" height="424.8pt" viewBox="0 0 424.8 424.8" xmlns="http://www.w3.org/2000/svg" version="1.1">
 <metadata>
  <rdf:RDF xmlns:dc="http://purl.org/dc/elements/1.1/" xmlns:cc="http://creativecommons.org/ns#" xmlns:rdf="http://www.w3.org/1999/02/22-rdf-syntax-ns#">
   <cc:Work>
    <dc:type rdf:resource="http://purl.org/dc/dcmitype/StillImage"/>
    <dc:date>2024-06-28T12:34:02.294324</dc:date>
    <dc:format>image/svg+xml</dc:format>
    <dc:creator>
     <cc:Agent>
      <dc:title>Matplotlib v3.9.0, https://matplotlib.org/</dc:title>
     </cc:Agent>
    </dc:creator>
   </cc:Work>
  </rdf:RDF>
 </metadata>
 <defs>
  <style type="text/css">*{stroke-linejoin: round; stroke-linecap: butt}</style>
 </defs>
 <g id="figure_1">
  <g id="patch_1">
   <path d="M 0 424.8 
L 424.8 424.8 
L 424.8 0 
L 0 0 
z
" style="fill: #ffffff"/>
  </g>
  <g id="axes_1">
   <g id="patch_2">
    <path d="M 56.928125 383.64375 
L 414 383.64375 
L 414 10.8 
L 56.928125 10.8 
z
" style="fill: #ffffff"/>
   </g>
   <g id="matplotlib.axis_1">
    <g id="xtick_1">
     <g id="line2d_1">
      <defs>
       <path id="mf4502f17f2" d="M 0 0 
L 0 3.5 
" style="stroke: #000000; stroke-width: 0.8"/>
      </defs>
      <g>
       <use xlink:href="#mf4502f17f2" x="73.158665" y="383.64375" style="stroke: #000000; stroke-width: 0.8"/>
      </g>
     </g>
     <g id="text_1">
      <!-- 0.0 -->
      <g transform="translate(65.207102 398.242188) scale(0.1 -0.1)">
       <defs>
        <path id="DejaVuSerif-30" d="M 2034 219 
Q 2513 219 2750 744 
Q 2988 1269 2988 2328 
Q 2988 3391 2750 3916 
Q 2513 4441 2034 4441 
Q 1556 4441 1318 3916 
Q 1081 3391 1081 2328 
Q 1081 1269 1318 744 
Q 1556 219 2034 219 
z
M 2034 -91 
Q 1275 -91 848 546 
Q 422 1184 422 2328 
Q 422 3475 848 4112 
Q 1275 4750 2034 4750 
Q 2797 4750 3222 4112 
Q 3647 3475 3647 2328 
Q 3647 1184 3222 546 
Q 2797 -91 2034 -91 
z
" transform="scale(0.015625)"/>
        <path id="DejaVuSerif-2e" d="M 603 325 
Q 603 500 722 622 
Q 841 744 1019 744 
Q 1191 744 1312 622 
Q 1434 500 1434 325 
Q 1434 153 1312 31 
Q 1191 -91 1019 -91 
Q 841 -91 722 29 
Q 603 150 603 325 
z
" transform="scale(0.015625)"/>
       </defs>
       <use xlink:href="#DejaVuSerif-30"/>
       <use xlink:href="#DejaVuSerif-2e" x="63.623047"/>
       <use xlink:href="#DejaVuSerif-30" x="95.410156"/>
      </g>
     </g>
    </g>
    <g id="xtick_2">
     <g id="line2d_2">
      <g>
       <use xlink:href="#mf4502f17f2" x="137.629528" y="383.64375" style="stroke: #000000; stroke-width: 0.8"/>
      </g>
     </g>
     <g id="text_2">
      <!-- 0.2 -->
      <g transform="translate(129.677965 398.242188) scale(0.1 -0.1)">
       <defs>
        <path id="DejaVuSerif-32" d="M 819 3553 
L 469 3553 
L 469 4384 
Q 803 4563 1142 4656 
Q 1481 4750 1806 4750 
Q 2534 4750 2956 4397 
Q 3378 4044 3378 3438 
Q 3378 2753 2422 1800 
Q 2347 1728 2309 1691 
L 1131 513 
L 3078 513 
L 3078 1088 
L 3444 1088 
L 3444 0 
L 434 0 
L 434 341 
L 1850 1753 
Q 2319 2222 2519 2614 
Q 2719 3006 2719 3438 
Q 2719 3909 2473 4175 
Q 2228 4441 1797 4441 
Q 1350 4441 1106 4219 
Q 863 3997 819 3553 
z
" transform="scale(0.015625)"/>
       </defs>
       <use xlink:href="#DejaVuSerif-30"/>
       <use xlink:href="#DejaVuSerif-2e" x="63.623047"/>
       <use xlink:href="#DejaVuSerif-32" x="95.410156"/>
      </g>
     </g>
    </g>
    <g id="xtick_3">
     <g id="line2d_3">
      <g>
       <use xlink:href="#mf4502f17f2" x="202.100391" y="383.64375" style="stroke: #000000; stroke-width: 0.8"/>
      </g>
     </g>
     <g id="text_3">
      <!-- 0.4 -->
      <g transform="translate(194.148828 398.242188) scale(0.1 -0.1)">
       <defs>
        <path id="DejaVuSerif-34" d="M 2234 1581 
L 2234 4063 
L 641 1581 
L 2234 1581 
z
M 3609 0 
L 1484 0 
L 1484 331 
L 2234 331 
L 2234 1247 
L 197 1247 
L 197 1588 
L 2241 4750 
L 2859 4750 
L 2859 1581 
L 3750 1581 
L 3750 1247 
L 2859 1247 
L 2859 331 
L 3609 331 
L 3609 0 
z
" transform="scale(0.015625)"/>
       </defs>
       <use xlink:href="#DejaVuSerif-30"/>
       <use xlink:href="#DejaVuSerif-2e" x="63.623047"/>
       <use xlink:href="#DejaVuSerif-34" x="95.410156"/>
      </g>
     </g>
    </g>
    <g id="xtick_4">
     <g id="line2d_4">
      <g>
       <use xlink:href="#mf4502f17f2" x="266.571254" y="383.64375" style="stroke: #000000; stroke-width: 0.8"/>
      </g>
     </g>
     <g id="text_4">
      <!-- 0.6 -->
      <g transform="translate(258.619691 398.242188) scale(0.1 -0.1)">
       <defs>
        <path id="DejaVuSerif-36" d="M 2094 219 
Q 2534 219 2771 542 
Q 3009 866 3009 1472 
Q 3009 2078 2771 2401 
Q 2534 2725 2094 2725 
Q 1647 2725 1412 2412 
Q 1178 2100 1178 1509 
Q 1178 888 1415 553 
Q 1653 219 2094 219 
z
M 1075 2569 
Q 1288 2803 1556 2918 
Q 1825 3034 2163 3034 
Q 2859 3034 3264 2615 
Q 3669 2197 3669 1472 
Q 3669 763 3233 336 
Q 2797 -91 2069 -91 
Q 1278 -91 853 498 
Q 428 1088 428 2181 
Q 428 3406 931 4078 
Q 1434 4750 2350 4750 
Q 2597 4750 2869 4703 
Q 3141 4656 3425 4563 
L 3425 3794 
L 3072 3794 
Q 3034 4109 2831 4275 
Q 2628 4441 2284 4441 
Q 1678 4441 1381 3981 
Q 1084 3522 1075 2569 
z
" transform="scale(0.015625)"/>
       </defs>
       <use xlink:href="#DejaVuSerif-30"/>
       <use xlink:href="#DejaVuSerif-2e" x="63.623047"/>
       <use xlink:href="#DejaVuSerif-36" x="95.410156"/>
      </g>
     </g>
    </g>
    <g id="xtick_5">
     <g id="line2d_5">
      <g>
       <use xlink:href="#mf4502f17f2" x="331.042117" y="383.64375" style="stroke: #000000; stroke-width: 0.8"/>
      </g>
     </g>
     <g id="text_5">
      <!-- 0.8 -->
      <g transform="translate(323.090554 398.242188) scale(0.1 -0.1)">
       <defs>
        <path id="DejaVuSerif-38" d="M 2981 1275 
Q 2981 1775 2732 2051 
Q 2484 2328 2034 2328 
Q 1584 2328 1336 2051 
Q 1088 1775 1088 1275 
Q 1088 772 1336 495 
Q 1584 219 2034 219 
Q 2484 219 2732 495 
Q 2981 772 2981 1275 
z
M 2853 3541 
Q 2853 3966 2637 4203 
Q 2422 4441 2034 4441 
Q 1650 4441 1433 4203 
Q 1216 3966 1216 3541 
Q 1216 3113 1433 2875 
Q 1650 2638 2034 2638 
Q 2422 2638 2637 2875 
Q 2853 3113 2853 3541 
z
M 2516 2484 
Q 3047 2413 3344 2092 
Q 3641 1772 3641 1275 
Q 3641 619 3225 264 
Q 2809 -91 2034 -91 
Q 1263 -91 845 264 
Q 428 619 428 1275 
Q 428 1772 725 2092 
Q 1022 2413 1556 2484 
Q 1084 2569 832 2842 
Q 581 3116 581 3541 
Q 581 4103 968 4426 
Q 1356 4750 2034 4750 
Q 2713 4750 3100 4426 
Q 3488 4103 3488 3541 
Q 3488 3116 3236 2842 
Q 2984 2569 2516 2484 
z
" transform="scale(0.015625)"/>
       </defs>
       <use xlink:href="#DejaVuSerif-30"/>
       <use xlink:href="#DejaVuSerif-2e" x="63.623047"/>
       <use xlink:href="#DejaVuSerif-38" x="95.410156"/>
      </g>
     </g>
    </g>
    <g id="xtick_6">
     <g id="line2d_6">
      <g>
       <use xlink:href="#mf4502f17f2" x="395.51298" y="383.64375" style="stroke: #000000; stroke-width: 0.8"/>
      </g>
     </g>
     <g id="text_6">
      <!-- 1.0 -->
      <g transform="translate(387.561418 398.242188) scale(0.1 -0.1)">
       <defs>
        <path id="DejaVuSerif-31" d="M 909 0 
L 909 331 
L 1722 331 
L 1722 4213 
L 781 3603 
L 781 4013 
L 1919 4750 
L 2350 4750 
L 2350 331 
L 3163 331 
L 3163 0 
L 909 0 
z
" transform="scale(0.015625)"/>
       </defs>
       <use xlink:href="#DejaVuSerif-31"/>
       <use xlink:href="#DejaVuSerif-2e" x="63.623047"/>
       <use xlink:href="#DejaVuSerif-30" x="95.410156"/>
      </g>
     </g>
    </g>
    <g id="text_7">
     <!-- Load / % -->
     <g transform="translate(213.338281 411.920313) scale(0.1 -0.1)">
      <defs>
       <path id="DejaVuSerif-4c" d="M 353 0 
L 353 331 
L 947 331 
L 947 4331 
L 353 4331 
L 353 4666 
L 2175 4666 
L 2175 4331 
L 1581 4331 
L 1581 384 
L 3713 384 
L 3713 1166 
L 4097 1166 
L 4097 0 
L 353 0 
z
" transform="scale(0.015625)"/>
       <path id="DejaVuSerif-6f" d="M 1925 219 
Q 2388 219 2623 584 
Q 2859 950 2859 1663 
Q 2859 2375 2623 2739 
Q 2388 3103 1925 3103 
Q 1463 3103 1227 2739 
Q 991 2375 991 1663 
Q 991 950 1228 584 
Q 1466 219 1925 219 
z
M 1925 -91 
Q 1200 -91 759 389 
Q 319 869 319 1663 
Q 319 2456 758 2934 
Q 1197 3413 1925 3413 
Q 2653 3413 3092 2934 
Q 3531 2456 3531 1663 
Q 3531 869 3092 389 
Q 2653 -91 1925 -91 
z
" transform="scale(0.015625)"/>
       <path id="DejaVuSerif-61" d="M 2547 1044 
L 2547 1747 
L 1806 1747 
Q 1378 1747 1168 1562 
Q 959 1378 959 997 
Q 959 650 1171 447 
Q 1384 244 1747 244 
Q 2106 244 2326 466 
Q 2547 688 2547 1044 
z
M 3122 2075 
L 3122 331 
L 3634 331 
L 3634 0 
L 2547 0 
L 2547 359 
Q 2356 128 2106 18 
Q 1856 -91 1522 -91 
Q 969 -91 644 203 
Q 319 497 319 997 
Q 319 1513 691 1797 
Q 1063 2081 1741 2081 
L 2547 2081 
L 2547 2309 
Q 2547 2688 2317 2895 
Q 2088 3103 1672 3103 
Q 1328 3103 1125 2947 
Q 922 2791 872 2484 
L 575 2484 
L 575 3156 
Q 875 3284 1158 3348 
Q 1441 3413 1709 3413 
Q 2400 3413 2761 3070 
Q 3122 2728 3122 2075 
z
" transform="scale(0.015625)"/>
       <path id="DejaVuSerif-64" d="M 3359 331 
L 3909 331 
L 3909 0 
L 2784 0 
L 2784 519 
Q 2616 206 2355 57 
Q 2094 -91 1709 -91 
Q 1097 -91 708 395 
Q 319 881 319 1663 
Q 319 2444 706 2928 
Q 1094 3413 1709 3413 
Q 2094 3413 2355 3264 
Q 2616 3116 2784 2803 
L 2784 4531 
L 2241 4531 
L 2241 4863 
L 3359 4863 
L 3359 331 
z
M 2784 1497 
L 2784 1825 
Q 2784 2422 2554 2737 
Q 2325 3053 1888 3053 
Q 1444 3053 1217 2703 
Q 991 2353 991 1663 
Q 991 975 1217 622 
Q 1444 269 1888 269 
Q 2325 269 2554 583 
Q 2784 897 2784 1497 
z
" transform="scale(0.015625)"/>
       <path id="DejaVuSerif-20" transform="scale(0.015625)"/>
       <path id="DejaVuSerif-2f" d="M 1656 4666 
L 2156 4666 
L 500 -594 
L 0 -594 
L 1656 4666 
z
" transform="scale(0.015625)"/>
       <path id="DejaVuSerif-25" d="M 1434 4459 
Q 1159 4459 1004 4200 
Q 850 3941 850 3475 
Q 850 3016 1008 2753 
Q 1166 2491 1434 2491 
Q 1700 2491 1854 2752 
Q 2009 3013 2009 3475 
Q 2009 3938 1854 4198 
Q 1700 4459 1434 4459 
z
M 4653 2169 
Q 4381 2169 4226 1906 
Q 4072 1644 4072 1178 
Q 4072 719 4228 458 
Q 4384 197 4653 197 
Q 4922 197 5075 458 
Q 5228 719 5228 1178 
Q 5228 1641 5073 1905 
Q 4919 2169 4653 2169 
z
M 4653 2450 
Q 5147 2450 5437 2106 
Q 5728 1763 5728 1178 
Q 5728 594 5436 251 
Q 5144 -91 4653 -91 
Q 4153 -91 3862 251 
Q 3572 594 3572 1178 
Q 3572 1766 3864 2108 
Q 4156 2450 4653 2450 
z
M 4263 4750 
L 4738 4750 
L 1819 -91 
L 1344 -91 
L 4263 4750 
z
M 1428 4750 
Q 1922 4750 2215 4408 
Q 2509 4066 2509 3481 
Q 2509 2891 2217 2550 
Q 1925 2209 1428 2209 
Q 931 2209 642 2551 
Q 353 2894 353 3481 
Q 353 4063 643 4406 
Q 934 4750 1428 4750 
z
" transform="scale(0.015625)"/>
      </defs>
      <use xlink:href="#DejaVuSerif-4c"/>
      <use xlink:href="#DejaVuSerif-6f" x="66.40625"/>
      <use xlink:href="#DejaVuSerif-61" x="126.611328"/>
      <use xlink:href="#DejaVuSerif-64" x="186.230469"/>
      <use xlink:href="#DejaVuSerif-20" x="250.244141"/>
      <use xlink:href="#DejaVuSerif-2f" x="282.03125"/>
      <use xlink:href="#DejaVuSerif-20" x="315.722656"/>
      <use xlink:href="#DejaVuSerif-25" x="347.509766"/>
     </g>
    </g>
   </g>
   <g id="matplotlib.axis_2">
    <g id="ytick_1">
     <g id="line2d_7">
      <defs>
       <path id="mcfa6dc13c2" d="M 0 0 
L -3.5 0 
" style="stroke: #000000; stroke-width: 0.8"/>
      </defs>
      <g>
       <use xlink:href="#mcfa6dc13c2" x="56.928125" y="368.741341" style="stroke: #000000; stroke-width: 0.8"/>
      </g>
     </g>
     <g id="text_8">
      <!-- 0 -->
      <g transform="translate(43.565625 372.540559) scale(0.1 -0.1)">
       <use xlink:href="#DejaVuSerif-30"/>
      </g>
     </g>
    </g>
    <g id="ytick_2">
     <g id="line2d_8">
      <g>
       <use xlink:href="#mcfa6dc13c2" x="56.928125" y="317.099072" style="stroke: #000000; stroke-width: 0.8"/>
      </g>
     </g>
     <g id="text_9">
      <!-- 200 -->
      <g transform="translate(30.840625 320.898291) scale(0.1 -0.1)">
       <use xlink:href="#DejaVuSerif-32"/>
       <use xlink:href="#DejaVuSerif-30" x="63.623047"/>
       <use xlink:href="#DejaVuSerif-30" x="127.246094"/>
      </g>
     </g>
    </g>
    <g id="ytick_3">
     <g id="line2d_9">
      <g>
       <use xlink:href="#mcfa6dc13c2" x="56.928125" y="265.456804" style="stroke: #000000; stroke-width: 0.8"/>
      </g>
     </g>
     <g id="text_10">
      <!-- 400 -->
      <g transform="translate(30.840625 269.256023) scale(0.1 -0.1)">
       <use xlink:href="#DejaVuSerif-34"/>
       <use xlink:href="#DejaVuSerif-30" x="63.623047"/>
       <use xlink:href="#DejaVuSerif-30" x="127.246094"/>
      </g>
     </g>
    </g>
    <g id="ytick_4">
     <g id="line2d_10">
      <g>
       <use xlink:href="#mcfa6dc13c2" x="56.928125" y="213.814536" style="stroke: #000000; stroke-width: 0.8"/>
      </g>
     </g>
     <g id="text_11">
      <!-- 600 -->
      <g transform="translate(30.840625 217.613755) scale(0.1 -0.1)">
       <use xlink:href="#DejaVuSerif-36"/>
       <use xlink:href="#DejaVuSerif-30" x="63.623047"/>
       <use xlink:href="#DejaVuSerif-30" x="127.246094"/>
      </g>
     </g>
    </g>
    <g id="ytick_5">
     <g id="line2d_11">
      <g>
       <use xlink:href="#mcfa6dc13c2" x="56.928125" y="162.172268" style="stroke: #000000; stroke-width: 0.8"/>
      </g>
     </g>
     <g id="text_12">
      <!-- 800 -->
      <g transform="translate(30.840625 165.971486) scale(0.1 -0.1)">
       <use xlink:href="#DejaVuSerif-38"/>
       <use xlink:href="#DejaVuSerif-30" x="63.623047"/>
       <use xlink:href="#DejaVuSerif-30" x="127.246094"/>
      </g>
     </g>
    </g>
    <g id="ytick_6">
     <g id="line2d_12">
      <g>
       <use xlink:href="#mcfa6dc13c2" x="56.928125" y="110.529999" style="stroke: #000000; stroke-width: 0.8"/>
      </g>
     </g>
     <g id="text_13">
      <!-- 1000 -->
      <g transform="translate(24.478125 114.329218) scale(0.1 -0.1)">
       <use xlink:href="#DejaVuSerif-31"/>
       <use xlink:href="#DejaVuSerif-30" x="63.623047"/>
       <use xlink:href="#DejaVuSerif-30" x="127.246094"/>
       <use xlink:href="#DejaVuSerif-30" x="190.869141"/>
      </g>
     </g>
    </g>
    <g id="ytick_7">
     <g id="line2d_13">
      <g>
       <use xlink:href="#mcfa6dc13c2" x="56.928125" y="58.887731" style="stroke: #000000; stroke-width: 0.8"/>
      </g>
     </g>
     <g id="text_14">
      <!-- 1200 -->
      <g transform="translate(24.478125 62.68695) scale(0.1 -0.1)">
       <use xlink:href="#DejaVuSerif-31"/>
       <use xlink:href="#DejaVuSerif-32" x="63.623047"/>
       <use xlink:href="#DejaVuSerif-30" x="127.246094"/>
       <use xlink:href="#DejaVuSerif-30" x="190.869141"/>
      </g>
     </g>
    </g>
    <g id="text_15">
     <!-- Power / W -->
     <g transform="translate(18.398438 223.026563) rotate(-90) scale(0.1 -0.1)">
      <defs>
       <path id="DejaVuSerif-50" d="M 1581 2375 
L 2406 2375 
Q 2872 2375 3115 2626 
Q 3359 2878 3359 3353 
Q 3359 3831 3115 4081 
Q 2872 4331 2406 4331 
L 1581 4331 
L 1581 2375 
z
M 353 0 
L 353 331 
L 947 331 
L 947 4331 
L 353 4331 
L 353 4666 
L 2559 4666 
Q 3259 4666 3668 4311 
Q 4078 3956 4078 3353 
Q 4078 2753 3668 2397 
Q 3259 2041 2559 2041 
L 1581 2041 
L 1581 331 
L 2303 331 
L 2303 0 
L 353 0 
z
" transform="scale(0.015625)"/>
       <path id="DejaVuSerif-77" d="M 3072 3322 
L 3922 728 
L 4672 2988 
L 4191 2988 
L 4191 3322 
L 5394 3322 
L 5394 2988 
L 5025 2988 
L 4038 0 
L 3559 0 
L 2741 2484 
L 1919 0 
L 1459 0 
L 475 2988 
L 103 2988 
L 103 3322 
L 1606 3322 
L 1606 2988 
L 1069 2988 
L 1813 728 
L 2669 3322 
L 3072 3322 
z
" transform="scale(0.015625)"/>
       <path id="DejaVuSerif-65" d="M 3469 1600 
L 991 1600 
L 991 1575 
Q 991 903 1244 561 
Q 1497 219 1991 219 
Q 2369 219 2611 417 
Q 2853 616 2950 1006 
L 3413 1006 
Q 3275 459 2904 184 
Q 2534 -91 1931 -91 
Q 1203 -91 761 389 
Q 319 869 319 1663 
Q 319 2450 753 2931 
Q 1188 3413 1894 3413 
Q 2647 3413 3050 2948 
Q 3453 2484 3469 1600 
z
M 2791 1931 
Q 2772 2513 2545 2808 
Q 2319 3103 1894 3103 
Q 1497 3103 1269 2806 
Q 1041 2509 991 1931 
L 2791 1931 
z
" transform="scale(0.015625)"/>
       <path id="DejaVuSerif-72" d="M 3059 3328 
L 3059 2497 
L 2728 2497 
Q 2713 2744 2591 2866 
Q 2469 2988 2234 2988 
Q 1809 2988 1582 2694 
Q 1356 2400 1356 1850 
L 1356 331 
L 2022 331 
L 2022 0 
L 263 0 
L 263 331 
L 781 331 
L 781 2994 
L 231 2994 
L 231 3322 
L 1356 3322 
L 1356 2731 
Q 1525 3078 1790 3245 
Q 2056 3413 2438 3413 
Q 2578 3413 2733 3391 
Q 2888 3369 3059 3328 
z
" transform="scale(0.015625)"/>
       <path id="DejaVuSerif-57" d="M 4878 0 
L 4366 0 
L 3297 3794 
L 2228 0 
L 1716 0 
L 494 4331 
L 31 4331 
L 31 4666 
L 1734 4666 
L 1734 4331 
L 1153 4331 
L 2125 884 
L 3188 4666 
L 3694 4666 
L 4775 844 
L 5753 4331 
L 5216 4331 
L 5216 4666 
L 6559 4666 
L 6559 4331 
L 6100 4331 
L 4878 0 
z
" transform="scale(0.015625)"/>
      </defs>
      <use xlink:href="#DejaVuSerif-50"/>
      <use xlink:href="#DejaVuSerif-6f" x="63.285156"/>
      <use xlink:href="#DejaVuSerif-77" x="123.490234"/>
      <use xlink:href="#DejaVuSerif-65" x="209.085938"/>
      <use xlink:href="#DejaVuSerif-72" x="268.265625"/>
      <use xlink:href="#DejaVuSerif-20" x="316.068359"/>
      <use xlink:href="#DejaVuSerif-2f" x="347.855469"/>
      <use xlink:href="#DejaVuSerif-20" x="381.546875"/>
      <use xlink:href="#DejaVuSerif-57" x="413.333984"/>
     </g>
    </g>
   </g>
   <g id="line2d_14">
    <path d="M 73.158665 265.766658 
L 74.738201 250.733593 
L 76.059854 242.158395 
L 78.155157 234.66252 
L 80.766227 231.460699 
L 90.75921 224.016466 
L 103.911266 213.375577 
L 120.190159 198.463872 
L 142.787197 180.373585 
L 174.829216 156.984802 
L 192.171878 145.298156 
L 219.507524 129.384591 
L 256.803918 108.175112 
L 296.195615 85.906966 
L 330.365173 67.899307 
L 349.287371 58.366144 
L 374.495479 42.439669 
L 397.76946 27.747443 
" clip-path="url(#pdc52cd896c)" style="fill: none; stroke: #ff0000; stroke-width: 1.5; stroke-linecap: square"/>
   </g>
   <g id="line2d_15">
    <path d="M 73.158665 330.16973 
L 76.382208 311.384855 
L 79.605751 305.373695 
L 82.829294 303.369975 
L 86.052837 301.867185 
L 89.276381 300.364395 
L 92.499924 298.61114 
L 95.723467 296.857885 
L 98.94701 295.10463 
L 102.170553 293.60184 
L 105.394096 291.59812 
L 108.617639 289.5944 
L 111.841183 287.59068 
L 115.064726 285.58696 
L 118.288269 283.58324 
L 121.511812 281.829985 
L 124.735355 280.07673 
L 127.958898 278.323475 
L 131.182442 276.57022 
L 134.405985 275.06743 
L 137.629528 273.314175 
L 140.853071 271.56092 
L 144.076614 270.05813 
L 147.300157 268.304875 
L 150.5237 266.802085 
L 153.747244 265.299295 
L 156.970787 263.796505 
L 160.19433 262.293715 
L 163.417873 260.790925 
L 166.641416 259.288135 
L 169.864959 257.785345 
L 173.088502 256.282555 
L 176.312046 254.779765 
L 179.535589 253.276975 
L 182.759132 252.02465 
L 185.982675 250.52186 
L 189.206218 249.269535 
L 192.429761 247.766745 
L 195.653305 246.764885 
L 198.876848 245.51256 
L 202.100391 244.5107 
L 205.323934 243.258375 
L 208.547477 242.00605 
L 211.77102 241.00419 
L 214.994563 239.751865 
L 218.218107 238.49954 
L 221.44165 237.49768 
L 224.665193 236.245355 
L 227.888736 235.243495 
L 231.112279 233.99117 
L 234.335822 232.98931 
L 237.559366 231.736985 
L 240.782909 230.735125 
L 244.006452 229.4828 
L 247.229995 228.48094 
L 250.453538 227.228615 
L 253.677081 226.226755 
L 256.900624 224.97443 
L 260.124168 223.97257 
L 263.347711 222.720245 
L 266.571254 221.718385 
L 269.794797 220.46606 
L 273.01834 219.4642 
L 276.241883 218.211875 
L 279.465427 217.210015 
L 282.68897 215.95769 
L 285.912513 214.95583 
L 289.136056 213.703505 
L 292.359599 212.701645 
L 295.583142 211.699785 
L 298.806685 210.44746 
L 302.030229 209.4456 
L 305.253772 208.44374 
L 308.477315 207.44188 
L 311.700858 206.44002 
L 314.924401 205.43816 
L 318.147944 204.4363 
L 321.371488 203.43444 
L 324.595031 202.43258 
L 327.818574 201.43072 
L 331.042117 200.42886 
L 334.26566 199.427 
L 337.489203 198.42514 
L 340.712746 197.42328 
L 343.93629 196.42142 
L 347.159833 195.41956 
L 350.383376 194.167235 
L 353.606919 192.91491 
L 356.830462 191.662585 
L 360.054005 190.159795 
L 363.277548 188.90747 
L 366.501092 187.655145 
L 369.724635 186.40282 
L 372.948178 185.150495 
L 376.171721 183.89817 
L 379.395264 182.645845 
L 382.618807 181.39352 
L 385.842351 179.89073 
L 389.065894 178.638405 
L 392.289437 177.38608 
" clip-path="url(#pdc52cd896c)" style="fill: none; stroke: #47dbcd; stroke-width: 1.5; stroke-linecap: square"/>
   </g>
   <g id="line2d_16">
    <path d="M 73.158665 325.568404 
L 76.382208 325.47562 
L 79.605751 325.382836 
L 82.829294 325.290053 
L 86.052837 325.197269 
L 89.276381 325.104485 
L 92.499924 325.011701 
L 95.723467 324.918917 
L 98.94701 324.826133 
L 102.170553 324.733349 
L 105.394096 324.640565 
L 108.617639 324.547781 
L 111.841183 324.454997 
L 115.064726 324.362213 
L 118.288269 324.269429 
L 121.511812 324.176645 
L 124.735355 324.083861 
L 127.958898 323.991077 
L 131.182442 323.898293 
L 134.405985 323.805509 
L 137.629528 323.712726 
L 140.853071 323.619942 
L 144.076614 323.527158 
L 147.300157 323.434374 
L 150.5237 323.34159 
L 153.747244 323.248806 
L 156.970787 323.156022 
L 160.19433 323.063238 
L 163.417873 322.970454 
L 166.641416 322.87767 
L 169.864959 322.784886 
L 173.088502 322.692102 
L 176.312046 322.599318 
L 179.535589 322.506534 
L 182.759132 322.41375 
L 185.982675 322.320966 
L 189.206218 322.228182 
L 192.429761 322.135399 
L 195.653305 322.042615 
L 198.876848 321.949831 
L 202.100391 321.857047 
L 205.323934 321.764263 
L 208.547477 321.671479 
L 211.77102 321.578695 
L 214.994563 321.485911 
L 218.218107 321.393127 
L 221.44165 321.300343 
L 224.665193 321.207559 
L 227.888736 321.114775 
L 231.112279 321.021991 
L 234.335822 320.929207 
L 237.559366 320.836423 
L 240.782909 320.743639 
L 244.006452 320.650855 
L 247.229995 320.558071 
L 250.453538 320.465288 
L 253.677081 320.372504 
L 256.900624 320.27972 
L 260.124168 320.186936 
L 263.347711 320.094152 
L 266.571254 320.001368 
L 269.794797 319.908584 
L 273.01834 319.8158 
L 276.241883 319.723016 
L 279.465427 319.630232 
L 282.68897 319.537448 
L 285.912513 319.444664 
L 289.136056 319.35188 
L 292.359599 319.259096 
L 295.583142 319.166312 
L 298.806685 319.073528 
L 302.030229 318.980744 
L 305.253772 318.887961 
L 308.477315 318.795177 
L 311.700858 318.702393 
L 314.924401 318.609609 
L 318.147944 318.516825 
L 321.371488 318.424041 
L 324.595031 318.331257 
L 327.818574 318.238473 
L 331.042117 318.145689 
L 334.26566 318.052905 
L 337.489203 317.960121 
L 340.712746 317.867337 
L 343.93629 317.774553 
L 347.159833 317.681769 
L 350.383376 317.588985 
L 353.606919 317.496201 
L 356.830462 317.403417 
L 360.054005 317.310634 
L 363.277548 317.21785 
L 366.501092 317.125066 
L 369.724635 317.032282 
L 372.948178 316.939498 
L 376.171721 316.846714 
L 379.395264 316.75393 
L 382.618807 316.661146 
L 385.842351 316.568362 
L 389.065894 316.475578 
L 392.289437 316.382794 
" clip-path="url(#pdc52cd896c)" style="fill: none; stroke: #2cbdfe; stroke-width: 1.5; stroke-linecap: square"/>
   </g>
   <g id="line2d_17">
    <path d="M 73.158665 366.696307 
L 76.382208 366.49201 
L 79.605751 366.287713 
L 82.829294 366.083416 
L 86.052837 365.87912 
L 89.276381 365.674823 
L 92.499924 365.470526 
L 95.723467 365.266229 
L 98.94701 365.061932 
L 102.170553 364.857635 
L 105.394096 364.653339 
L 108.617639 364.449042 
L 111.841183 364.244745 
L 115.064726 364.040448 
L 118.288269 363.836151 
L 121.511812 363.631855 
L 124.735355 363.427558 
L 127.958898 363.223261 
L 131.182442 363.018964 
L 134.405985 362.814667 
L 137.629528 362.610371 
L 140.853071 362.406074 
L 144.076614 362.201777 
L 147.300157 361.99748 
L 150.5237 361.793183 
L 153.747244 361.588886 
L 156.970787 361.38459 
L 160.19433 361.180293 
L 163.417873 360.975996 
L 166.641416 360.771699 
L 169.864959 360.567402 
L 173.088502 360.363106 
L 176.312046 360.158809 
L 179.535589 359.954512 
L 182.759132 359.750215 
L 185.982675 359.545918 
L 189.206218 359.341622 
L 192.429761 359.137325 
L 195.653305 358.933028 
L 198.876848 358.728731 
L 202.100391 358.524434 
L 205.323934 358.320137 
L 208.547477 358.115841 
L 211.77102 357.911544 
L 214.994563 357.707247 
L 218.218107 357.50295 
L 221.44165 357.298653 
L 224.665193 357.094357 
L 227.888736 356.89006 
L 231.112279 356.685763 
L 234.335822 356.481466 
L 237.559366 356.277169 
L 240.782909 356.072873 
L 244.006452 355.868576 
L 247.229995 355.664279 
L 250.453538 355.459982 
L 253.677081 355.255685 
L 256.900624 355.051388 
L 260.124168 354.847092 
L 263.347711 354.642795 
L 266.571254 354.438498 
L 269.794797 354.234201 
L 273.01834 354.029904 
L 276.241883 353.825608 
L 279.465427 353.621311 
L 282.68897 353.417014 
L 285.912513 353.212717 
L 289.136056 353.00842 
L 292.359599 352.804124 
L 295.583142 352.599827 
L 298.806685 352.39553 
L 302.030229 352.191233 
L 305.253772 351.986936 
L 308.477315 351.782639 
L 311.700858 351.578343 
L 314.924401 351.374046 
L 318.147944 351.169749 
L 321.371488 350.965452 
L 324.595031 350.761155 
L 327.818574 350.556859 
L 331.042117 350.352562 
L 334.26566 350.148265 
L 337.489203 349.943968 
L 340.712746 349.739671 
L 343.93629 349.535374 
L 347.159833 349.331078 
L 350.383376 349.126781 
L 353.606919 348.922484 
L 356.830462 348.718187 
L 360.054005 348.51389 
L 363.277548 348.309594 
L 366.501092 348.105297 
L 369.724635 347.901 
L 372.948178 347.696703 
L 376.171721 347.492406 
L 379.395264 347.28811 
L 382.618807 347.083813 
L 385.842351 346.879516 
L 389.065894 346.675219 
L 392.289437 346.470922 
" clip-path="url(#pdc52cd896c)" style="fill: none; stroke: #f5b14c; stroke-width: 1.5; stroke-linecap: square"/>
   </g>
   <g id="line2d_18">
    <path d="M 73.158665 347.137921 
L 76.382208 341.978534 
L 79.605751 340.274436 
L 82.829294 339.654351 
L 86.052837 339.169768 
L 89.276381 338.685184 
L 92.499924 338.13285 
L 95.723467 337.580516 
L 98.94701 337.028182 
L 102.170553 336.543598 
L 105.394096 335.923513 
L 108.617639 335.303428 
L 111.841183 334.683343 
L 115.064726 334.063258 
L 118.288269 333.443173 
L 121.511812 332.890839 
L 124.735355 332.338505 
L 127.958898 331.786171 
L 131.182442 331.233837 
L 134.405985 330.749253 
L 137.629528 330.196919 
L 140.853071 329.644585 
L 144.076614 329.160002 
L 147.300157 328.607667 
L 150.5237 328.123084 
L 153.747244 327.638501 
L 156.970787 327.153917 
L 160.19433 326.669334 
L 163.417873 326.18475 
L 166.641416 325.700167 
L 169.864959 325.215584 
L 173.088502 324.731 
L 176.312046 324.246417 
L 179.535589 323.761833 
L 182.759132 323.345001 
L 185.982675 322.860417 
L 189.206218 322.443585 
L 192.429761 321.959001 
L 195.653305 321.60992 
L 198.876848 321.193087 
L 202.100391 320.844005 
L 205.323934 320.427172 
L 208.547477 320.01034 
L 211.77102 319.661258 
L 214.994563 319.244425 
L 218.218107 318.827593 
L 221.44165 318.478511 
L 224.665193 318.061678 
L 227.888736 317.712597 
L 231.112279 317.295764 
L 234.335822 316.946682 
L 237.559366 316.529849 
L 240.782909 316.180768 
L 244.006452 315.763935 
L 247.229995 315.414853 
L 250.453538 314.998021 
L 253.677081 314.648939 
L 256.900624 314.232106 
L 260.124168 313.883024 
L 263.347711 313.466192 
L 266.571254 313.11711 
L 269.794797 312.700277 
L 273.01834 312.351195 
L 276.241883 311.934363 
L 279.465427 311.585281 
L 282.68897 311.168448 
L 285.912513 310.819366 
L 289.136056 310.402534 
L 292.359599 310.053452 
L 295.583142 309.70437 
L 298.806685 309.287538 
L 302.030229 308.938456 
L 305.253772 308.589374 
L 308.477315 308.240292 
L 311.700858 307.89121 
L 314.924401 307.542128 
L 318.147944 307.193047 
L 321.371488 306.843965 
L 324.595031 306.494883 
L 327.818574 306.145801 
L 331.042117 305.796719 
L 334.26566 305.447637 
L 337.489203 305.098556 
L 340.712746 304.749474 
L 343.93629 304.400392 
L 347.159833 304.05131 
L 350.383376 303.634477 
L 353.606919 303.217645 
L 356.830462 302.800812 
L 360.054005 302.316229 
L 363.277548 301.899396 
L 366.501092 301.482564 
L 369.724635 301.065731 
L 372.948178 300.648898 
L 376.171721 300.232066 
L 379.395264 299.815233 
L 382.618807 299.3984 
L 385.842351 298.913817 
L 389.065894 298.496984 
L 392.289437 298.080152 
" clip-path="url(#pdc52cd896c)" style="fill: none; stroke: #661d98; stroke-width: 1.5; stroke-linecap: square"/>
   </g>
   <g id="line2d_19">
    <path d="M 73.158665 263.348341 
L 76.382208 239.106997 
L 79.605751 231.094659 
L 82.829294 228.173773 
L 86.052837 225.889319 
L 89.276381 223.604865 
L 92.499924 221.002195 
L 95.723467 218.399525 
L 98.94701 215.796855 
L 102.170553 213.512401 
L 105.394096 210.591515 
L 108.617639 207.67063 
L 111.841183 204.749744 
L 115.064726 201.828858 
L 118.288269 198.907972 
L 121.511812 196.305302 
L 124.735355 193.702633 
L 127.958898 191.099963 
L 131.182442 188.497293 
L 134.405985 186.212838 
L 137.629528 183.610169 
L 140.853071 181.007499 
L 144.076614 178.723044 
L 147.300157 176.120374 
L 150.5237 173.83592 
L 153.747244 171.551466 
L 156.970787 169.267012 
L 160.19433 166.982558 
L 163.417873 164.698104 
L 166.641416 162.413649 
L 169.864959 160.129195 
L 173.088502 157.844741 
L 176.312046 155.560287 
L 179.535589 153.275833 
L 182.759132 151.309594 
L 185.982675 149.02514 
L 189.206218 147.058902 
L 192.429761 144.774448 
L 195.653305 143.126425 
L 198.876848 141.160187 
L 202.100391 139.512164 
L 205.323934 137.545926 
L 208.547477 135.579687 
L 211.77102 133.931665 
L 214.994563 131.965426 
L 218.218107 129.999188 
L 221.44165 128.351165 
L 224.665193 126.384927 
L 227.888736 124.736905 
L 231.112279 122.770666 
L 234.335822 121.122644 
L 237.559366 119.156405 
L 240.782909 117.508383 
L 244.006452 115.542144 
L 247.229995 113.894122 
L 250.453538 111.927883 
L 253.677081 110.279861 
L 256.900624 108.313622 
L 260.124168 106.6656 
L 263.347711 104.699361 
L 266.571254 103.051339 
L 269.794797 101.0851 
L 273.01834 99.437078 
L 276.241883 97.470839 
L 279.465427 95.822817 
L 282.68897 93.856578 
L 285.912513 92.208556 
L 289.136056 90.242317 
L 292.359599 88.594295 
L 295.583142 86.946272 
L 298.806685 84.980034 
L 302.030229 83.332011 
L 305.253772 81.683989 
L 308.477315 80.035966 
L 311.700858 78.387943 
L 314.924401 76.739921 
L 318.147944 75.091898 
L 321.371488 73.443876 
L 324.595031 71.795853 
L 327.818574 70.14783 
L 331.042117 68.499808 
L 334.26566 66.851785 
L 337.489203 65.203763 
L 340.712746 63.55574 
L 343.93629 61.907718 
L 347.159833 60.259695 
L 350.383376 58.293457 
L 353.606919 56.327218 
L 356.830462 54.36098 
L 360.054005 52.076526 
L 363.277548 50.110287 
L 366.501092 48.144049 
L 369.724635 46.17781 
L 372.948178 44.211572 
L 376.171721 42.245334 
L 379.395264 40.279095 
L 382.618807 38.312857 
L 385.842351 36.028403 
L 389.065894 34.062164 
L 392.289437 32.095926 
" clip-path="url(#pdc52cd896c)" style="fill: none; stroke-dasharray: 1.5,2.475; stroke-dashoffset: 0; stroke: #000000; stroke-width: 1.5"/>
   </g>
   <g id="patch_3">
    <path d="M 56.928125 383.64375 
L 56.928125 10.8 
" style="fill: none; stroke: #000000; stroke-linejoin: miter; stroke-linecap: square"/>
   </g>
   <g id="patch_4">
    <path d="M 414 383.64375 
L 414 10.8 
" style="fill: none; stroke: #000000; stroke-linejoin: miter; stroke-linecap: square"/>
   </g>
   <g id="patch_5">
    <path d="M 56.928125 383.64375 
L 414 383.64375 
" style="fill: none; stroke: #000000; stroke-linejoin: miter; stroke-linecap: square"/>
   </g>
   <g id="patch_6">
    <path d="M 56.928125 10.8 
L 414 10.8 
" style="fill: none; stroke: #000000; stroke-linejoin: miter; stroke-linecap: square"/>
   </g>
   <g id="legend_1">
    <g id="patch_7">
     <path d="M 63.928125 106.86875 
L 176.554688 106.86875 
Q 178.554688 106.86875 178.554688 104.86875 
L 178.554688 17.8 
Q 178.554688 15.8 176.554688 15.8 
L 63.928125 15.8 
Q 61.928125 15.8 61.928125 17.8 
L 61.928125 104.86875 
Q 61.928125 106.86875 63.928125 106.86875 
z
" style="fill: #ffffff; opacity: 0.8; stroke: #cccccc; stroke-linejoin: miter"/>
    </g>
    <g id="line2d_20">
     <path d="M 65.928125 23.898438 
L 75.928125 23.898438 
L 85.928125 23.898438 
" style="fill: none; stroke: #ff0000; stroke-width: 1.5; stroke-linecap: square"/>
    </g>
    <g id="text_16">
     <!-- (Desset et al) -->
     <g transform="translate(93.928125 27.398438) scale(0.1 -0.1)">
      <defs>
       <path id="DejaVuSerif-28" d="M 2041 -997 
Q 1281 -656 893 83 
Q 506 822 506 1931 
Q 506 3044 893 3783 
Q 1281 4522 2041 4863 
L 2041 4556 
Q 1559 4225 1350 3623 
Q 1141 3022 1141 1931 
Q 1141 844 1350 242 
Q 1559 -359 2041 -691 
L 2041 -997 
z
" transform="scale(0.015625)"/>
       <path id="DejaVuSerif-44" d="M 1581 331 
L 2163 331 
Q 3072 331 3558 850 
Q 4044 1369 4044 2338 
Q 4044 3306 3559 3818 
Q 3075 4331 2163 4331 
L 1581 4331 
L 1581 331 
z
M 353 0 
L 353 331 
L 947 331 
L 947 4331 
L 353 4331 
L 353 4666 
L 2209 4666 
Q 3416 4666 4089 4050 
Q 4763 3434 4763 2338 
Q 4763 1238 4088 619 
Q 3413 0 2209 0 
L 353 0 
z
" transform="scale(0.015625)"/>
       <path id="DejaVuSerif-73" d="M 359 184 
L 359 959 
L 691 959 
Q 703 588 923 403 
Q 1144 219 1575 219 
Q 1963 219 2166 364 
Q 2369 509 2369 788 
Q 2369 1006 2220 1140 
Q 2072 1275 1594 1428 
L 1178 1569 
Q 750 1706 558 1912 
Q 366 2119 366 2438 
Q 366 2894 700 3153 
Q 1034 3413 1625 3413 
Q 1888 3413 2178 3344 
Q 2469 3275 2778 3144 
L 2778 2419 
L 2447 2419 
Q 2434 2741 2221 2922 
Q 2009 3103 1644 3103 
Q 1281 3103 1095 2975 
Q 909 2847 909 2591 
Q 909 2381 1050 2254 
Q 1191 2128 1613 1997 
L 2069 1856 
Q 2541 1709 2748 1489 
Q 2956 1269 2956 922 
Q 2956 450 2595 179 
Q 2234 -91 1600 -91 
Q 1278 -91 972 -22 
Q 666 47 359 184 
z
" transform="scale(0.015625)"/>
       <path id="DejaVuSerif-74" d="M 691 2988 
L 184 2988 
L 184 3322 
L 691 3322 
L 691 4353 
L 1269 4353 
L 1269 3322 
L 2350 3322 
L 2350 2988 
L 1269 2988 
L 1269 878 
Q 1269 456 1350 337 
Q 1431 219 1650 219 
Q 1875 219 1978 351 
Q 2081 484 2088 781 
L 2522 781 
Q 2497 328 2275 118 
Q 2053 -91 1600 -91 
Q 1103 -91 897 129 
Q 691 350 691 878 
L 691 2988 
z
" transform="scale(0.015625)"/>
       <path id="DejaVuSerif-6c" d="M 1313 331 
L 1856 331 
L 1856 0 
L 184 0 
L 184 331 
L 738 331 
L 738 4531 
L 184 4531 
L 184 4863 
L 1313 4863 
L 1313 331 
z
" transform="scale(0.015625)"/>
       <path id="DejaVuSerif-29" d="M 453 -997 
L 453 -691 
Q 934 -359 1145 242 
Q 1356 844 1356 1931 
Q 1356 3022 1145 3623 
Q 934 4225 453 4556 
L 453 4863 
Q 1216 4522 1603 3783 
Q 1991 3044 1991 1931 
Q 1991 822 1603 83 
Q 1216 -656 453 -997 
z
" transform="scale(0.015625)"/>
      </defs>
      <use xlink:href="#DejaVuSerif-28"/>
      <use xlink:href="#DejaVuSerif-44" x="39.013672"/>
      <use xlink:href="#DejaVuSerif-65" x="119.189453"/>
      <use xlink:href="#DejaVuSerif-73" x="178.369141"/>
      <use xlink:href="#DejaVuSerif-73" x="229.6875"/>
      <use xlink:href="#DejaVuSerif-65" x="281.005859"/>
      <use xlink:href="#DejaVuSerif-74" x="340.185547"/>
      <use xlink:href="#DejaVuSerif-20" x="380.371094"/>
      <use xlink:href="#DejaVuSerif-65" x="412.158203"/>
      <use xlink:href="#DejaVuSerif-74" x="471.337891"/>
      <use xlink:href="#DejaVuSerif-20" x="511.523438"/>
      <use xlink:href="#DejaVuSerif-61" x="543.310547"/>
      <use xlink:href="#DejaVuSerif-6c" x="602.929688"/>
      <use xlink:href="#DejaVuSerif-29" x="634.912109"/>
     </g>
    </g>
    <g id="line2d_21">
     <path d="M 65.928125 38.576563 
L 75.928125 38.576563 
L 85.928125 38.576563 
" style="fill: none; stroke: #47dbcd; stroke-width: 1.5; stroke-linecap: square"/>
    </g>
    <g id="text_17">
     <!-- Power amplifier -->
     <g transform="translate(93.928125 42.076563) scale(0.1 -0.1)">
      <defs>
       <path id="DejaVuSerif-6d" d="M 3316 2675 
Q 3481 3041 3739 3227 
Q 3997 3413 4341 3413 
Q 4863 3413 5119 3089 
Q 5375 2766 5375 2113 
L 5375 331 
L 5894 331 
L 5894 0 
L 4300 0 
L 4300 331 
L 4800 331 
L 4800 2047 
Q 4800 2556 4650 2772 
Q 4500 2988 4153 2988 
Q 3769 2988 3567 2697 
Q 3366 2406 3366 1850 
L 3366 331 
L 3866 331 
L 3866 0 
L 2291 0 
L 2291 331 
L 2791 331 
L 2791 2069 
Q 2791 2566 2641 2777 
Q 2491 2988 2144 2988 
Q 1759 2988 1557 2697 
Q 1356 2406 1356 1850 
L 1356 331 
L 1856 331 
L 1856 0 
L 263 0 
L 263 331 
L 781 331 
L 781 2994 
L 231 2994 
L 231 3322 
L 1356 3322 
L 1356 2731 
Q 1516 3063 1762 3238 
Q 2009 3413 2322 3413 
Q 2709 3413 2968 3220 
Q 3228 3028 3316 2675 
z
" transform="scale(0.015625)"/>
       <path id="DejaVuSerif-70" d="M 1313 1825 
L 1313 1497 
Q 1313 897 1542 583 
Q 1772 269 2209 269 
Q 2650 269 2876 622 
Q 3103 975 3103 1663 
Q 3103 2353 2876 2703 
Q 2650 3053 2209 3053 
Q 1772 3053 1542 2737 
Q 1313 2422 1313 1825 
z
M 738 2988 
L 184 2988 
L 184 3322 
L 1313 3322 
L 1313 2803 
Q 1481 3116 1742 3264 
Q 2003 3413 2388 3413 
Q 3000 3413 3387 2928 
Q 3775 2444 3775 1663 
Q 3775 881 3387 395 
Q 3000 -91 2388 -91 
Q 2003 -91 1742 57 
Q 1481 206 1313 519 
L 1313 -997 
L 1856 -997 
L 1856 -1331 
L 184 -1331 
L 184 -997 
L 738 -997 
L 738 2988 
z
" transform="scale(0.015625)"/>
       <path id="DejaVuSerif-69" d="M 622 4353 
Q 622 4497 726 4603 
Q 831 4709 978 4709 
Q 1122 4709 1226 4603 
Q 1331 4497 1331 4353 
Q 1331 4206 1228 4103 
Q 1125 4000 978 4000 
Q 831 4000 726 4103 
Q 622 4206 622 4353 
z
M 1356 331 
L 1900 331 
L 1900 0 
L 231 0 
L 231 331 
L 781 331 
L 781 2988 
L 231 2988 
L 231 3322 
L 1356 3322 
L 1356 331 
z
" transform="scale(0.015625)"/>
       <path id="DejaVuSerif-66" d="M 2753 4078 
L 2450 4078 
Q 2447 4313 2317 4434 
Q 2188 4556 1941 4556 
Q 1619 4556 1487 4379 
Q 1356 4203 1356 3750 
L 1356 3322 
L 2284 3322 
L 2284 2988 
L 1356 2988 
L 1356 331 
L 2094 331 
L 2094 0 
L 231 0 
L 231 331 
L 781 331 
L 781 2988 
L 231 2988 
L 231 3322 
L 781 3322 
L 781 3738 
Q 781 4294 1070 4578 
Q 1359 4863 1919 4863 
Q 2128 4863 2337 4825 
Q 2547 4788 2753 4709 
L 2753 4078 
z
" transform="scale(0.015625)"/>
      </defs>
      <use xlink:href="#DejaVuSerif-50"/>
      <use xlink:href="#DejaVuSerif-6f" x="63.285156"/>
      <use xlink:href="#DejaVuSerif-77" x="123.490234"/>
      <use xlink:href="#DejaVuSerif-65" x="209.085938"/>
      <use xlink:href="#DejaVuSerif-72" x="268.265625"/>
      <use xlink:href="#DejaVuSerif-20" x="316.068359"/>
      <use xlink:href="#DejaVuSerif-61" x="347.855469"/>
      <use xlink:href="#DejaVuSerif-6d" x="407.474609"/>
      <use xlink:href="#DejaVuSerif-70" x="502.298828"/>
      <use xlink:href="#DejaVuSerif-6c" x="566.3125"/>
      <use xlink:href="#DejaVuSerif-69" x="598.294922"/>
      <use xlink:href="#DejaVuSerif-66" x="630.277344"/>
      <use xlink:href="#DejaVuSerif-69" x="667.289062"/>
      <use xlink:href="#DejaVuSerif-65" x="699.271484"/>
      <use xlink:href="#DejaVuSerif-72" x="758.451172"/>
     </g>
    </g>
    <g id="line2d_22">
     <path d="M 65.928125 53.254688 
L 75.928125 53.254688 
L 85.928125 53.254688 
" style="fill: none; stroke: #2cbdfe; stroke-width: 1.5; stroke-linecap: square"/>
    </g>
    <g id="text_18">
     <!-- Baseband -->
     <g transform="translate(93.928125 56.754688) scale(0.1 -0.1)">
      <defs>
       <path id="DejaVuSerif-42" d="M 1581 331 
L 2516 331 
Q 3078 331 3337 575 
Q 3597 819 3597 1350 
Q 3597 1878 3339 2120 
Q 3081 2363 2516 2363 
L 1581 2363 
L 1581 331 
z
M 1581 2694 
L 2375 2694 
Q 2888 2694 3123 2891 
Q 3359 3088 3359 3513 
Q 3359 3941 3123 4136 
Q 2888 4331 2375 4331 
L 1581 4331 
L 1581 2694 
z
M 353 0 
L 353 331 
L 947 331 
L 947 4331 
L 353 4331 
L 353 4666 
L 2656 4666 
Q 3363 4666 3720 4377 
Q 4078 4088 4078 3513 
Q 4078 3097 3829 2850 
Q 3581 2603 3103 2547 
Q 3697 2472 4005 2167 
Q 4313 1863 4313 1350 
Q 4313 656 3875 328 
Q 3438 0 2509 0 
L 353 0 
z
" transform="scale(0.015625)"/>
       <path id="DejaVuSerif-62" d="M 738 331 
L 738 4531 
L 184 4531 
L 184 4863 
L 1313 4863 
L 1313 2803 
Q 1481 3116 1742 3264 
Q 2003 3413 2388 3413 
Q 3000 3413 3387 2928 
Q 3775 2444 3775 1663 
Q 3775 881 3387 395 
Q 3000 -91 2388 -91 
Q 2003 -91 1742 57 
Q 1481 206 1313 519 
L 1313 0 
L 184 0 
L 184 331 
L 738 331 
z
M 1313 1497 
Q 1313 897 1542 583 
Q 1772 269 2209 269 
Q 2650 269 2876 622 
Q 3103 975 3103 1663 
Q 3103 2353 2876 2703 
Q 2650 3053 2209 3053 
Q 1772 3053 1542 2737 
Q 1313 2422 1313 1825 
L 1313 1497 
z
" transform="scale(0.015625)"/>
       <path id="DejaVuSerif-6e" d="M 263 0 
L 263 331 
L 781 331 
L 781 2988 
L 231 2988 
L 231 3322 
L 1356 3322 
L 1356 2731 
Q 1516 3069 1770 3241 
Q 2025 3413 2363 3413 
Q 2913 3413 3172 3097 
Q 3431 2781 3431 2113 
L 3431 331 
L 3944 331 
L 3944 0 
L 2356 0 
L 2356 331 
L 2853 331 
L 2853 1931 
Q 2853 2541 2703 2767 
Q 2553 2994 2175 2994 
Q 1775 2994 1565 2701 
Q 1356 2409 1356 1850 
L 1356 331 
L 1856 331 
L 1856 0 
L 263 0 
z
" transform="scale(0.015625)"/>
      </defs>
      <use xlink:href="#DejaVuSerif-42"/>
      <use xlink:href="#DejaVuSerif-61" x="73.486328"/>
      <use xlink:href="#DejaVuSerif-73" x="133.105469"/>
      <use xlink:href="#DejaVuSerif-65" x="184.423828"/>
      <use xlink:href="#DejaVuSerif-62" x="243.603516"/>
      <use xlink:href="#DejaVuSerif-61" x="307.617188"/>
      <use xlink:href="#DejaVuSerif-6e" x="367.236328"/>
      <use xlink:href="#DejaVuSerif-64" x="431.640625"/>
     </g>
    </g>
    <g id="line2d_23">
     <path d="M 65.928125 67.932813 
L 75.928125 67.932813 
L 85.928125 67.932813 
" style="fill: none; stroke: #f5b14c; stroke-width: 1.5; stroke-linecap: square"/>
    </g>
    <g id="text_19">
     <!-- Radio -->
     <g transform="translate(93.928125 71.432813) scale(0.1 -0.1)">
      <defs>
       <path id="DejaVuSerif-52" d="M 3066 2316 
Q 3284 2256 3442 2114 
Q 3600 1972 3725 1716 
L 4403 331 
L 4972 331 
L 4972 0 
L 3872 0 
L 3144 1484 
Q 2934 1916 2759 2042 
Q 2584 2169 2278 2169 
L 1581 2169 
L 1581 331 
L 2241 331 
L 2241 0 
L 353 0 
L 353 331 
L 947 331 
L 947 4331 
L 353 4331 
L 353 4666 
L 2719 4666 
Q 3400 4666 3770 4341 
Q 4141 4016 4141 3419 
Q 4141 2938 3870 2661 
Q 3600 2384 3066 2316 
z
M 1581 2503 
L 2503 2503 
Q 2975 2503 3200 2726 
Q 3425 2950 3425 3419 
Q 3425 3888 3200 4109 
Q 2975 4331 2503 4331 
L 1581 4331 
L 1581 2503 
z
" transform="scale(0.015625)"/>
      </defs>
      <use xlink:href="#DejaVuSerif-52"/>
      <use xlink:href="#DejaVuSerif-61" x="77.542969"/>
      <use xlink:href="#DejaVuSerif-64" x="137.162109"/>
      <use xlink:href="#DejaVuSerif-69" x="201.175781"/>
      <use xlink:href="#DejaVuSerif-6f" x="233.158203"/>
     </g>
    </g>
    <g id="line2d_24">
     <path d="M 65.928125 82.610938 
L 75.928125 82.610938 
L 85.928125 82.610938 
" style="fill: none; stroke: #661d98; stroke-width: 1.5; stroke-linecap: square"/>
    </g>
    <g id="text_20">
     <!-- Overhead -->
     <g transform="translate(93.928125 86.110938) scale(0.1 -0.1)">
      <defs>
       <path id="DejaVuSerif-4f" d="M 2625 244 
Q 3391 244 3781 770 
Q 4172 1297 4172 2328 
Q 4172 3363 3781 3889 
Q 3391 4416 2625 4416 
Q 1856 4416 1465 3889 
Q 1075 3363 1075 2328 
Q 1075 1297 1465 770 
Q 1856 244 2625 244 
z
M 2625 -91 
Q 2150 -91 1751 65 
Q 1353 222 1050 525 
Q 700 875 529 1319 
Q 359 1763 359 2328 
Q 359 2894 529 3339 
Q 700 3784 1050 4134 
Q 1356 4441 1750 4595 
Q 2144 4750 2625 4750 
Q 3641 4750 4266 4084 
Q 4891 3419 4891 2328 
Q 4891 1769 4719 1320 
Q 4547 872 4197 525 
Q 3891 219 3497 64 
Q 3103 -91 2625 -91 
z
" transform="scale(0.015625)"/>
       <path id="DejaVuSerif-76" d="M 1581 0 
L 359 2988 
L -19 2988 
L -19 3322 
L 1509 3322 
L 1509 2988 
L 978 2988 
L 1913 703 
L 2847 2988 
L 2350 2988 
L 2350 3322 
L 3597 3322 
L 3597 2988 
L 3225 2988 
L 2003 0 
L 1581 0 
z
" transform="scale(0.015625)"/>
       <path id="DejaVuSerif-68" d="M 263 0 
L 263 331 
L 781 331 
L 781 4531 
L 231 4531 
L 231 4863 
L 1356 4863 
L 1356 2731 
Q 1516 3069 1770 3241 
Q 2025 3413 2363 3413 
Q 2913 3413 3172 3097 
Q 3431 2781 3431 2113 
L 3431 331 
L 3944 331 
L 3944 0 
L 2356 0 
L 2356 331 
L 2853 331 
L 2853 1931 
Q 2853 2541 2704 2764 
Q 2556 2988 2175 2988 
Q 1775 2988 1565 2697 
Q 1356 2406 1356 1850 
L 1356 331 
L 1856 331 
L 1856 0 
L 263 0 
z
" transform="scale(0.015625)"/>
      </defs>
      <use xlink:href="#DejaVuSerif-4f"/>
      <use xlink:href="#DejaVuSerif-76" x="81.982422"/>
      <use xlink:href="#DejaVuSerif-65" x="138.476562"/>
      <use xlink:href="#DejaVuSerif-72" x="197.65625"/>
      <use xlink:href="#DejaVuSerif-68" x="245.458984"/>
      <use xlink:href="#DejaVuSerif-65" x="309.863281"/>
      <use xlink:href="#DejaVuSerif-61" x="369.042969"/>
      <use xlink:href="#DejaVuSerif-64" x="428.662109"/>
     </g>
    </g>
    <g id="line2d_25">
     <path d="M 65.928125 97.289063 
L 75.928125 97.289063 
L 85.928125 97.289063 
" style="fill: none; stroke-dasharray: 1.5,2.475; stroke-dashoffset: 0; stroke: #000000; stroke-width: 1.5"/>
    </g>
    <g id="text_21">
     <!-- total -->
     <g transform="translate(93.928125 100.789063) scale(0.1 -0.1)">
      <use xlink:href="#DejaVuSerif-74"/>
      <use xlink:href="#DejaVuSerif-6f" x="40.185547"/>
      <use xlink:href="#DejaVuSerif-74" x="100.390625"/>
      <use xlink:href="#DejaVuSerif-61" x="140.576172"/>
      <use xlink:href="#DejaVuSerif-6c" x="200.195312"/>
     </g>
    </g>
   </g>
  </g>
 </g>
 <defs>
  <clipPath id="pdc52cd896c">
   <rect x="56.928125" y="10.8" width="357.071875" height="372.84375"/>
  </clipPath>
 </defs>
</svg>
