<?xml version="1.0" encoding="utf-8" standalone="no"?>
<!DOCTYPE svg PUBLIC "-//W3C//DTD SVG 1.1//EN"
  "http://www.w3.org/Graphics/SVG/1.1/DTD/svg11.dtd">
<svg xmlns:xlink="http://www.w3.org/1999/xlink" width="425.19685pt" height="425.19685pt" viewBox="0 0 425.19685 425.19685" xmlns="http://www.w3.org/2000/svg" version="1.1">
 <metadata>
  <rdf:RDF xmlns:dc="http://purl.org/dc/elements/1.1/" xmlns:cc="http://creativecommons.org/ns#" xmlns:rdf="http://www.w3.org/1999/02/22-rdf-syntax-ns#">
   <cc:Work>
    <dc:type rdf:resource="http://purl.org/dc/dcmitype/StillImage"/>
    <dc:date>2024-06-17T15:04:30.861497</dc:date>
    <dc:format>image/svg+xml</dc:format>
    <dc:creator>
     <cc:Agent>
      <dc:title>Matplotlib v3.9.0, https://matplotlib.org/</dc:title>
     </cc:Agent>
    </dc:creator>
   </cc:Work>
  </rdf:RDF>
 </metadata>
 <defs>
  <style type="text/css">*{stroke-linejoin: round; stroke-linecap: butt}</style>
 </defs>
 <g id="figure_1">
  <g id="patch_1">
   <path d="M 0 425.19685 
L 425.19685 425.19685 
L 425.19685 0 
L 0 0 
z
" style="fill: #ffffff"/>
  </g>
  <g id="axes_1">
   <g id="patch_2">
    <path d="M 56.928125 384.0406 
L 414.39685 384.0406 
L 414.39685 10.8 
L 56.928125 10.8 
z
" style="fill: #ffffff"/>
   </g>
   <g id="matplotlib.axis_1">
    <g id="xtick_1">
     <g id="line2d_1">
      <defs>
       <path id="m68a032eeea" d="M 0 0 
L 0 3.5 
" style="stroke: #000000; stroke-width: 0.8"/>
      </defs>
      <g>
       <use xlink:href="#m68a032eeea" x="73.176703" y="384.0406" style="stroke: #000000; stroke-width: 0.8"/>
      </g>
     </g>
     <g id="text_1">
      <!-- 0 -->
      <g transform="translate(69.995453 398.639038) scale(0.1 -0.1)">
       <defs>
        <path id="DejaVuSerif-30" d="M 2034 219 
Q 2513 219 2750 744 
Q 2988 1269 2988 2328 
Q 2988 3391 2750 3916 
Q 2513 4441 2034 4441 
Q 1556 4441 1318 3916 
Q 1081 3391 1081 2328 
Q 1081 1269 1318 744 
Q 1556 219 2034 219 
z
M 2034 -91 
Q 1275 -91 848 546 
Q 422 1184 422 2328 
Q 422 3475 848 4112 
Q 1275 4750 2034 4750 
Q 2797 4750 3222 4112 
Q 3647 3475 3647 2328 
Q 3647 1184 3222 546 
Q 2797 -91 2034 -91 
z
" transform="scale(0.015625)"/>
       </defs>
       <use xlink:href="#DejaVuSerif-30"/>
      </g>
     </g>
    </g>
    <g id="xtick_2">
     <g id="line2d_2">
      <g>
       <use xlink:href="#m68a032eeea" x="137.71922" y="384.0406" style="stroke: #000000; stroke-width: 0.8"/>
      </g>
     </g>
     <g id="text_2">
      <!-- 20 -->
      <g transform="translate(131.35672 398.639038) scale(0.1 -0.1)">
       <defs>
        <path id="DejaVuSerif-32" d="M 819 3553 
L 469 3553 
L 469 4384 
Q 803 4563 1142 4656 
Q 1481 4750 1806 4750 
Q 2534 4750 2956 4397 
Q 3378 4044 3378 3438 
Q 3378 2753 2422 1800 
Q 2347 1728 2309 1691 
L 1131 513 
L 3078 513 
L 3078 1088 
L 3444 1088 
L 3444 0 
L 434 0 
L 434 341 
L 1850 1753 
Q 2319 2222 2519 2614 
Q 2719 3006 2719 3438 
Q 2719 3909 2473 4175 
Q 2228 4441 1797 4441 
Q 1350 4441 1106 4219 
Q 863 3997 819 3553 
z
" transform="scale(0.015625)"/>
       </defs>
       <use xlink:href="#DejaVuSerif-32"/>
       <use xlink:href="#DejaVuSerif-30" x="63.623047"/>
      </g>
     </g>
    </g>
    <g id="xtick_3">
     <g id="line2d_3">
      <g>
       <use xlink:href="#m68a032eeea" x="202.261736" y="384.0406" style="stroke: #000000; stroke-width: 0.8"/>
      </g>
     </g>
     <g id="text_3">
      <!-- 40 -->
      <g transform="translate(195.899236 398.639038) scale(0.1 -0.1)">
       <defs>
        <path id="DejaVuSerif-34" d="M 2234 1581 
L 2234 4063 
L 641 1581 
L 2234 1581 
z
M 3609 0 
L 1484 0 
L 1484 331 
L 2234 331 
L 2234 1247 
L 197 1247 
L 197 1588 
L 2241 4750 
L 2859 4750 
L 2859 1581 
L 3750 1581 
L 3750 1247 
L 2859 1247 
L 2859 331 
L 3609 331 
L 3609 0 
z
" transform="scale(0.015625)"/>
       </defs>
       <use xlink:href="#DejaVuSerif-34"/>
       <use xlink:href="#DejaVuSerif-30" x="63.623047"/>
      </g>
     </g>
    </g>
    <g id="xtick_4">
     <g id="line2d_4">
      <g>
       <use xlink:href="#m68a032eeea" x="266.804252" y="384.0406" style="stroke: #000000; stroke-width: 0.8"/>
      </g>
     </g>
     <g id="text_4">
      <!-- 60 -->
      <g transform="translate(260.441752 398.639038) scale(0.1 -0.1)">
       <defs>
        <path id="DejaVuSerif-36" d="M 2094 219 
Q 2534 219 2771 542 
Q 3009 866 3009 1472 
Q 3009 2078 2771 2401 
Q 2534 2725 2094 2725 
Q 1647 2725 1412 2412 
Q 1178 2100 1178 1509 
Q 1178 888 1415 553 
Q 1653 219 2094 219 
z
M 1075 2569 
Q 1288 2803 1556 2918 
Q 1825 3034 2163 3034 
Q 2859 3034 3264 2615 
Q 3669 2197 3669 1472 
Q 3669 763 3233 336 
Q 2797 -91 2069 -91 
Q 1278 -91 853 498 
Q 428 1088 428 2181 
Q 428 3406 931 4078 
Q 1434 4750 2350 4750 
Q 2597 4750 2869 4703 
Q 3141 4656 3425 4563 
L 3425 3794 
L 3072 3794 
Q 3034 4109 2831 4275 
Q 2628 4441 2284 4441 
Q 1678 4441 1381 3981 
Q 1084 3522 1075 2569 
z
" transform="scale(0.015625)"/>
       </defs>
       <use xlink:href="#DejaVuSerif-36"/>
       <use xlink:href="#DejaVuSerif-30" x="63.623047"/>
      </g>
     </g>
    </g>
    <g id="xtick_5">
     <g id="line2d_5">
      <g>
       <use xlink:href="#m68a032eeea" x="331.346768" y="384.0406" style="stroke: #000000; stroke-width: 0.8"/>
      </g>
     </g>
     <g id="text_5">
      <!-- 80 -->
      <g transform="translate(324.984268 398.639038) scale(0.1 -0.1)">
       <defs>
        <path id="DejaVuSerif-38" d="M 2981 1275 
Q 2981 1775 2732 2051 
Q 2484 2328 2034 2328 
Q 1584 2328 1336 2051 
Q 1088 1775 1088 1275 
Q 1088 772 1336 495 
Q 1584 219 2034 219 
Q 2484 219 2732 495 
Q 2981 772 2981 1275 
z
M 2853 3541 
Q 2853 3966 2637 4203 
Q 2422 4441 2034 4441 
Q 1650 4441 1433 4203 
Q 1216 3966 1216 3541 
Q 1216 3113 1433 2875 
Q 1650 2638 2034 2638 
Q 2422 2638 2637 2875 
Q 2853 3113 2853 3541 
z
M 2516 2484 
Q 3047 2413 3344 2092 
Q 3641 1772 3641 1275 
Q 3641 619 3225 264 
Q 2809 -91 2034 -91 
Q 1263 -91 845 264 
Q 428 619 428 1275 
Q 428 1772 725 2092 
Q 1022 2413 1556 2484 
Q 1084 2569 832 2842 
Q 581 3116 581 3541 
Q 581 4103 968 4426 
Q 1356 4750 2034 4750 
Q 2713 4750 3100 4426 
Q 3488 4103 3488 3541 
Q 3488 3116 3236 2842 
Q 2984 2569 2516 2484 
z
" transform="scale(0.015625)"/>
       </defs>
       <use xlink:href="#DejaVuSerif-38"/>
       <use xlink:href="#DejaVuSerif-30" x="63.623047"/>
      </g>
     </g>
    </g>
    <g id="xtick_6">
     <g id="line2d_6">
      <g>
       <use xlink:href="#m68a032eeea" x="395.889284" y="384.0406" style="stroke: #000000; stroke-width: 0.8"/>
      </g>
     </g>
     <g id="text_6">
      <!-- 100 -->
      <g transform="translate(386.345534 398.639038) scale(0.1 -0.1)">
       <defs>
        <path id="DejaVuSerif-31" d="M 909 0 
L 909 331 
L 1722 331 
L 1722 4213 
L 781 3603 
L 781 4013 
L 1919 4750 
L 2350 4750 
L 2350 331 
L 3163 331 
L 3163 0 
L 909 0 
z
" transform="scale(0.015625)"/>
       </defs>
       <use xlink:href="#DejaVuSerif-31"/>
       <use xlink:href="#DejaVuSerif-30" x="63.623047"/>
       <use xlink:href="#DejaVuSerif-30" x="127.246094"/>
      </g>
     </g>
    </g>
    <g id="text_7">
     <!-- Load / % -->
     <g transform="translate(213.536706 412.317163) scale(0.1 -0.1)">
      <defs>
       <path id="DejaVuSerif-4c" d="M 353 0 
L 353 331 
L 947 331 
L 947 4331 
L 353 4331 
L 353 4666 
L 2175 4666 
L 2175 4331 
L 1581 4331 
L 1581 384 
L 3713 384 
L 3713 1166 
L 4097 1166 
L 4097 0 
L 353 0 
z
" transform="scale(0.015625)"/>
       <path id="DejaVuSerif-6f" d="M 1925 219 
Q 2388 219 2623 584 
Q 2859 950 2859 1663 
Q 2859 2375 2623 2739 
Q 2388 3103 1925 3103 
Q 1463 3103 1227 2739 
Q 991 2375 991 1663 
Q 991 950 1228 584 
Q 1466 219 1925 219 
z
M 1925 -91 
Q 1200 -91 759 389 
Q 319 869 319 1663 
Q 319 2456 758 2934 
Q 1197 3413 1925 3413 
Q 2653 3413 3092 2934 
Q 3531 2456 3531 1663 
Q 3531 869 3092 389 
Q 2653 -91 1925 -91 
z
" transform="scale(0.015625)"/>
       <path id="DejaVuSerif-61" d="M 2547 1044 
L 2547 1747 
L 1806 1747 
Q 1378 1747 1168 1562 
Q 959 1378 959 997 
Q 959 650 1171 447 
Q 1384 244 1747 244 
Q 2106 244 2326 466 
Q 2547 688 2547 1044 
z
M 3122 2075 
L 3122 331 
L 3634 331 
L 3634 0 
L 2547 0 
L 2547 359 
Q 2356 128 2106 18 
Q 1856 -91 1522 -91 
Q 969 -91 644 203 
Q 319 497 319 997 
Q 319 1513 691 1797 
Q 1063 2081 1741 2081 
L 2547 2081 
L 2547 2309 
Q 2547 2688 2317 2895 
Q 2088 3103 1672 3103 
Q 1328 3103 1125 2947 
Q 922 2791 872 2484 
L 575 2484 
L 575 3156 
Q 875 3284 1158 3348 
Q 1441 3413 1709 3413 
Q 2400 3413 2761 3070 
Q 3122 2728 3122 2075 
z
" transform="scale(0.015625)"/>
       <path id="DejaVuSerif-64" d="M 3359 331 
L 3909 331 
L 3909 0 
L 2784 0 
L 2784 519 
Q 2616 206 2355 57 
Q 2094 -91 1709 -91 
Q 1097 -91 708 395 
Q 319 881 319 1663 
Q 319 2444 706 2928 
Q 1094 3413 1709 3413 
Q 2094 3413 2355 3264 
Q 2616 3116 2784 2803 
L 2784 4531 
L 2241 4531 
L 2241 4863 
L 3359 4863 
L 3359 331 
z
M 2784 1497 
L 2784 1825 
Q 2784 2422 2554 2737 
Q 2325 3053 1888 3053 
Q 1444 3053 1217 2703 
Q 991 2353 991 1663 
Q 991 975 1217 622 
Q 1444 269 1888 269 
Q 2325 269 2554 583 
Q 2784 897 2784 1497 
z
" transform="scale(0.015625)"/>
       <path id="DejaVuSerif-20" transform="scale(0.015625)"/>
       <path id="DejaVuSerif-2f" d="M 1656 4666 
L 2156 4666 
L 500 -594 
L 0 -594 
L 1656 4666 
z
" transform="scale(0.015625)"/>
       <path id="DejaVuSerif-25" d="M 1434 4459 
Q 1159 4459 1004 4200 
Q 850 3941 850 3475 
Q 850 3016 1008 2753 
Q 1166 2491 1434 2491 
Q 1700 2491 1854 2752 
Q 2009 3013 2009 3475 
Q 2009 3938 1854 4198 
Q 1700 4459 1434 4459 
z
M 4653 2169 
Q 4381 2169 4226 1906 
Q 4072 1644 4072 1178 
Q 4072 719 4228 458 
Q 4384 197 4653 197 
Q 4922 197 5075 458 
Q 5228 719 5228 1178 
Q 5228 1641 5073 1905 
Q 4919 2169 4653 2169 
z
M 4653 2450 
Q 5147 2450 5437 2106 
Q 5728 1763 5728 1178 
Q 5728 594 5436 251 
Q 5144 -91 4653 -91 
Q 4153 -91 3862 251 
Q 3572 594 3572 1178 
Q 3572 1766 3864 2108 
Q 4156 2450 4653 2450 
z
M 4263 4750 
L 4738 4750 
L 1819 -91 
L 1344 -91 
L 4263 4750 
z
M 1428 4750 
Q 1922 4750 2215 4408 
Q 2509 4066 2509 3481 
Q 2509 2891 2217 2550 
Q 1925 2209 1428 2209 
Q 931 2209 642 2551 
Q 353 2894 353 3481 
Q 353 4063 643 4406 
Q 934 4750 1428 4750 
z
" transform="scale(0.015625)"/>
      </defs>
      <use xlink:href="#DejaVuSerif-4c"/>
      <use xlink:href="#DejaVuSerif-6f" x="66.40625"/>
      <use xlink:href="#DejaVuSerif-61" x="126.611328"/>
      <use xlink:href="#DejaVuSerif-64" x="186.230469"/>
      <use xlink:href="#DejaVuSerif-20" x="250.244141"/>
      <use xlink:href="#DejaVuSerif-2f" x="282.03125"/>
      <use xlink:href="#DejaVuSerif-20" x="315.722656"/>
      <use xlink:href="#DejaVuSerif-25" x="347.509766"/>
     </g>
    </g>
   </g>
   <g id="matplotlib.axis_2">
    <g id="ytick_1">
     <g id="line2d_7">
      <defs>
       <path id="m4c1a6aef65" d="M 0 0 
L -3.5 0 
" style="stroke: #000000; stroke-width: 0.8"/>
      </defs>
      <g>
       <use xlink:href="#m4c1a6aef65" x="56.928125" y="367.075119" style="stroke: #000000; stroke-width: 0.8"/>
      </g>
     </g>
     <g id="text_8">
      <!-- 0 -->
      <g transform="translate(43.565625 370.874337) scale(0.1 -0.1)">
       <use xlink:href="#DejaVuSerif-30"/>
      </g>
     </g>
    </g>
    <g id="ytick_2">
     <g id="line2d_8">
      <g>
       <use xlink:href="#m4c1a6aef65" x="56.928125" y="314.897718" style="stroke: #000000; stroke-width: 0.8"/>
      </g>
     </g>
     <g id="text_9">
      <!-- 200 -->
      <g transform="translate(30.840625 318.696937) scale(0.1 -0.1)">
       <use xlink:href="#DejaVuSerif-32"/>
       <use xlink:href="#DejaVuSerif-30" x="63.623047"/>
       <use xlink:href="#DejaVuSerif-30" x="127.246094"/>
      </g>
     </g>
    </g>
    <g id="ytick_3">
     <g id="line2d_9">
      <g>
       <use xlink:href="#m4c1a6aef65" x="56.928125" y="262.720317" style="stroke: #000000; stroke-width: 0.8"/>
      </g>
     </g>
     <g id="text_10">
      <!-- 400 -->
      <g transform="translate(30.840625 266.519536) scale(0.1 -0.1)">
       <use xlink:href="#DejaVuSerif-34"/>
       <use xlink:href="#DejaVuSerif-30" x="63.623047"/>
       <use xlink:href="#DejaVuSerif-30" x="127.246094"/>
      </g>
     </g>
    </g>
    <g id="ytick_4">
     <g id="line2d_10">
      <g>
       <use xlink:href="#m4c1a6aef65" x="56.928125" y="210.542916" style="stroke: #000000; stroke-width: 0.8"/>
      </g>
     </g>
     <g id="text_11">
      <!-- 600 -->
      <g transform="translate(30.840625 214.342135) scale(0.1 -0.1)">
       <use xlink:href="#DejaVuSerif-36"/>
       <use xlink:href="#DejaVuSerif-30" x="63.623047"/>
       <use xlink:href="#DejaVuSerif-30" x="127.246094"/>
      </g>
     </g>
    </g>
    <g id="ytick_5">
     <g id="line2d_11">
      <g>
       <use xlink:href="#m4c1a6aef65" x="56.928125" y="158.365516" style="stroke: #000000; stroke-width: 0.8"/>
      </g>
     </g>
     <g id="text_12">
      <!-- 800 -->
      <g transform="translate(30.840625 162.164735) scale(0.1 -0.1)">
       <use xlink:href="#DejaVuSerif-38"/>
       <use xlink:href="#DejaVuSerif-30" x="63.623047"/>
       <use xlink:href="#DejaVuSerif-30" x="127.246094"/>
      </g>
     </g>
    </g>
    <g id="ytick_6">
     <g id="line2d_12">
      <g>
       <use xlink:href="#m4c1a6aef65" x="56.928125" y="106.188115" style="stroke: #000000; stroke-width: 0.8"/>
      </g>
     </g>
     <g id="text_13">
      <!-- 1000 -->
      <g transform="translate(24.478125 109.987334) scale(0.1 -0.1)">
       <use xlink:href="#DejaVuSerif-31"/>
       <use xlink:href="#DejaVuSerif-30" x="63.623047"/>
       <use xlink:href="#DejaVuSerif-30" x="127.246094"/>
       <use xlink:href="#DejaVuSerif-30" x="190.869141"/>
      </g>
     </g>
    </g>
    <g id="ytick_7">
     <g id="line2d_13">
      <g>
       <use xlink:href="#m4c1a6aef65" x="56.928125" y="54.010714" style="stroke: #000000; stroke-width: 0.8"/>
      </g>
     </g>
     <g id="text_14">
      <!-- 1200 -->
      <g transform="translate(24.478125 57.809933) scale(0.1 -0.1)">
       <use xlink:href="#DejaVuSerif-31"/>
       <use xlink:href="#DejaVuSerif-32" x="63.623047"/>
       <use xlink:href="#DejaVuSerif-30" x="127.246094"/>
       <use xlink:href="#DejaVuSerif-30" x="190.869141"/>
      </g>
     </g>
    </g>
    <g id="text_15">
     <!-- Power / W -->
     <g transform="translate(18.398438 223.224988) rotate(-90) scale(0.1 -0.1)">
      <defs>
       <path id="DejaVuSerif-50" d="M 1581 2375 
L 2406 2375 
Q 2872 2375 3115 2626 
Q 3359 2878 3359 3353 
Q 3359 3831 3115 4081 
Q 2872 4331 2406 4331 
L 1581 4331 
L 1581 2375 
z
M 353 0 
L 353 331 
L 947 331 
L 947 4331 
L 353 4331 
L 353 4666 
L 2559 4666 
Q 3259 4666 3668 4311 
Q 4078 3956 4078 3353 
Q 4078 2753 3668 2397 
Q 3259 2041 2559 2041 
L 1581 2041 
L 1581 331 
L 2303 331 
L 2303 0 
L 353 0 
z
" transform="scale(0.015625)"/>
       <path id="DejaVuSerif-77" d="M 3072 3322 
L 3922 728 
L 4672 2988 
L 4191 2988 
L 4191 3322 
L 5394 3322 
L 5394 2988 
L 5025 2988 
L 4038 0 
L 3559 0 
L 2741 2484 
L 1919 0 
L 1459 0 
L 475 2988 
L 103 2988 
L 103 3322 
L 1606 3322 
L 1606 2988 
L 1069 2988 
L 1813 728 
L 2669 3322 
L 3072 3322 
z
" transform="scale(0.015625)"/>
       <path id="DejaVuSerif-65" d="M 3469 1600 
L 991 1600 
L 991 1575 
Q 991 903 1244 561 
Q 1497 219 1991 219 
Q 2369 219 2611 417 
Q 2853 616 2950 1006 
L 3413 1006 
Q 3275 459 2904 184 
Q 2534 -91 1931 -91 
Q 1203 -91 761 389 
Q 319 869 319 1663 
Q 319 2450 753 2931 
Q 1188 3413 1894 3413 
Q 2647 3413 3050 2948 
Q 3453 2484 3469 1600 
z
M 2791 1931 
Q 2772 2513 2545 2808 
Q 2319 3103 1894 3103 
Q 1497 3103 1269 2806 
Q 1041 2509 991 1931 
L 2791 1931 
z
" transform="scale(0.015625)"/>
       <path id="DejaVuSerif-72" d="M 3059 3328 
L 3059 2497 
L 2728 2497 
Q 2713 2744 2591 2866 
Q 2469 2988 2234 2988 
Q 1809 2988 1582 2694 
Q 1356 2400 1356 1850 
L 1356 331 
L 2022 331 
L 2022 0 
L 263 0 
L 263 331 
L 781 331 
L 781 2994 
L 231 2994 
L 231 3322 
L 1356 3322 
L 1356 2731 
Q 1525 3078 1790 3245 
Q 2056 3413 2438 3413 
Q 2578 3413 2733 3391 
Q 2888 3369 3059 3328 
z
" transform="scale(0.015625)"/>
       <path id="DejaVuSerif-57" d="M 4878 0 
L 4366 0 
L 3297 3794 
L 2228 0 
L 1716 0 
L 494 4331 
L 31 4331 
L 31 4666 
L 1734 4666 
L 1734 4331 
L 1153 4331 
L 2125 884 
L 3188 4666 
L 3694 4666 
L 4775 844 
L 5753 4331 
L 5216 4331 
L 5216 4666 
L 6559 4666 
L 6559 4331 
L 6100 4331 
L 4878 0 
z
" transform="scale(0.015625)"/>
      </defs>
      <use xlink:href="#DejaVuSerif-50"/>
      <use xlink:href="#DejaVuSerif-6f" x="63.285156"/>
      <use xlink:href="#DejaVuSerif-77" x="123.490234"/>
      <use xlink:href="#DejaVuSerif-65" x="209.085938"/>
      <use xlink:href="#DejaVuSerif-72" x="268.265625"/>
      <use xlink:href="#DejaVuSerif-20" x="316.068359"/>
      <use xlink:href="#DejaVuSerif-2f" x="347.855469"/>
      <use xlink:href="#DejaVuSerif-20" x="381.546875"/>
      <use xlink:href="#DejaVuSerif-57" x="413.333984"/>
     </g>
    </g>
   </g>
   <g id="line2d_14">
    <path d="M 73.176703 300.784644 
L 76.403829 283.244397 
L 79.630955 277.581157 
L 82.858081 275.547546 
L 86.085207 273.886796 
L 89.312332 272.226047 
L 92.539458 270.477497 
L 95.766584 268.669084 
L 98.99371 266.860672 
L 102.220836 265.052259 
L 105.447961 263.107058 
L 108.675087 261.052355 
L 111.902213 258.997653 
L 115.129339 256.942951 
L 118.356465 254.888249 
L 121.58359 252.981349 
L 124.810716 251.192526 
L 128.037842 249.403703 
L 131.264968 247.61488 
L 134.492094 245.826057 
L 137.71922 244.037234 
L 140.946345 242.248412 
L 144.173471 240.559768 
L 147.400597 238.933573 
L 150.627723 237.307378 
L 153.854849 235.681183 
L 157.081974 234.054989 
L 160.3091 232.428794 
L 163.536226 230.802599 
L 166.763352 229.176404 
L 169.990478 227.55021 
L 173.217603 225.924015 
L 176.444729 224.39795 
L 179.671855 222.900887 
L 182.898981 221.403825 
L 186.126107 219.906763 
L 189.353232 218.409701 
L 192.580358 217.007512 
L 195.807484 215.721654 
L 199.03461 214.435796 
L 202.261736 213.149937 
L 205.488861 211.864079 
L 208.715987 210.578221 
L 211.943113 209.292363 
L 215.170239 208.006505 
L 218.397365 206.722323 
L 221.62449 205.46751 
L 224.851616 204.212696 
L 228.078742 202.957882 
L 231.305868 201.703068 
L 234.532994 200.448255 
L 237.760119 199.193441 
L 240.987245 197.938627 
L 244.214371 196.683813 
L 247.441497 195.429 
L 250.668623 194.174186 
L 253.895748 192.919372 
L 257.122874 191.669217 
L 260.35 190.422171 
L 263.577126 189.175126 
L 266.804252 187.92808 
L 270.031378 186.681035 
L 273.258503 185.433989 
L 276.485629 184.186944 
L 279.712755 182.939898 
L 282.939881 181.692853 
L 286.167007 180.445807 
L 289.394132 179.198761 
L 292.621258 177.951716 
L 295.848384 176.748929 
L 299.07551 175.590065 
L 302.302636 174.431201 
L 305.529761 173.272337 
L 308.756887 172.113473 
L 311.984013 170.954609 
L 315.211139 169.795745 
L 318.438265 168.63688 
L 321.66539 167.478016 
L 324.892516 166.319152 
L 328.119642 165.16071 
L 331.346768 164.055275 
L 334.573894 162.949839 
L 337.801019 161.844403 
L 341.028145 160.738967 
L 344.255271 159.633531 
L 347.482397 158.470147 
L 350.709523 157.069961 
L 353.936648 155.669775 
L 357.163774 154.269589 
L 360.3909 152.869403 
L 363.618026 151.469216 
L 366.845152 150.06903 
L 370.072277 148.668844 
L 373.299403 147.501606 
L 376.526529 146.613619 
L 379.753655 145.725632 
L 382.980781 144.837645 
L 386.207906 143.949658 
L 389.435032 143.061671 
" clip-path="url(#p5cb6c8b05f)" style="fill: none; stroke: #47dbcd; stroke-width: 1.5; stroke-linecap: square"/>
   </g>
   <g id="line2d_15">
    <path d="M 73.176703 361.909556 
L 76.403829 361.794048 
L 79.630955 361.67854 
L 82.858081 361.563033 
L 86.085207 361.447525 
L 89.312332 361.332017 
L 92.539458 361.21651 
L 95.766584 361.101002 
L 98.99371 360.985494 
L 102.220836 360.869986 
L 105.447961 360.754479 
L 108.675087 360.638971 
L 111.902213 360.523463 
L 115.129339 360.407956 
L 118.356465 360.292448 
L 121.58359 360.17694 
L 124.810716 360.061432 
L 128.037842 359.945925 
L 131.264968 359.830417 
L 134.492094 359.714909 
L 137.71922 359.599401 
L 140.946345 359.483894 
L 144.173471 359.368386 
L 147.400597 359.252878 
L 150.627723 359.137371 
L 153.854849 359.021863 
L 157.081974 358.906355 
L 160.3091 358.790847 
L 163.536226 358.67534 
L 166.763352 358.559832 
L 169.990478 358.444324 
L 173.217603 358.328817 
L 176.444729 358.213309 
L 179.671855 358.097801 
L 182.898981 357.982293 
L 186.126107 357.866786 
L 189.353232 357.751278 
L 192.580358 357.63577 
L 195.807484 357.520262 
L 199.03461 357.404755 
L 202.261736 357.289247 
L 205.488861 357.173739 
L 208.715987 357.058232 
L 211.943113 356.942724 
L 215.170239 356.827216 
L 218.397365 356.711708 
L 221.62449 356.596201 
L 224.851616 356.480693 
L 228.078742 356.365185 
L 231.305868 356.249678 
L 234.532994 356.13417 
L 237.760119 356.018662 
L 240.987245 355.903154 
L 244.214371 355.787647 
L 247.441497 355.672139 
L 250.668623 355.556631 
L 253.895748 355.441124 
L 257.122874 355.325616 
L 260.35 355.210108 
L 263.577126 355.0946 
L 266.804252 354.979093 
L 270.031378 354.863585 
L 273.258503 354.748077 
L 276.485629 354.632569 
L 279.712755 354.517062 
L 282.939881 354.401554 
L 286.167007 354.286046 
L 289.394132 354.170539 
L 292.621258 354.055031 
L 295.848384 353.939523 
L 299.07551 353.824015 
L 302.302636 353.708508 
L 305.529761 353.593 
L 308.756887 353.477492 
L 311.984013 353.361985 
L 315.211139 353.246477 
L 318.438265 353.130969 
L 321.66539 353.015461 
L 324.892516 352.899954 
L 328.119642 352.784446 
L 331.346768 352.668938 
L 334.573894 352.553431 
L 337.801019 352.437923 
L 341.028145 352.322415 
L 344.255271 352.206907 
L 347.482397 352.0914 
L 350.709523 351.975892 
L 353.936648 351.860384 
L 357.163774 351.744876 
L 360.3909 351.629369 
L 363.618026 351.513861 
L 366.845152 351.398353 
L 370.072277 351.282846 
L 373.299403 351.167338 
L 376.526529 351.05183 
L 379.753655 350.936322 
L 382.980781 350.820815 
L 386.207906 350.705307 
L 389.435032 350.589799 
" clip-path="url(#p5cb6c8b05f)" style="fill: none; stroke: #2cbdfe; stroke-width: 1.5; stroke-linecap: square"/>
   </g>
   <g id="line2d_16">
    <path d="M 73.176703 367.075119 
L 76.403829 367.056196 
L 79.630955 367.037273 
L 82.858081 367.01835 
L 86.085207 366.999427 
L 89.312332 366.980504 
L 92.539458 366.961581 
L 95.766584 366.942658 
L 98.99371 366.923735 
L 102.220836 366.904812 
L 105.447961 366.885889 
L 108.675087 366.866966 
L 111.902213 366.848043 
L 115.129339 366.82912 
L 118.356465 366.810197 
L 121.58359 366.791273 
L 124.810716 366.77235 
L 128.037842 366.753427 
L 131.264968 366.734504 
L 134.492094 366.715581 
L 137.71922 366.696658 
L 140.946345 366.677735 
L 144.173471 366.658812 
L 147.400597 366.639889 
L 150.627723 366.620966 
L 153.854849 366.602043 
L 157.081974 366.58312 
L 160.3091 366.564197 
L 163.536226 366.545274 
L 166.763352 366.526351 
L 169.990478 366.507428 
L 173.217603 366.488505 
L 176.444729 366.469582 
L 179.671855 366.450659 
L 182.898981 366.431736 
L 186.126107 366.412813 
L 189.353232 366.39389 
L 192.580358 366.374967 
L 195.807484 366.356044 
L 199.03461 366.337121 
L 202.261736 366.318198 
L 205.488861 366.299275 
L 208.715987 366.280352 
L 211.943113 366.261429 
L 215.170239 366.242506 
L 218.397365 366.223583 
L 221.62449 366.20466 
L 224.851616 366.185737 
L 228.078742 366.166814 
L 231.305868 366.147891 
L 234.532994 366.128968 
L 237.760119 366.110045 
L 240.987245 366.091122 
L 244.214371 366.072199 
L 247.441497 366.053276 
L 250.668623 366.034353 
L 253.895748 366.01543 
L 257.122874 365.996507 
L 260.35 365.977584 
L 263.577126 365.958661 
L 266.804252 365.939738 
L 270.031378 365.920815 
L 273.258503 365.901892 
L 276.485629 365.882969 
L 279.712755 365.864046 
L 282.939881 365.845123 
L 286.167007 365.8262 
L 289.394132 365.807277 
L 292.621258 365.788354 
L 295.848384 365.769431 
L 299.07551 365.750508 
L 302.302636 365.731585 
L 305.529761 365.712662 
L 308.756887 365.693739 
L 311.984013 365.674816 
L 315.211139 365.655893 
L 318.438265 365.63697 
L 321.66539 365.618047 
L 324.892516 365.599124 
L 328.119642 365.580201 
L 331.346768 365.561278 
L 334.573894 365.542355 
L 337.801019 365.523432 
L 341.028145 365.504509 
L 344.255271 365.485586 
L 347.482397 365.466663 
L 350.709523 365.44774 
L 353.936648 365.428817 
L 357.163774 365.409894 
L 360.3909 365.390971 
L 363.618026 365.372048 
L 366.845152 365.353125 
L 370.072277 365.334202 
L 373.299403 365.315279 
L 376.526529 365.296356 
L 379.753655 365.277433 
L 382.980781 365.25851 
L 386.207906 365.239587 
L 389.435032 365.220664 
" clip-path="url(#p5cb6c8b05f)" style="fill: none; stroke: #f5b14c; stroke-width: 1.5; stroke-linecap: square"/>
   </g>
   <g id="line2d_17">
    <path d="M 73.176703 351.972753 
L 76.403829 348.2147 
L 79.630955 346.983479 
L 82.858081 346.524462 
L 86.085207 346.144772 
L 89.312332 345.765081 
L 92.539458 345.366711 
L 95.766584 344.955605 
L 98.99371 344.544499 
L 102.220836 344.133393 
L 105.447961 343.693186 
L 108.675087 343.229682 
L 111.902213 342.766178 
L 115.129339 342.302674 
L 118.356465 341.83917 
L 121.58359 341.407111 
L 124.810716 341.000172 
L 128.037842 340.593234 
L 131.264968 340.186296 
L 134.492094 339.779358 
L 137.71922 339.37242 
L 140.946345 338.965482 
L 144.173471 338.579856 
L 147.400597 338.207517 
L 150.627723 337.835178 
L 153.854849 337.462839 
L 157.081974 337.0905 
L 160.3091 336.718161 
L 163.536226 336.345822 
L 166.763352 335.973483 
L 169.990478 335.601144 
L 173.217603 335.228805 
L 176.444729 334.877768 
L 179.671855 334.532902 
L 182.898981 334.188036 
L 186.126107 333.84317 
L 189.353232 333.498304 
L 192.580358 333.173622 
L 195.807484 332.87369 
L 199.03461 332.573757 
L 202.261736 332.273825 
L 205.488861 331.973893 
L 208.715987 331.67396 
L 211.943113 331.374028 
L 215.170239 331.074095 
L 218.397365 330.77452 
L 221.62449 330.481192 
L 224.851616 330.187864 
L 228.078742 329.894536 
L 231.305868 329.601209 
L 234.532994 329.307881 
L 237.760119 329.014553 
L 240.987245 328.721225 
L 244.214371 328.427898 
L 247.441497 328.13457 
L 250.668623 327.841242 
L 253.895748 327.547914 
L 257.122874 327.255578 
L 260.35 326.963903 
L 263.577126 326.672228 
L 266.804252 326.380553 
L 270.031378 326.088878 
L 273.258503 325.797203 
L 276.485629 325.505527 
L 279.712755 325.213852 
L 282.939881 324.922177 
L 286.167007 324.630502 
L 289.394132 324.338827 
L 292.621258 324.047152 
L 295.848384 323.764893 
L 299.07551 323.491979 
L 302.302636 323.219064 
L 305.529761 322.94615 
L 308.756887 322.673235 
L 311.984013 322.400321 
L 315.211139 322.127407 
L 318.438265 321.854492 
L 321.66539 321.581578 
L 324.892516 321.308663 
L 328.119642 321.035839 
L 331.346768 320.774291 
L 334.573894 320.512743 
L 337.801019 320.251196 
L 341.028145 319.989648 
L 344.255271 319.728101 
L 347.482397 319.454224 
L 350.709523 319.129969 
L 353.936648 318.805713 
L 357.163774 318.481457 
L 360.3909 318.157202 
L 363.618026 317.832946 
L 366.845152 317.50869 
L 370.072277 317.184435 
L 373.299403 316.909739 
L 376.526529 316.694453 
L 379.753655 316.479168 
L 382.980781 316.263883 
L 386.207906 316.048597 
L 389.435032 315.833312 
" clip-path="url(#p5cb6c8b05f)" style="fill: none; stroke: #661d98; stroke-width: 1.5; stroke-linecap: square"/>
   </g>
   <g id="line2d_18">
    <path d="M 73.176703 280.516716 
L 76.403829 259.083985 
L 79.630955 252.055094 
L 82.858081 249.428035 
L 86.085207 247.253164 
L 89.312332 245.078293 
L 92.539458 242.796942 
L 95.766584 240.442993 
L 98.99371 238.089044 
L 102.220836 235.735095 
L 105.447961 233.215255 
L 108.675087 230.562618 
L 111.902213 227.909981 
L 115.129339 225.257344 
L 118.356465 222.604707 
L 121.58359 220.131317 
L 124.810716 217.801125 
L 128.037842 215.470934 
L 131.264968 213.140742 
L 134.492094 210.81055 
L 137.71922 208.480358 
L 140.946345 206.150167 
L 144.173471 203.941467 
L 147.400597 201.808502 
L 150.627723 199.675538 
L 153.854849 197.542573 
L 157.081974 195.409609 
L 160.3091 193.276644 
L 163.536226 191.14368 
L 166.763352 189.010715 
L 169.990478 186.877751 
L 173.217603 184.744786 
L 176.444729 182.733254 
L 179.671855 180.756895 
L 182.898981 178.780536 
L 186.126107 176.804177 
L 189.353232 174.827818 
L 192.580358 172.966516 
L 195.807484 171.246295 
L 199.03461 169.526074 
L 202.261736 167.805852 
L 205.488861 166.085631 
L 208.715987 164.36541 
L 211.943113 162.645188 
L 215.170239 160.924967 
L 218.397365 159.206779 
L 221.62449 157.524207 
L 224.851616 155.841635 
L 228.078742 154.159062 
L 231.305868 152.47649 
L 234.532994 150.793918 
L 237.760119 149.111346 
L 240.987245 147.428774 
L 244.214371 145.746201 
L 247.441497 144.063629 
L 250.668623 142.381057 
L 253.895748 140.698485 
L 257.122874 139.021562 
L 260.35 137.348411 
L 263.577126 135.67526 
L 266.804252 134.002108 
L 270.031378 132.328957 
L 273.258503 130.655806 
L 276.485629 128.982654 
L 279.712755 127.309503 
L 282.939881 125.636352 
L 286.167007 123.9632 
L 289.394132 122.290049 
L 292.621258 120.616898 
L 295.848384 118.997421 
L 299.07551 117.431211 
L 302.302636 115.865002 
L 305.529761 114.298793 
L 308.756887 112.732584 
L 311.984013 111.166375 
L 315.211139 109.600165 
L 318.438265 108.033956 
L 321.66539 106.467747 
L 324.892516 104.901538 
L 328.119642 103.335841 
L 331.346768 101.834426 
L 334.573894 100.333012 
L 337.801019 98.831598 
L 341.028145 97.330183 
L 344.255271 95.828769 
L 347.482397 94.257078 
L 350.709523 92.398206 
L 353.936648 90.539334 
L 357.163774 88.680461 
L 360.3909 86.821589 
L 363.618026 84.962716 
L 366.845152 83.103844 
L 370.072277 81.244971 
L 373.299403 79.668606 
L 376.526529 78.430903 
L 379.753655 77.1932 
L 382.980781 75.955497 
L 386.207906 74.717794 
L 389.435032 73.480091 
" clip-path="url(#p5cb6c8b05f)" style="fill: none; stroke-dasharray: 1.5,2.475; stroke-dashoffset: 0; stroke: #000000; stroke-width: 1.5"/>
   </g>
   <g id="line2d_19">
    <path d="M 73.176703 263.033382 
L 74.757995 247.84454 
L 76.081117 239.180483 
L 78.178748 231.606933 
L 80.79272 228.371934 
L 90.79681 220.850562 
L 103.963484 210.099409 
L 120.260469 195.033184 
L 142.882621 176.755441 
L 174.960251 153.124296 
L 192.322188 141.31655 
L 219.688215 125.238084 
L 257.026061 103.808826 
L 296.461538 81.30993 
L 330.669071 63.115671 
L 349.6123 53.483723 
L 374.848424 37.392212 
L 398.148272 27.765482 
" clip-path="url(#p5cb6c8b05f)" style="fill: none; stroke: #ff0000; stroke-width: 1.5; stroke-linecap: square"/>
   </g>
   <g id="patch_3">
    <path d="M 56.928125 384.0406 
L 56.928125 10.8 
" style="fill: none; stroke: #000000; stroke-linejoin: miter; stroke-linecap: square"/>
   </g>
   <g id="patch_4">
    <path d="M 414.39685 384.0406 
L 414.39685 10.8 
" style="fill: none; stroke: #000000; stroke-linejoin: miter; stroke-linecap: square"/>
   </g>
   <g id="patch_5">
    <path d="M 56.928125 384.0406 
L 414.39685 384.0406 
" style="fill: none; stroke: #000000; stroke-linejoin: miter; stroke-linecap: square"/>
   </g>
   <g id="patch_6">
    <path d="M 56.928125 10.8 
L 414.39685 10.8 
" style="fill: none; stroke: #000000; stroke-linejoin: miter; stroke-linecap: square"/>
   </g>
   <g id="legend_1">
    <g id="patch_7">
     <path d="M 63.928125 106.86875 
L 176.554688 106.86875 
Q 178.554688 106.86875 178.554688 104.86875 
L 178.554688 17.8 
Q 178.554688 15.8 176.554688 15.8 
L 63.928125 15.8 
Q 61.928125 15.8 61.928125 17.8 
L 61.928125 104.86875 
Q 61.928125 106.86875 63.928125 106.86875 
z
" style="fill: #ffffff; opacity: 0.8; stroke: #cccccc; stroke-linejoin: miter"/>
    </g>
    <g id="line2d_20">
     <path d="M 65.928125 23.898438 
L 75.928125 23.898438 
L 85.928125 23.898438 
" style="fill: none; stroke: #47dbcd; stroke-width: 1.5; stroke-linecap: square"/>
    </g>
    <g id="text_16">
     <!-- Power amplifier -->
     <g transform="translate(93.928125 27.398438) scale(0.1 -0.1)">
      <defs>
       <path id="DejaVuSerif-6d" d="M 3316 2675 
Q 3481 3041 3739 3227 
Q 3997 3413 4341 3413 
Q 4863 3413 5119 3089 
Q 5375 2766 5375 2113 
L 5375 331 
L 5894 331 
L 5894 0 
L 4300 0 
L 4300 331 
L 4800 331 
L 4800 2047 
Q 4800 2556 4650 2772 
Q 4500 2988 4153 2988 
Q 3769 2988 3567 2697 
Q 3366 2406 3366 1850 
L 3366 331 
L 3866 331 
L 3866 0 
L 2291 0 
L 2291 331 
L 2791 331 
L 2791 2069 
Q 2791 2566 2641 2777 
Q 2491 2988 2144 2988 
Q 1759 2988 1557 2697 
Q 1356 2406 1356 1850 
L 1356 331 
L 1856 331 
L 1856 0 
L 263 0 
L 263 331 
L 781 331 
L 781 2994 
L 231 2994 
L 231 3322 
L 1356 3322 
L 1356 2731 
Q 1516 3063 1762 3238 
Q 2009 3413 2322 3413 
Q 2709 3413 2968 3220 
Q 3228 3028 3316 2675 
z
" transform="scale(0.015625)"/>
       <path id="DejaVuSerif-70" d="M 1313 1825 
L 1313 1497 
Q 1313 897 1542 583 
Q 1772 269 2209 269 
Q 2650 269 2876 622 
Q 3103 975 3103 1663 
Q 3103 2353 2876 2703 
Q 2650 3053 2209 3053 
Q 1772 3053 1542 2737 
Q 1313 2422 1313 1825 
z
M 738 2988 
L 184 2988 
L 184 3322 
L 1313 3322 
L 1313 2803 
Q 1481 3116 1742 3264 
Q 2003 3413 2388 3413 
Q 3000 3413 3387 2928 
Q 3775 2444 3775 1663 
Q 3775 881 3387 395 
Q 3000 -91 2388 -91 
Q 2003 -91 1742 57 
Q 1481 206 1313 519 
L 1313 -997 
L 1856 -997 
L 1856 -1331 
L 184 -1331 
L 184 -997 
L 738 -997 
L 738 2988 
z
" transform="scale(0.015625)"/>
       <path id="DejaVuSerif-6c" d="M 1313 331 
L 1856 331 
L 1856 0 
L 184 0 
L 184 331 
L 738 331 
L 738 4531 
L 184 4531 
L 184 4863 
L 1313 4863 
L 1313 331 
z
" transform="scale(0.015625)"/>
       <path id="DejaVuSerif-69" d="M 622 4353 
Q 622 4497 726 4603 
Q 831 4709 978 4709 
Q 1122 4709 1226 4603 
Q 1331 4497 1331 4353 
Q 1331 4206 1228 4103 
Q 1125 4000 978 4000 
Q 831 4000 726 4103 
Q 622 4206 622 4353 
z
M 1356 331 
L 1900 331 
L 1900 0 
L 231 0 
L 231 331 
L 781 331 
L 781 2988 
L 231 2988 
L 231 3322 
L 1356 3322 
L 1356 331 
z
" transform="scale(0.015625)"/>
       <path id="DejaVuSerif-66" d="M 2753 4078 
L 2450 4078 
Q 2447 4313 2317 4434 
Q 2188 4556 1941 4556 
Q 1619 4556 1487 4379 
Q 1356 4203 1356 3750 
L 1356 3322 
L 2284 3322 
L 2284 2988 
L 1356 2988 
L 1356 331 
L 2094 331 
L 2094 0 
L 231 0 
L 231 331 
L 781 331 
L 781 2988 
L 231 2988 
L 231 3322 
L 781 3322 
L 781 3738 
Q 781 4294 1070 4578 
Q 1359 4863 1919 4863 
Q 2128 4863 2337 4825 
Q 2547 4788 2753 4709 
L 2753 4078 
z
" transform="scale(0.015625)"/>
      </defs>
      <use xlink:href="#DejaVuSerif-50"/>
      <use xlink:href="#DejaVuSerif-6f" x="63.285156"/>
      <use xlink:href="#DejaVuSerif-77" x="123.490234"/>
      <use xlink:href="#DejaVuSerif-65" x="209.085938"/>
      <use xlink:href="#DejaVuSerif-72" x="268.265625"/>
      <use xlink:href="#DejaVuSerif-20" x="316.068359"/>
      <use xlink:href="#DejaVuSerif-61" x="347.855469"/>
      <use xlink:href="#DejaVuSerif-6d" x="407.474609"/>
      <use xlink:href="#DejaVuSerif-70" x="502.298828"/>
      <use xlink:href="#DejaVuSerif-6c" x="566.3125"/>
      <use xlink:href="#DejaVuSerif-69" x="598.294922"/>
      <use xlink:href="#DejaVuSerif-66" x="630.277344"/>
      <use xlink:href="#DejaVuSerif-69" x="667.289062"/>
      <use xlink:href="#DejaVuSerif-65" x="699.271484"/>
      <use xlink:href="#DejaVuSerif-72" x="758.451172"/>
     </g>
    </g>
    <g id="line2d_21">
     <path d="M 65.928125 38.576563 
L 75.928125 38.576563 
L 85.928125 38.576563 
" style="fill: none; stroke: #2cbdfe; stroke-width: 1.5; stroke-linecap: square"/>
    </g>
    <g id="text_17">
     <!-- Baseband -->
     <g transform="translate(93.928125 42.076563) scale(0.1 -0.1)">
      <defs>
       <path id="DejaVuSerif-42" d="M 1581 331 
L 2516 331 
Q 3078 331 3337 575 
Q 3597 819 3597 1350 
Q 3597 1878 3339 2120 
Q 3081 2363 2516 2363 
L 1581 2363 
L 1581 331 
z
M 1581 2694 
L 2375 2694 
Q 2888 2694 3123 2891 
Q 3359 3088 3359 3513 
Q 3359 3941 3123 4136 
Q 2888 4331 2375 4331 
L 1581 4331 
L 1581 2694 
z
M 353 0 
L 353 331 
L 947 331 
L 947 4331 
L 353 4331 
L 353 4666 
L 2656 4666 
Q 3363 4666 3720 4377 
Q 4078 4088 4078 3513 
Q 4078 3097 3829 2850 
Q 3581 2603 3103 2547 
Q 3697 2472 4005 2167 
Q 4313 1863 4313 1350 
Q 4313 656 3875 328 
Q 3438 0 2509 0 
L 353 0 
z
" transform="scale(0.015625)"/>
       <path id="DejaVuSerif-73" d="M 359 184 
L 359 959 
L 691 959 
Q 703 588 923 403 
Q 1144 219 1575 219 
Q 1963 219 2166 364 
Q 2369 509 2369 788 
Q 2369 1006 2220 1140 
Q 2072 1275 1594 1428 
L 1178 1569 
Q 750 1706 558 1912 
Q 366 2119 366 2438 
Q 366 2894 700 3153 
Q 1034 3413 1625 3413 
Q 1888 3413 2178 3344 
Q 2469 3275 2778 3144 
L 2778 2419 
L 2447 2419 
Q 2434 2741 2221 2922 
Q 2009 3103 1644 3103 
Q 1281 3103 1095 2975 
Q 909 2847 909 2591 
Q 909 2381 1050 2254 
Q 1191 2128 1613 1997 
L 2069 1856 
Q 2541 1709 2748 1489 
Q 2956 1269 2956 922 
Q 2956 450 2595 179 
Q 2234 -91 1600 -91 
Q 1278 -91 972 -22 
Q 666 47 359 184 
z
" transform="scale(0.015625)"/>
       <path id="DejaVuSerif-62" d="M 738 331 
L 738 4531 
L 184 4531 
L 184 4863 
L 1313 4863 
L 1313 2803 
Q 1481 3116 1742 3264 
Q 2003 3413 2388 3413 
Q 3000 3413 3387 2928 
Q 3775 2444 3775 1663 
Q 3775 881 3387 395 
Q 3000 -91 2388 -91 
Q 2003 -91 1742 57 
Q 1481 206 1313 519 
L 1313 0 
L 184 0 
L 184 331 
L 738 331 
z
M 1313 1497 
Q 1313 897 1542 583 
Q 1772 269 2209 269 
Q 2650 269 2876 622 
Q 3103 975 3103 1663 
Q 3103 2353 2876 2703 
Q 2650 3053 2209 3053 
Q 1772 3053 1542 2737 
Q 1313 2422 1313 1825 
L 1313 1497 
z
" transform="scale(0.015625)"/>
       <path id="DejaVuSerif-6e" d="M 263 0 
L 263 331 
L 781 331 
L 781 2988 
L 231 2988 
L 231 3322 
L 1356 3322 
L 1356 2731 
Q 1516 3069 1770 3241 
Q 2025 3413 2363 3413 
Q 2913 3413 3172 3097 
Q 3431 2781 3431 2113 
L 3431 331 
L 3944 331 
L 3944 0 
L 2356 0 
L 2356 331 
L 2853 331 
L 2853 1931 
Q 2853 2541 2703 2767 
Q 2553 2994 2175 2994 
Q 1775 2994 1565 2701 
Q 1356 2409 1356 1850 
L 1356 331 
L 1856 331 
L 1856 0 
L 263 0 
z
" transform="scale(0.015625)"/>
      </defs>
      <use xlink:href="#DejaVuSerif-42"/>
      <use xlink:href="#DejaVuSerif-61" x="73.486328"/>
      <use xlink:href="#DejaVuSerif-73" x="133.105469"/>
      <use xlink:href="#DejaVuSerif-65" x="184.423828"/>
      <use xlink:href="#DejaVuSerif-62" x="243.603516"/>
      <use xlink:href="#DejaVuSerif-61" x="307.617188"/>
      <use xlink:href="#DejaVuSerif-6e" x="367.236328"/>
      <use xlink:href="#DejaVuSerif-64" x="431.640625"/>
     </g>
    </g>
    <g id="line2d_22">
     <path d="M 65.928125 53.254687 
L 75.928125 53.254687 
L 85.928125 53.254687 
" style="fill: none; stroke: #f5b14c; stroke-width: 1.5; stroke-linecap: square"/>
    </g>
    <g id="text_18">
     <!-- Radio -->
     <g transform="translate(93.928125 56.754687) scale(0.1 -0.1)">
      <defs>
       <path id="DejaVuSerif-52" d="M 3066 2316 
Q 3284 2256 3442 2114 
Q 3600 1972 3725 1716 
L 4403 331 
L 4972 331 
L 4972 0 
L 3872 0 
L 3144 1484 
Q 2934 1916 2759 2042 
Q 2584 2169 2278 2169 
L 1581 2169 
L 1581 331 
L 2241 331 
L 2241 0 
L 353 0 
L 353 331 
L 947 331 
L 947 4331 
L 353 4331 
L 353 4666 
L 2719 4666 
Q 3400 4666 3770 4341 
Q 4141 4016 4141 3419 
Q 4141 2938 3870 2661 
Q 3600 2384 3066 2316 
z
M 1581 2503 
L 2503 2503 
Q 2975 2503 3200 2726 
Q 3425 2950 3425 3419 
Q 3425 3888 3200 4109 
Q 2975 4331 2503 4331 
L 1581 4331 
L 1581 2503 
z
" transform="scale(0.015625)"/>
      </defs>
      <use xlink:href="#DejaVuSerif-52"/>
      <use xlink:href="#DejaVuSerif-61" x="77.542969"/>
      <use xlink:href="#DejaVuSerif-64" x="137.162109"/>
      <use xlink:href="#DejaVuSerif-69" x="201.175781"/>
      <use xlink:href="#DejaVuSerif-6f" x="233.158203"/>
     </g>
    </g>
    <g id="line2d_23">
     <path d="M 65.928125 67.932813 
L 75.928125 67.932813 
L 85.928125 67.932813 
" style="fill: none; stroke: #661d98; stroke-width: 1.5; stroke-linecap: square"/>
    </g>
    <g id="text_19">
     <!-- Overhead -->
     <g transform="translate(93.928125 71.432813) scale(0.1 -0.1)">
      <defs>
       <path id="DejaVuSerif-4f" d="M 2625 244 
Q 3391 244 3781 770 
Q 4172 1297 4172 2328 
Q 4172 3363 3781 3889 
Q 3391 4416 2625 4416 
Q 1856 4416 1465 3889 
Q 1075 3363 1075 2328 
Q 1075 1297 1465 770 
Q 1856 244 2625 244 
z
M 2625 -91 
Q 2150 -91 1751 65 
Q 1353 222 1050 525 
Q 700 875 529 1319 
Q 359 1763 359 2328 
Q 359 2894 529 3339 
Q 700 3784 1050 4134 
Q 1356 4441 1750 4595 
Q 2144 4750 2625 4750 
Q 3641 4750 4266 4084 
Q 4891 3419 4891 2328 
Q 4891 1769 4719 1320 
Q 4547 872 4197 525 
Q 3891 219 3497 64 
Q 3103 -91 2625 -91 
z
" transform="scale(0.015625)"/>
       <path id="DejaVuSerif-76" d="M 1581 0 
L 359 2988 
L -19 2988 
L -19 3322 
L 1509 3322 
L 1509 2988 
L 978 2988 
L 1913 703 
L 2847 2988 
L 2350 2988 
L 2350 3322 
L 3597 3322 
L 3597 2988 
L 3225 2988 
L 2003 0 
L 1581 0 
z
" transform="scale(0.015625)"/>
       <path id="DejaVuSerif-68" d="M 263 0 
L 263 331 
L 781 331 
L 781 4531 
L 231 4531 
L 231 4863 
L 1356 4863 
L 1356 2731 
Q 1516 3069 1770 3241 
Q 2025 3413 2363 3413 
Q 2913 3413 3172 3097 
Q 3431 2781 3431 2113 
L 3431 331 
L 3944 331 
L 3944 0 
L 2356 0 
L 2356 331 
L 2853 331 
L 2853 1931 
Q 2853 2541 2704 2764 
Q 2556 2988 2175 2988 
Q 1775 2988 1565 2697 
Q 1356 2406 1356 1850 
L 1356 331 
L 1856 331 
L 1856 0 
L 263 0 
z
" transform="scale(0.015625)"/>
      </defs>
      <use xlink:href="#DejaVuSerif-4f"/>
      <use xlink:href="#DejaVuSerif-76" x="81.982422"/>
      <use xlink:href="#DejaVuSerif-65" x="138.476562"/>
      <use xlink:href="#DejaVuSerif-72" x="197.65625"/>
      <use xlink:href="#DejaVuSerif-68" x="245.458984"/>
      <use xlink:href="#DejaVuSerif-65" x="309.863281"/>
      <use xlink:href="#DejaVuSerif-61" x="369.042969"/>
      <use xlink:href="#DejaVuSerif-64" x="428.662109"/>
     </g>
    </g>
    <g id="line2d_24">
     <path d="M 65.928125 82.610937 
L 75.928125 82.610937 
L 85.928125 82.610937 
" style="fill: none; stroke-dasharray: 1.5,2.475; stroke-dashoffset: 0; stroke: #000000; stroke-width: 1.5"/>
    </g>
    <g id="text_20">
     <!-- total -->
     <g transform="translate(93.928125 86.110937) scale(0.1 -0.1)">
      <defs>
       <path id="DejaVuSerif-74" d="M 691 2988 
L 184 2988 
L 184 3322 
L 691 3322 
L 691 4353 
L 1269 4353 
L 1269 3322 
L 2350 3322 
L 2350 2988 
L 1269 2988 
L 1269 878 
Q 1269 456 1350 337 
Q 1431 219 1650 219 
Q 1875 219 1978 351 
Q 2081 484 2088 781 
L 2522 781 
Q 2497 328 2275 118 
Q 2053 -91 1600 -91 
Q 1103 -91 897 129 
Q 691 350 691 878 
L 691 2988 
z
" transform="scale(0.015625)"/>
      </defs>
      <use xlink:href="#DejaVuSerif-74"/>
      <use xlink:href="#DejaVuSerif-6f" x="40.185547"/>
      <use xlink:href="#DejaVuSerif-74" x="100.390625"/>
      <use xlink:href="#DejaVuSerif-61" x="140.576172"/>
      <use xlink:href="#DejaVuSerif-6c" x="200.195312"/>
     </g>
    </g>
    <g id="line2d_25">
     <path d="M 65.928125 97.289062 
L 75.928125 97.289062 
L 85.928125 97.289062 
" style="fill: none; stroke: #ff0000; stroke-width: 1.5; stroke-linecap: square"/>
    </g>
    <g id="text_21">
     <!-- (Desset et al) -->
     <g transform="translate(93.928125 100.789062) scale(0.1 -0.1)">
      <defs>
       <path id="DejaVuSerif-28" d="M 2041 -997 
Q 1281 -656 893 83 
Q 506 822 506 1931 
Q 506 3044 893 3783 
Q 1281 4522 2041 4863 
L 2041 4556 
Q 1559 4225 1350 3623 
Q 1141 3022 1141 1931 
Q 1141 844 1350 242 
Q 1559 -359 2041 -691 
L 2041 -997 
z
" transform="scale(0.015625)"/>
       <path id="DejaVuSerif-44" d="M 1581 331 
L 2163 331 
Q 3072 331 3558 850 
Q 4044 1369 4044 2338 
Q 4044 3306 3559 3818 
Q 3075 4331 2163 4331 
L 1581 4331 
L 1581 331 
z
M 353 0 
L 353 331 
L 947 331 
L 947 4331 
L 353 4331 
L 353 4666 
L 2209 4666 
Q 3416 4666 4089 4050 
Q 4763 3434 4763 2338 
Q 4763 1238 4088 619 
Q 3413 0 2209 0 
L 353 0 
z
" transform="scale(0.015625)"/>
       <path id="DejaVuSerif-29" d="M 453 -997 
L 453 -691 
Q 934 -359 1145 242 
Q 1356 844 1356 1931 
Q 1356 3022 1145 3623 
Q 934 4225 453 4556 
L 453 4863 
Q 1216 4522 1603 3783 
Q 1991 3044 1991 1931 
Q 1991 822 1603 83 
Q 1216 -656 453 -997 
z
" transform="scale(0.015625)"/>
      </defs>
      <use xlink:href="#DejaVuSerif-28"/>
      <use xlink:href="#DejaVuSerif-44" x="39.013672"/>
      <use xlink:href="#DejaVuSerif-65" x="119.189453"/>
      <use xlink:href="#DejaVuSerif-73" x="178.369141"/>
      <use xlink:href="#DejaVuSerif-73" x="229.6875"/>
      <use xlink:href="#DejaVuSerif-65" x="281.005859"/>
      <use xlink:href="#DejaVuSerif-74" x="340.185547"/>
      <use xlink:href="#DejaVuSerif-20" x="380.371094"/>
      <use xlink:href="#DejaVuSerif-65" x="412.158203"/>
      <use xlink:href="#DejaVuSerif-74" x="471.337891"/>
      <use xlink:href="#DejaVuSerif-20" x="511.523438"/>
      <use xlink:href="#DejaVuSerif-61" x="543.310547"/>
      <use xlink:href="#DejaVuSerif-6c" x="602.929688"/>
      <use xlink:href="#DejaVuSerif-29" x="634.912109"/>
     </g>
    </g>
   </g>
  </g>
 </g>
 <defs>
  <clipPath id="p5cb6c8b05f">
   <rect x="56.928125" y="10.8" width="357.468725" height="373.2406"/>
  </clipPath>
 </defs>
</svg>
